SplineFontDB: 3.0
FontName: CrimsonText-Semibold
FullName: Crimson Text Semibold
FamilyName: Crimson Text
Weight: Bold
Copyright: Copyright (c) 2010, Sebastian Kosch (sebastian@aldusleaf.org),\nwith Reserved Font Name "Crimson Text".\nThis Font Software is licensed under the SIL Open Font License, Version 1.1.\nThis license is available with a FAQ at: http://scripts.sil.org/OFL
UComments: "2010-5-29: Created." 
Version: 0.12
ItalicAngle: 0
UnderlinePosition: -100
UnderlineWidth: 50
Ascent: 717
Descent: 307
LayerCount: 2
Layer: 0 0 "Back"  1
Layer: 1 0 "Fore"  0
NeedsXUIDChange: 1
XUID: [1021 85 519305545 15271059]
FSType: 0
OS2Version: 0
OS2_WeightWidthSlopeOnly: 0
OS2_UseTypoMetrics: 1
CreationTime: 1275165280
ModificationTime: 1290540927
PfmFamily: 17
TTFWeight: 600
TTFWidth: 5
LineGap: 92
VLineGap: 0
OS2TypoAscent: 0
OS2TypoAOffset: 1
OS2TypoDescent: 0
OS2TypoDOffset: 1
OS2TypoLinegap: 92
OS2WinAscent: 0
OS2WinAOffset: 1
OS2WinDescent: 0
OS2WinDOffset: 1
HheadAscent: 0
HheadAOffset: 1
HheadDescent: 0
HheadDOffset: 1
OS2Vendor: 'PfEd'
Lookup: 1 0 0 "'smcp' Lowercase to Small Capitals in Latin lookup 0"  {"'smcp' Lowercase to Small Capitals in Latin lookup 0 subtable"  } ['smcp' ('latn' <'dflt' > ) ]
Lookup: 1 0 0 "'c2sc' Capitals to Small Capitals in Latin lookup 0"  {"'c2sc' Capitals to Small Capitals in Latin lookup 0 subtable"  } ['c2sc' ('latn' <'dflt' > ) ]
Lookup: 1 0 0 "'onum' Oldstyle Figures in Latin lookup 3"  {"'onum' Oldstyle Figures in Latin lookup 3-1" ("oldstyle" ) } ['onum' ('DFLT' <'dflt' > 'latn' <'dflt' > ) ]
Lookup: 4 0 1 "'liga' Standard Ligatures in Latin lookup 0"  {"'liga' Standard Ligatures in Latin lookup 0-1"  } ['liga' ('DFLT' <'dflt' > 'latn' <'dflt' > ) ]
MarkAttachClasses: 1
DEI: 91125
LangName: 1033 
Encoding: UnicodeBmp
Compacted: 1
UnicodeInterp: none
NameList: Adobe Glyph List
DisplaySize: -24
AntiAlias: 1
FitToEm: 1
WidthSeparation: 70
WinInfo: 66 11 10
Grid
-1024 694 m 4
 2048 694 l 4
  Named: "Ascenders" 
-3 -224 m 17

StartChar: exclam
Encoding: 33 33 1
Width: 178
Flags: W
HStem: -12 132<41.9102 137.565>
VStem: 23 132<7.34142 103.603> 33 112<353.117 628.093>
LayerCount: 2
Fore
SplineSet
92 642 m 0xa0
 123 642 145 613 145 576 c 0
 145 548 123 375 109 201 c 0
 107 181 99 173 81 169 c 0
 75 167 70 179 68 191 c 0
 53 378 33 526 33 577 c 0
 33 614 58 642 92 642 c 0xa0
23 56 m 0xc0
 23 93 54 120 89 120 c 0
 126 120 155 92 155 56 c 0
 155 20 127 -12 91 -12 c 0
 57 -12 23 18 23 56 c 0xc0
EndSplineSet
Validated: 1
EndChar

StartChar: quotedbl
Encoding: 34 34 2
Width: 321
Flags: W
HStem: 434 264<62.0527 98.6168 225.42 259.623>
VStem: 28 101<522.226 678.189> 192 100<522.226 679.379>
LayerCount: 2
Fore
SplineSet
83 698 m 2
 99 698 l 2
 115 698 129 692 129 633 c 0
 129 577 104 516 98 449 c 0
 97 439 87 434 80 434 c 0
 72 434 63 439 62 447 c 0
 53 537 28 594 28 635 c 0
 28 653 57 698 83 698 c 2
246 698 m 2
 263 698 l 2
 279 698 292 692 292 633 c 0
 292 577 265 516 259 449 c 0
 258 439 248 434 241 434 c 0
 234 434 227 439 226 447 c 0
 217 537 192 594 192 635 c 0
 192 653 220 698 246 698 c 2
EndSplineSet
Validated: 1
EndChar

StartChar: numbersign
Encoding: 35 35 3
Width: 472
Flags: W
HStem: 173 61<34.0959 116 187 266 337 436.905> 314 62<34.0959 137 209 288 359 440.915>
VStem: 93 63<15.2675 70.4362>
LayerCount: 2
Fore
SplineSet
305 24 m 1
 305 24 308 15 275 15 c 2
 257 15 l 2
 243 15 244 24 244 24 c 1
 266 173 l 1
 178 173 l 1
 156 24 l 2
 156 23 158 15 125 15 c 2
 107 15 l 2
 93 15 93 24 93 24 c 1
 116 173 l 1
 32 173 l 1
 32 173 26 173 26 183 c 0
 26 187 27 205 34 229 c 0
 36 235 41 234 41 234 c 1
 125 234 l 1
 137 314 l 1
 32 314 l 1
 32 314 26 315 26 325 c 0
 26 329 27 347 34 371 c 0
 36 377 41 376 41 376 c 1
 146 376 l 1
 170 530 l 2
 170 531 174 539 222 539 c 0
 236 539 232 530 232 530 c 1
 209 376 l 1
 297 376 l 1
 321 530 l 2
 321 531 325 539 373 539 c 0
 387 539 383 530 383 530 c 1
 359 376 l 1
 439 376 l 1
 439 376 446 379 446 369 c 0
 446 361 442 337 437 321 c 0
 435 315 431 314 431 314 c 1
 350 314 l 1
 337 234 l 1
 439 234 l 1
 439 234 446 237 446 227 c 0
 446 219 442 195 437 179 c 0
 435 173 431 173 431 173 c 1
 329 173 l 1
 305 24 l 1
276 234 m 1
 288 314 l 1
 200 314 l 1
 187 234 l 1
 276 234 l 1
EndSplineSet
Validated: 33
EndChar

StartChar: dollar
Encoding: 36 36 4
Width: 457
Flags: HW
LayerCount: 2
Fore
SplineSet
265.5 675.5 m 17
 273.5 675.5 302.5 675 302.5 668 c 9
 185.5 -46 l 17
 176.5 -46 148.5 -44 148.5 -37 c 9
 265.5 675.5 l 17
230 643.5 m 0
 292.5 643.5 354.5 623.5 379 619.5 c 1
 386.5 579.5 395.5 520.5 395.5 471 c 1
 393.5 464 384.5 462 377 462 c 0
 367.5 462.5 355.617 462.923 355 471 c 0
 352.5 493 312.5 595.5 228 595.5 c 0
 168 595.5 134.5 563.5 134.5 506 c 0
 134.5 448 189.066 409.549 254.5 370 c 0
 340.5 318 431.5 273.226 431.5 170.5 c 0
 431.5 64 325 -8.5 218.5 -8.5 c 0
 155 -8.5 87 8 50 15.5 c 1
 37 58 27.5 122 25 170.5 c 1
 24.5 178 36.5 179.5 42.5 179.5 c 0
 51.5 179.5 64 176.5 68.5 173.5 c 1
 78.5 132.5 117.5 38.5 221.5 38.5 c 0
 274.5 38.5 323.5 76 323.5 143 c 0
 323.5 204.5 266.356 237.164 215 267.5 c 0
 124.188 319.097 33 365.5 33 470 c 0
 33 572 133.5 643.5 230 643.5 c 0
EndSplineSet
EndChar

StartChar: percent
Encoding: 37 37 5
Width: 645
Flags: W
HStem: -3 31<437.775 510.503> 278 31<425.435 500.766> 331 32<145.296 219.915> 613 30<132.932 205.539>
VStem: 23 80<405.972 567.8> 247 82<406.768 567.825> 315 80<71.7101 233.597> 539 82<70.9763 233.563>
LayerCount: 2
Fore
SplineSet
169 613 m 0xfd
 119 613 103 553 103 503 c 0
 103 439 129 363 183 363 c 0
 233 363 247 421 247 471 c 0
 247 535 226 613 169 613 c 0xfd
176 643 m 0
 264 643 329 572 329 486 c 0
 329 404 266 331 176 331 c 0
 90 331 23 400 23 486 c 0
 23 572 88 643 176 643 c 0
463 278 m 0
 413 278 395 219 395 169 c 0xfb
 395 105 421 28 475 28 c 0
 525 28 539 87 539 137 c 0
 539 201 520 278 463 278 c 0
469 309 m 0
 557 309 621 238 621 152 c 0
 621 70 559 -3 469 -3 c 0
 383 -3 315 66 315 152 c 0
 315 238 381 309 469 309 c 0
593 626 m 1
 111 4 l 2
 107 -2 89 -8 77 -8 c 0
 57 -8 50 0 49 4 c 1
 531 628 l 2
 536 634 544 641 550 641 c 0
 576 641 583 634 593 626 c 1
EndSplineSet
Validated: 1
EndChar

StartChar: ampersand
Encoding: 38 38 6
Width: 681
Flags: W
HStem: -3.5 51.5<183.008 325.222> -1.5 65<504.064 573.363> 284.5 27.5<436.356 482.32 583.201 644.75> 611.5 44.5<242.238 332.372>
VStem: 25.5 113<91.933 239.7> 123.5 96.5<450.34 586.959> 355.5 87.5<457.877 589.699>
LayerCount: 2
Fore
SplineSet
359 98 m 1xba
 311.5 148 213 301 213 301 c 1
 173.5 273.5 138.5 240.5 138.5 167.5 c 0
 138.5 83 195.5 48 256 48 c 0
 295.5 48 336.5 72.5 359 98 c 1xba
287.5 611.5 m 0
 244.5 611.5 220 575.5 220 533.5 c 0x36
 220 487 247.5 437 270.5 396 c 1
 322.5 429 355.5 458.5 355.5 527 c 0
 355.5 565 332.5 611.5 287.5 611.5 c 0
286.5 656 m 0
 381.497 656.542 443 610.5 443 538.5 c 0
 443 448.5 374.5 396.5 298.5 349.5 c 1
 331.5 295 387.5 220.5 428 172.5 c 1
 458.5 214.5 483 255.5 483 266.5 c 0
 483 288 444 281.5 437.5 284.5 c 1
 434.5 292 434 309 438.5 312 c 1
 529.5 311.5 l 2
 564.5 311.5 594.5 313.5 640 315.5 c 1
 643.702 313.436 644.771 305.743 644.771 300.5 c 1
 644.771 292.796 644.436 283.5 638 282.5 c 0
 626 282 585.5 275 570 264.5 c 0
 560 258 507.5 176.5 463.5 127 c 1
 489.5 99.5 518.5 63.5 547 63.5 c 0
 572.5 63.5 599.5 99 606 112.5 c 1
 616 112.5 631.5 100 631.5 91.5 c 1
 627.5 81 584 -1.5 510 -1.5 c 1x76
 443.5 -1.5 393.5 62 393.5 62 c 1
 345.5 20 288 -3.5 221.5 -3.5 c 1
 116.5 -3.5 25.5 48.5 25.5 160 c 0xba
 25.5 258.5 112.5 313.5 181.5 352 c 1
 156.5 395 123.5 446.5 123.5 509.5 c 0
 123.5 601 197.5 655.5 286.5 656 c 0
EndSplineSet
EndChar

StartChar: quotesingle
Encoding: 39 39 7
Width: 201
Flags: W
HStem: 434 264<84.4202 118.625>
VStem: 51 101<522.226 679.379>
LayerCount: 2
Fore
SplineSet
105 698 m 2
 122 698 l 2
 138 698 152 692 152 633 c 0
 152 577 124 516 118 449 c 0
 117 439 107 434 100 434 c 0
 93 434 86 439 85 447 c 0
 76 537 51 594 51 635 c 0
 51 653 79 698 105 698 c 2
EndSplineSet
Validated: 1
EndChar

StartChar: parenleft
Encoding: 40 40 8
Width: 281
Flags: W
HStem: -129 29<242.234 257.491> 720 28<241.442 256.726>
VStem: 27 94<150.812 464.78>
LayerCount: 2
Fore
SplineSet
121 305 m 0
 121 85 219 -81 257 -100 c 0
 259 -101 259 -104 259 -106 c 0
 259 -113 254 -129 247 -129 c 0
 200 -129 27 51 27 305 c 0
 27 561 191 748 247 748 c 0
 254 748 259 729 259 722 c 0
 259 720 259 720 258 720 c 0
 199 686 121 508 121 305 c 0
EndSplineSet
Validated: 1
EndChar

StartChar: parenright
Encoding: 41 41 9
Width: 282
Flags: W
HStem: -129 29<23.7613 40.2062> 720 28<24.6355 40.7341>
VStem: 160 95<153.057 463.979>
LayerCount: 2
Fore
SplineSet
160 305 m 0
 160 508 82 686 24 720 c 0
 23 720 22 720 22 722 c 0
 22 729 28 748 35 748 c 0
 93 748 255 557 255 305 c 0
 255 58 87 -129 35 -129 c 0
 28 -129 22 -113 22 -106 c 0
 22 -104 22 -101 24 -100 c 0
 63 -81 160 89 160 305 c 0
EndSplineSet
Validated: 1
EndChar

StartChar: asterisk
Encoding: 42 42 10
Width: 415
Flags: W
HStem: 387 65<299.679 385.997>
VStem: 117 64<573.908 661.409> 154 72<302.951 407.379> 194 27<418.76 460.905>
LayerCount: 2
Fore
SplineSet
294 618 m 0xd0
 311 635 337 639 351 624 c 0
 366 608 364 584 346 567 c 0
 315 538 278 529 249 502 c 0
 247 501 244 495 245 491 c 0
 246 487 250 484 253 483 c 0
 288 467 324 471 363 452 c 0
 385 441 396 418 386 400 c 0
 376 381 352 375 330 387 c 0
 293 408 273 441 238 460 c 0
 236 461 230 463 227 461 c 0
 223 459 221 455 221 452 c 0xd0
 216 414 232 381 226 338 c 0
 222 314 203 295 183 299 c 0
 162 303 150 324 154 348 c 0xa0
 162 390 187 419 194 458 c 0
 194 460 195 466 193 469 c 0
 190 472 184 471 181 470 c 0
 143 463 118 438 75 431 c 0
 51 427 27 439 24 460 c 0
 21 481 37 500 62 503 c 0
 104 508 140 493 179 498 c 0
 181 498 188 500 189 504 c 0
 190 508 188 513 187 515 c 0
 169 549 137 566 117 605 c 0
 106 627 110 652 129 661 c 0
 149 670 171 661 181 638 c 0
 199 599 196 562 213 526 c 0
 213 524 217 517 221 517 c 0
 225 517 229 521 231 523 c 0
 257 551 264 587 294 618 c 0xd0
EndSplineSet
Validated: 33
EndChar

StartChar: plus
Encoding: 43 43 11
Width: 531
Flags: W
HStem: 214 64<34.0959 232.999 297.001 494.904>
VStem: 233 64<12.7003 213.998 278 476.904>
LayerCount: 2
Fore
SplineSet
297 211 m 6
 297 23 l 5
 297 23 290 13 245 7 c 4
 242 7 241 6 239 6 c 4
 233 6 233 10 233 14 c 6
 233 209 l 6
 233 211 232 214 227 214 c 6
 32 214 l 5
 32 214 26 214 26 224 c 4
 26 228 27 249 34 273 c 4
 36 279 41 278 41 278 c 5
 228 278 l 6
 231 278 233 282 233 284 c 6
 233 470 l 5
 233 470 232 475 238 477 c 4
 262 484 283 485 287 485 c 4
 297 485 297 479 297 479 c 5
 297 283 l 6
 297 280 298 278 301 278 c 6
 497 278 l 6
 501 278 505 279 505 272 c 4
 505 263 501 242 495 220 c 4
 493 214 488 214 488 214 c 5
 301 214 l 6
 298 214 297 213 297 211 c 6
EndSplineSet
Validated: 1
EndChar

StartChar: comma
Encoding: 44 44 12
Width: 213
Flags: W
HStem: -166 298
VStem: 92 92<-33.3372 90.6653>
LayerCount: 2
Fore
SplineSet
92 -16 m 4
 92 17 62 34 62 69 c 4
 62 93 89 132 138 132 c 4
 146 132 160 132 170 126 c 5
 177 112 184 80 184 56 c 4
 184 40 178 15 176 8 c 4
 155 -66 126 -106 48 -166 c 5
 47 -166 l 6
 41 -166 24 -147 24 -138 c 4
 24 -131 92 -93 92 -16 c 4
EndSplineSet
Validated: 1
EndChar

StartChar: hyphen
Encoding: 45 45 13
Width: 324
Flags: W
HStem: 196 68<33.2148 187.957> 207 69<141.043 288.448>
VStem: 31 261
LayerCount: 2
Fore
SplineSet
31 207 m 0x60
 31 255 40 264 43 264 c 2
 44 264 l 1xa0
 285 276 l 1
 286 276 l 2
 288 276 292 275 292 267 c 0
 292 218 279 207 279 207 c 1x60
 38 196 l 1xa0
 38 196 31 195 31 207 c 0x60
EndSplineSet
Validated: 1
EndChar

StartChar: period
Encoding: 46 46 14
Width: 191
Flags: W
HStem: -12 135<47.6156 144.975>
VStem: 29 134<6.20984 105.243>
LayerCount: 2
Fore
SplineSet
163 56 m 4
 163 20 134 -12 97 -12 c 5
 59 -12 29 20 29 56 c 4
 29 92 60 123 97 123 c 5
 133 123 163 92 163 56 c 4
EndSplineSet
Validated: 1
EndChar

StartChar: slash
Encoding: 47 47 15
Width: 416
Flags: W
LayerCount: 2
Fore
SplineSet
395 755 m 1
 99 -12 l 2
 97 -19 74 -35 39 -35 c 0
 24 -35 21 -28 21 -28 c 1
 317 739 l 1
 324 754 336 761 366 761 c 0
 380 761 391 757 395 755 c 1
EndSplineSet
Validated: 1
EndChar

StartChar: zero
Encoding: 48 48 16
Width: 503
Flags: W
HStem: -3 44<212.374 298.221> 590 43<208.824 297.377>
VStem: 27 116<183.74 447.144> 361 115<182.705 446.173>
LayerCount: 2
Fore
SplineSet
143 316 m 0
 143 159 192 41 254 41 c 0
 322 41 361 164 361 321 c 0
 361 478 318 590 254 590 c 0
 188 590 143 473 143 316 c 0
27 315 m 0
 27 489 133 633 253 633 c 0
 373 633 476 489 476 315 c 0
 476 141 373 -3 253 -3 c 0
 133 -3 27 141 27 315 c 0
EndSplineSet
Validated: 1
Substitution2: "'onum' Oldstyle Figures in Latin lookup 3-1" zero.onum
EndChar

StartChar: one
Encoding: 49 49 17
Width: 400
Flags: W
HStem: -3.5 33<86.0583 147.263 280.089 340.213>
VStem: 160.25 106.5<41.8081 515.495>
LayerCount: 2
Fore
SplineSet
76.25 482.5 m 1
 68.25 486.5 59.75 500.5 59.75 507 c 0
 59.75 509 59.75 514 61.75 516 c 0
 168.75 587 259.25 642.5 262.25 642.5 c 2
 264.25 642.5 l 2
 270.25 642.5 275.25 628.5 276.25 623.5 c 1
 276.25 623.5 266.75 592.5 266.75 529.5 c 2
 266.75 132 l 2
 266.75 99 267.75 78.5 274.75 51.5 c 0
 277.75 40.5 328.75 29.5 336.75 29.5 c 0
 339.75 29.5 340.25 17 340.25 10 c 0
 340.25 5 339.75 -1.5 338.75 -3.5 c 1
 298.75 -1.5 252.75 3 212.75 3 c 0
 172.75 3 128.75 -1.5 88.75 -3.5 c 1
 83.75 1.5 83.75 29.5 88.75 29.5 c 0
 100.75 29.5 151.25 41.5 154.25 52.5 c 0
 159.25 72.5 160.25 90.5 160.25 109.5 c 2
 160.25 457.5 l 2
 160.25 509.5 152.25 515.5 143.25 515.5 c 0
 130.25 515.5 94.75 493 76.25 482.5 c 1
EndSplineSet
Substitution2: "'onum' Oldstyle Figures in Latin lookup 3-1" one.onum
EndChar

StartChar: two
Encoding: 50 50 18
Width: 465
Flags: W
HStem: 0 87<140.612 374.629> 565.5 76.5<145.919 246.14>
VStem: 281.75 113<380.125 529.252> 400 36.25<120.725 178.888>
LayerCount: 2
Fore
SplineSet
236.25 642 m 0
 332.25 642 394.75 566.5 394.75 474.5 c 0
 394.75 331 241.75 190 140.75 95 c 0
 137.75 92 139 87 143.75 87 c 2
 326 87 l 2
 375.5 87 387 124 400 170 c 0
 401.995 177.024 409.5 179 415.5 179 c 0
 421 179 431.5 177.5 436.25 174 c 1
 425.667 124.773 412.509 66.7324 402.75 15 c 0
 401.25 4.5 394 0 386.75 0 c 2
 386.75 0 43.25 0 39.75 0 c 1
 33 4 29 18.5 28.5 31.5 c 1
 149 159 281.75 343.5 281.75 455 c 0
 281.75 519 245.75 565.5 190.25 565.5 c 0
 114.25 565.5 79.75 502.5 69.75 488.5 c 1
 61.75 488.5 45.75 499.5 45.75 509 c 1
 57.75 540.5 117.25 642 236.25 642 c 0
EndSplineSet
Substitution2: "'onum' Oldstyle Figures in Latin lookup 3-1" two.onum
EndChar

StartChar: three
Encoding: 51 51 19
Width: 455
Flags: W
HStem: -4.5 46<139.041 266.913> 314 40.5<129.167 192.843> 577.5 64.5<151.04 268.5>
VStem: 267.5 96<443.436 553.556> 311.5 110.5<119.223 266.589>
LayerCount: 2
Fore
SplineSet
244.5 642 m 0xf0
 292.5 642 363.5 602.5 363.5 520.5 c 0xf0
 363.5 452.5 316.5 404.5 279.5 378.5 c 1
 326 369 422 312 422 210 c 0
 422 74.5 295.5 -4.5 167 -4.5 c 0
 104 -4.5 69.5 10.5 43.5 27.5 c 1
 39 33.5 35.5 47.5 35.5 56.5 c 0
 35.5 83 46 110 75 110 c 0
 98.5 110 114.5 87 132.5 69.5 c 0
 153.865 48.7187 178.806 41.5 205.5 41.5 c 0
 260 41.5 311.5 83 311.5 184 c 0xe8
 311.5 262 262 320 195.5 320 c 0
 182 320 164 319 135.5 314 c 1
 131.5 319 128.5 334 128.5 342 c 0
 128.5 346 129 350.5 131 354.5 c 1
 212.5 368 267.5 415 267.5 494.5 c 0
 267.5 547.5 229 577.5 193.5 577.5 c 0
 135 577.5 106 538.5 98 531 c 1
 90.5 531 80.5 548.5 80.5 557.5 c 1
 114.5 605 166.5 642 244.5 642 c 0xf0
EndSplineSet
Substitution2: "'onum' Oldstyle Figures in Latin lookup 3-1" three.onum
EndChar

StartChar: four
Encoding: 52 52 20
Width: 473
Flags: W
HStem: 174 64<103.252 283.25 384.75 449.81>
VStem: 283.25 101.5<-3.68097 174 238 480.496>
LayerCount: 2
Fore
SplineSet
369.25 644.5 m 0
 375.25 644.5 384.75 642.5 384.75 634.5 c 2
 384.75 238 l 25
 436.5 238 l 2
 447.5 238 451.5 219.5 451.5 184 c 0
 451.5 178 446 175 444.5 174 c 1
 431.5 174 384.75 174 384.75 174 c 25
 384.75 1.5 l 1
 384.75 1.5 371.25 -5.5 330.75 -5.5 c 0
 301.75 -5.5 283.25 -3 283.25 5 c 2
 283.25 174 l 25
 32.25 174 l 1
 25.25 182 21.25 196.5 21.25 213.5 c 1
 81.75 286 291.25 565.5 344.25 631.5 c 1
 350.75 639.5 361.25 644.5 369.25 644.5 c 0
283.25 238 m 25
 283.25 471.5 l 2
 283.25 474.5 281.25 480.5 279.25 480.5 c 1
 279.25 480.5 278.25 479.5 277.25 478.5 c 2
 104.25 250 l 2
 103.25 249 103.25 248 103.25 247 c 0
 103.25 243 106.25 238 110.25 238 c 10
 283.25 238 l 25
EndSplineSet
Substitution2: "'onum' Oldstyle Figures in Latin lookup 3-1" four.onum
EndChar

StartChar: five
Encoding: 53 53 21
Width: 451
Flags: HW
LayerCount: 2
Fore
SplineSet
118 630.5 m 1
 189 631.5 326.5 632 362.5 640 c 1
 366 635 369 627 369 612.5 c 0
 369 595.5 365.5 562 360.5 548 c 1
 271.946 539.473 178.5 541 158.5 538.898 c 0
 150.681 538.156 149.37 535.057 148.5 530.5 c 0
 138 476.5 129 421.5 124.5 395 c 1
 147 402 180.009 406.447 212 406.447 c 0
 314.5 406.447 417 323 417 220.5 c 0
 417 89.5 306 -4 165 -4 c 0
 102 -4 65.5 11 39.5 28 c 1
 35 34 31.5 48 31.5 57 c 0
 31.5 83.5 42 110.5 71 110.5 c 0
 94.5 110.5 110.5 87.5 128.5 70 c 0
 149.865 49.2187 176.806 42 203.5 42 c 0
 264.5 42 306.5 99 306.5 181.5 c 0
 306.5 258 264 325.5 177.5 325.5 c 1
 135.288 325.5 97.5 317 83.5 313 c 1
 79.5 315 71.5 320 66 327 c 1
 77 394.5 110.5 584.5 118 630.5 c 1
EndSplineSet
Substitution2: "'onum' Oldstyle Figures in Latin lookup 3-1" five.onum
EndChar

StartChar: six
Encoding: 54 54 22
Width: 457
Flags: W
HStem: -6 45.5<183.901 286.61> 322.5 51.5<167.835 279.3>
VStem: 28.25 110.5<108.761 297.746> 321.25 108.5<105.243 274.951>
LayerCount: 2
Fore
SplineSet
138.75 200 m 1
 138.75 110 174.25 39.5 235.25 39.5 c 0
 286.25 39.5 321.25 85.5 321.25 175.5 c 0
 321.25 260.5 290.75 322.5 213.75 322.5 c 0
 186.25 322.5 156.75 306 149.75 286 c 0
 143.75 267.5 139.75 250 138.75 200 c 1
228.75 -6 m 0
 119.75 -6 28.25 86 28.25 205 c 1
 28.25 425 218.75 577 389.75 646 c 1
 401.75 644.5 408.75 624 410.25 615.5 c 1
 297.25 566.5 196.25 483.5 161.25 364 c 0
 158.75 356 160.25 346.5 164.25 349.5 c 0
 177.75 358 218.25 374 251.25 374 c 0
 352.75 374 429.75 283 429.75 190.5 c 0
 429.75 84.5 334.75 -6 228.75 -6 c 0
EndSplineSet
Substitution2: "'onum' Oldstyle Figures in Latin lookup 3-1" six.onum
EndChar

StartChar: seven
Encoding: 55 55 23
Width: 462
Flags: HW
LayerCount: 2
Fore
SplineSet
132.25 544.5 m 2
 89.25 544.5 76.0049 497.265 64.25 461.5 c 0
 62.25 455.5 33.25 453 24.75 459 c 1
 35.75 506 55.25 585.5 62.25 623.5 c 0
 63.8697 631.484 70.75 635.5 79.75 635.5 c 2
 371.75 635.5 l 2
 397.75 635.5 432.75 638.5 438.75 638.5 c 0
 444.75 638.5 445.75 634.5 445.75 629.5 c 0
 445.75 616.5 432.898 592.73 417.75 562.5 c 2
 149.25 -6.5 l 1
 146.75 -8 143.75 -8.5 140.25 -8.5 c 0
 123.75 -8.5 104.75 8.5 104.75 22.5 c 9
 364.75 544.5 l 1
 322.25 544.5 132.25 544.5 132.25 544.5 c 2
EndSplineSet
Substitution2: "'onum' Oldstyle Figures in Latin lookup 3-1" seven.onum
EndChar

StartChar: eight
Encoding: 56 56 24
Width: 459
Flags: HW
LayerCount: 2
Fore
SplineSet
230.5 36.5 m 1
 285.5 36.5 320.5 78 320.5 136 c 1
 320.5 209.5 228 267.5 206 282.5 c 0
 202.5 285 198.5 286.5 196 286.5 c 0
 194.5 286.5 193 286.5 191.5 285.5 c 0
 154 262.5 138 213.5 138 158 c 1
 138 90.5 177.5 36.5 230.5 36.5 c 1
229 594 m 1
 184.5 594 157 555.5 157 493 c 1
 157 433 209 399 244 376 c 0
 246.442 374.418 250.5 373 253.5 373 c 0
 256 373 257.5 373.5 259.5 375 c 0
 292 400 309.5 437 309.5 484.5 c 1
 309.5 543 281.5 594 229 594 c 1
230.5 638 m 1
 322.5 638 410.5 585 410.5 490 c 1
 410.5 418 339 367 299.5 342.5 c 1
 296.5 341.5 297 337.5 299.5 336 c 0
 342 309.5 428 245 428 168.5 c 1
 428 64.5 329.5 -7.5 225.5 -7.5 c 1
 119.5 -7.5 31.5 48 31.5 156.5 c 1
 31.5 247.5 119.5 295.5 155 316.5 c 0
 157.5 318 157.5 321.5 154.5 323.5 c 0
 116 351 55 399 55 483 c 1
 55 569.5 140.5 638 230.5 638 c 1
EndSplineSet
Substitution2: "'onum' Oldstyle Figures in Latin lookup 3-1" eight.onum
EndChar

StartChar: nine
Encoding: 57 57 25
Width: 454
Flags: W
HStem: 267 50.5<179.005 289.557> 600.5 45.5<168.836 271.83>
VStem: 26.75 108.5<363.605 533.787> 316.75 110.5<341.642 531.239>
LayerCount: 2
Fore
SplineSet
316.75 440 m 1
 316.75 530 282.25 600.5 218.75 600.5 c 0
 167.75 600.5 135.25 552.5 135.25 462.5 c 0
 135.25 379.5 166.75 317.5 242.25 317.5 c 0
 269.75 317.5 299.25 334 306.25 354 c 0
 312.25 372.5 315.75 390 316.75 440 c 1
227.25 646 m 0
 336.25 646 427.25 554 427.25 435 c 1
 427.25 215 233.25 54.5 76.75 -6 c 1
 64.75 -4.5 56.75 19 56.75 25.5 c 1
 156.25 67 259.25 156.5 294.25 276 c 0
 296.75 284 295.25 293.5 291.25 290.5 c 0
 277.75 279.5 237.25 267 208.75 267 c 0
 106.75 267 26.75 351 26.75 449 c 0
 26.75 555 121.25 646 227.25 646 c 0
EndSplineSet
Substitution2: "'onum' Oldstyle Figures in Latin lookup 3-1" nine.onum
EndChar

StartChar: colon
Encoding: 58 58 26
Width: 190
Flags: W
HStem: -12 135<47.6156 144.975> 296 135<47.9785 144.612>
VStem: 29 134<6.20984 105.243 314.663 413.697>
LayerCount: 2
Fore
SplineSet
163 365 m 4
 163 329 134 296 97 296 c 5
 59 296 29 329 29 365 c 4
 29 401 60 431 97 431 c 5
 133 431 163 401 163 365 c 4
163 56 m 4
 163 20 134 -12 97 -12 c 5
 59 -12 29 20 29 56 c 4
 29 92 60 123 97 123 c 5
 133 123 163 92 163 56 c 4
EndSplineSet
Validated: 1
EndChar

StartChar: semicolon
Encoding: 59 59 27
Width: 215
Flags: W
HStem: 296 135<72.9785 169.612>
VStem: 60 122<12.5176 111.521 309.318 417.756> 90 92<-33.3372 90.6653>
LayerCount: 2
Fore
SplineSet
90 -16 m 4xa0
 90 17 60 34 60 69 c 4
 60 93 87 132 136 132 c 4
 144 132 158 132 168 126 c 5
 175 112 182 80 182 56 c 4xc0
 182 40 176 15 174 8 c 4
 153 -66 124 -106 46 -166 c 5
 45 -166 l 6
 39 -166 22 -147 22 -138 c 4
 22 -131 90 -93 90 -16 c 4xa0
188 365 m 0
 188 329 159 296 122 296 c 1
 84 296 54 329 54 365 c 0
 54 401 85 431 122 431 c 1
 158 431 188 401 188 365 c 0
EndSplineSet
Validated: 1
EndChar

StartChar: less
Encoding: 60 60 28
Width: 464
Flags: W
LayerCount: 2
Fore
SplineSet
439 40 m 0
 439 33 429 -15 423 -15 c 0
 422 -15 420 -14 418 -13 c 2
 43 177 l 2
 28 185 25 200 25 217 c 0
 25 228 33 236 43 241 c 2
 414 428 l 2
 416 429 418 430 419 430 c 0
 422 430 429 415 436 378 c 0
 437 372 433 369 433 369 c 1
 111 209 l 1
 436 46 l 1
 436 46 439 45 439 40 c 0
EndSplineSet
Validated: 1
EndChar

StartChar: equal
Encoding: 61 61 29
Width: 528
Flags: W
HStem: 113 64<40.0959 488.905> 255 64<35.7461 488.905>
LayerCount: 2
Fore
SplineSet
499 172 m 0
 499 163 495 141 489 119 c 0
 487 113 483 113 483 113 c 1
 38 113 l 1
 38 113 31 113 31 123 c 0
 31 127 33 148 40 172 c 0
 42 178 47 177 47 177 c 1
 491 177 l 2
 495 177 499 179 499 172 c 0
31 265 m 1
 31 265 36 319 46 319 c 2
 495 319 l 2
 497 319 499 318 499 314 c 0
 499 305 495 283 489 261 c 0
 487 255 483 255 483 255 c 1
 38 255 l 1
 38 255 31 255 31 265 c 1
EndSplineSet
Validated: 1
EndChar

StartChar: greater
Encoding: 62 62 30
Width: 466
Flags: W
LayerCount: 2
Fore
SplineSet
26 40 m 4
 26 45 29 46 29 46 c 5
 354 209 l 5
 32 369 l 5
 32 369 28 372 29 378 c 4
 36 415 43 430 46 430 c 4
 47 430 49 429 51 428 c 6
 422 241 l 6
 432 236 440 228 440 217 c 4
 440 200 437 185 422 177 c 6
 47 -13 l 6
 45 -14 43 -15 42 -15 c 4
 36 -15 26 33 26 40 c 4
EndSplineSet
Validated: 1
EndChar

StartChar: question
Encoding: 63 63 31
Width: 326
Flags: W
HStem: -12 135<42.6156 139.975> 551 93<53.8051 184.151>
VStem: 24 134<6.20984 105.243> 68 40<176.336 261.313> 236 67<434.449 532.421>
LayerCount: 2
Fore
SplineSet
76 644 m 31xd8
 190 644 303 574 303 460 c 7
 303 368 259 331 193 298 c 4
 159 281 119 264 113 242 c 4
 108 226 113 196 108 187 c 4
 103 179 93 176 82 176 c 7
 72 176 68 228 68 262 c 7
 68 332 83 348 125 376 c 4
 157 398 236 422 236 482 c 31
 236 521 204 551 165 551 c 31
 134 551 116 541 85 541 c 31
 54 541 25 563 25 594 c 31
 25 609 28 622 31 632 c 5
 44 638 58 644 76 644 c 31xd8
158 56 m 4xe8
 158 20 129 -12 92 -12 c 5
 54 -12 24 20 24 56 c 4
 24 92 55 123 92 123 c 5
 128 123 158 92 158 56 c 4xe8
EndSplineSet
Validated: 33
EndChar

StartChar: at
Encoding: 64 64 32
Width: 781
Flags: W
HStem: -171 45<301.393 492.424> -13 43<548.95 641.701> -7 60<303.036 381.715> 359 51<369.327 486> 524 53<293.282 528.992>
VStem: 27 67<77.0028 322.923> 196 94<63.6543 245.56> 456 83<36.3783 78.0483 129.585 250.752> 698 56<101.597 339.117>
LayerCount: 2
Fore
SplineSet
698 214 m 0xdf80
 698 381 592 524 421 524 c 0
 240 524 94 399 94 223 c 0
 94 26 193 -126 444 -126 c 0
 474 -126 508 -110 514 -108 c 1
 514 -108 516 -117 516 -118 c 0
 516 -141 475 -171 389 -171 c 0
 173 -171 27 23 27 185 c 0
 27 432 209 577 432 577 c 0
 632 577 754 391 754 233 c 0
 754 40 650 -13 572 -13 c 0xdf80
 502 -13 456 39 456 80 c 0
 456 82 452 79 451 78 c 0
 435 48 370 -7 310 -7 c 0xbf80
 235 -7 196 73 196 141 c 0
 196 274 298 410 476 410 c 1
 496 410 571 401 571 401 c 1
 567 375 565 358 564 348 c 1
 560 308 541 134 541 134 c 2
 540 124 539 114 539 106 c 0
 538 44 559 30 582 30 c 0
 682 30 698 160 698 214 c 0xdf80
472 334 m 0
 472 347 469 359 430 359 c 0
 364 359 290 284 290 143 c 0
 290 73 313 53 338 53 c 0xbf80
 392 53 454 153 456 176 c 2
 470 322 l 1
 470 322 472 328 472 334 c 0
EndSplineSet
Validated: 33
EndChar

StartChar: A
Encoding: 65 65 33
Width: 736
Flags: W
HStem: -3 33<27.0015 86.0263 195.675 259.316 444.308 501.892 647.491 704.979> 231 54<269 427> 645 20G<365.5 381>
LayerCount: 2
Fore
SplineSet
391 660 m 5
 601 136 l 6
 615 99 622 83 631 63 c 4
 641 39 693 30 701 30 c 4
 704 30 705 18 705 12 c 4
 705 7 705 0 703 -3 c 5
 663 -1 621 3 577 3 c 4
 531 3 488 -1 447 -3 c 5
 442 2 442 30 447 30 c 4
 459 30 499 38 505 50 c 4
 507 54 508 57 508 63 c 4
 508 83 494 119 489 132 c 5
 483 146 454 225 454 225 c 5
 454 225 450 229 447 229 c 4
 415 231 386 231 361 231 c 4
 320 231 287 230 247 228 c 4
 245 228 241 225 241 224 c 5
 241 224 209 145 203 131 c 5
 192 101 184 80 184 66 c 4
 184 53 190 49 195 46 c 4
 209 37 249 30 257 30 c 4
 262 30 260 3 258 -3 c 5
 218 -1 187 3 143 3 c 4
 97 3 77 -1 31 -3 c 5
 29 -1 27 6 27 12 c 4
 27 18 27 30 29 30 c 4
 41 30 91 42 101 58 c 4
 119 86 132 118 139 136 c 6
 325 586 l 5
 337 618 352 665 379 665 c 4
 383 665 389 662 391 660 c 5
271 288 m 4
 294 286 320 285 343 285 c 4
 374 285 394 286 425 288 c 4
 427 288 427 292 427 292 c 5
 351 492 l 5
 269 292 l 5
 269 292 269 288 271 288 c 4
EndSplineSet
Validated: 33
Substitution2: "'c2sc' Capitals to Small Capitals in Latin lookup 0 subtable" a.sc
EndChar

StartChar: B
Encoding: 66 66 34
Width: 586
Flags: W
HStem: -3 33<27.0058 91.3433> 0 50<229.492 378.68> 323 49<225.937 369.007> 611 48<227.665 360.888> 628 33<25.0357 89.8962>
VStem: 104 113<60.3939 317.899 373.986 605.949> 406 121<418.494 565.835> 437 122<103.868 263.388>
LayerCount: 2
Fore
SplineSet
437 176 m 0x65
 437 251 401 323 287 323 c 0
 264 323 245 321 225 318 c 1
 222 316 217 304 217 298 c 2
 217 112 l 2
 217 102 219 68 229 60 c 0
 239 52 281 50 293 50 c 0
 339 50 437 64 437 176 c 0x65
104 143 m 2
 104 521 l 2
 104 539 104 581 97 603 c 0
 92 620 41 628 29 628 c 0
 27 628 25 636 25 643 c 0
 25 650 27 659 29 661 c 1xad
 29 661 95 658 162 658 c 0
 255 658 249 659 308 659 c 0
 396 659 527 617 527 488 c 0x36
 527 408 451 366 435 360 c 0
 427 357 430 354 431 354 c 0
 467 348 559 289 559 187 c 0
 559 72 457 -1 305 0 c 2x75
 163 1 l 2
 96 1 30 -3 30 -3 c 1
 29 -2 27 4 27 13 c 0
 27 19 28 30 30 30 c 0xa5
 42 30 91 39 97 52 c 1
 103 70 104 106 104 143 c 2
333 378 m 0
 369 386 406 410 406 476 c 0
 406 568 363 611 291 611 c 0x36
 267 611 241 610 227 606 c 0
 223 605 219 599 219 595 c 0
 218 568 217 499 217 499 c 1
 217 382 l 2
 217 376 242 372 277 372 c 0
 295 372 320 374 333 378 c 0
EndSplineSet
Validated: 33
Substitution2: "'c2sc' Capitals to Small Capitals in Latin lookup 0 subtable" b.sc
EndChar

StartChar: C
Encoding: 67 67 35
Width: 639
Flags: W
HStem: -6 48<291.229 481.331> 618 49<271.008 466.424>
VStem: 25 126<210.681 446.038> 561 38<479.366 526.339>
LayerCount: 2
Fore
SplineSet
613 182 m 1
 613 171 587 42 575 36 c 0
 515 7 435 -6 343 -6 c 0
 166 -6 25 145 25 322 c 0
 25 509 166 667 354 667 c 0
 420 667 517 656 590 640 c 1
 594 639 599 504 599 494 c 0
 599 484 586 479 575 479 c 1
 569 479 565 481 561 483 c 1
 553 518 512 618 358 618 c 0
 220 618 151 483 151 343 c 0
 151 187 228 42 386 42 c 0
 450 42 499 68 527 98 c 0
 558 130 568 191 574 191 c 3
 584 191 610 189 613 182 c 1
EndSplineSet
Validated: 1
Substitution2: "'c2sc' Capitals to Small Capitals in Latin lookup 0 subtable" c.sc
EndChar

StartChar: D
Encoding: 68 68 36
Width: 708
Flags: W
HStem: -3 51<228.713 440.437> -3 33<27.0058 91.3433> 608 50<226.283 434.789> 628 33<25.0357 89.8962>
VStem: 104 113<64.7588 597.499> 553 128<212.568 452.819>
LayerCount: 2
Fore
SplineSet
162 658 m 0x2c
 229 658 291 658 335 658 c 0
 566 658 681 496 681 336 c 0
 681 152 558 -3 334 -3 c 0xac
 290 -3 215 1 163 1 c 0
 111 1 30 -3 30 -3 c 1
 29 -2 27 4 27 13 c 0
 27 19 28 30 30 30 c 0
 42 30 91 39 97 52 c 1
 103 70 104 106 104 143 c 2
 104 521 l 2
 104 539 104 581 97 603 c 0
 92 620 41 628 29 628 c 0
 27 628 25 636 25 643 c 0
 25 650 27 659 29 661 c 1x5c
 29 661 95 658 162 658 c 0x2c
217 530 m 2
 217 138 l 2
 217 108 218 80 228 64 c 0
 242 50 334 48 350 48 c 0
 482 48 553 145 553 340 c 0
 553 478 485 608 343 608 c 2
 338 608 l 2
 314 608 241 607 230 592 c 0
 219 577 217 548 217 530 c 2
EndSplineSet
Validated: 1
Substitution2: "'c2sc' Capitals to Small Capitals in Latin lookup 0 subtable" d.sc
EndChar

StartChar: E
Encoding: 69 69 37
Width: 584
Flags: W
HStem: -3 33<27.0058 91.3433> 1 48<223.604 451.818> 306 50<217 380.461> 613 44<221.594 427.962> 628 33<25.0357 89.8962>
VStem: 104 113<53.7397 305.098 356.476 609.641> 409 35<230.036 288.968 364.524 427.963> 517 42<123 171.577>
LayerCount: 2
Fore
SplineSet
162 657 m 0x37
 255 657 376 664 485 664 c 1
 492 614 505 567 514 522 c 1
 511 519 500 517 493 517 c 0
 486 517 481 519 479 524 c 0
 455 589 404 613 351 613 c 2
 299 613 l 2
 258 613 225 612 223 600 c 0
 219 581 217 542 217 519 c 2
 217 362 l 2
 217 357 239 356 261 356 c 2
 313 356 l 2
 409 356 392 355 409 421 c 0
 410 426 418 428 425 428 c 0
 432 428 441 426 444 423 c 1
 444 234 l 1
 442 232 432 230 425 230 c 0
 418 230 411 233 409 238 c 0
 394 295 390 292 381 298 c 0
 370 305 327 306 289 306 c 0
 261 306 217 307 217 298 c 2
 217 143 l 2
 217 124 219 82 226 62 c 0
 230 52 252 49 294 49 c 2
 331 49 l 6x77
 369 49 421 55 450 70 c 4
 469 80 501 117 517 166 c 4
 518 170 524 172 531 172 c 4
 541 172 556 169 559 166 c 5
 540 112 512 41 505 -3 c 5xa7
 396 -3 253 4 163 1 c 2x67
 96 2 30 -3 30 -3 c 1
 29 -2 27 4 27 13 c 0
 27 19 28 30 30 30 c 0
 42 30 91 39 97 52 c 1
 103 70 104 106 104 143 c 2
 104 521 l 2
 104 539 104 581 97 603 c 0
 92 620 41 628 29 628 c 0
 27 628 25 636 25 643 c 0
 25 650 27 659 29 661 c 1xaf
 29 661 95 657 162 657 c 0x37
EndSplineSet
Validated: 33
Substitution2: "'c2sc' Capitals to Small Capitals in Latin lookup 0 subtable" e.sc
EndChar

StartChar: F
Encoding: 70 70 38
Width: 538
Flags: W
HStem: -3 33<27.0058 91.3433 243.096 311.993> 306 50<217 379.461> 613 44<220.637 426.962> 628 33<25.0357 89.8962>
VStem: 104 113<48.4533 305.197 356.476 609.641> 408 35<230.036 288.968 364.524 427.963>
LayerCount: 2
Fore
SplineSet
167 3 m 0xec
 100 4 30 -3 30 -3 c 1
 29 -2 27 4 27 13 c 0
 27 19 28 30 30 30 c 0
 42 30 91 39 97 52 c 1
 103 70 104 106 104 143 c 2
 104 521 l 2
 104 539 104 581 97 603 c 0
 92 620 41 628 29 628 c 0
 27 628 25 636 25 643 c 0
 25 650 27 659 29 661 c 1xdc
 29 661 94 657 161 657 c 0
 253 656 375 664 484 664 c 1
 491 614 504 567 513 522 c 1
 510 519 499 517 492 517 c 0
 485 517 480 519 478 524 c 0
 454 589 403 613 350 613 c 2
 298 613 l 2
 257 613 224 612 222 600 c 0
 218 581 217 542 217 519 c 2
 217 362 l 2
 217 357 239 356 261 356 c 2
 312 356 l 2
 408 356 391 355 408 421 c 0
 409 426 417 428 424 428 c 0
 431 428 440 426 443 423 c 1
 443 234 l 1
 441 232 431 230 424 230 c 0
 417 230 410 233 408 238 c 0
 393 295 389 292 380 298 c 0
 369 305 326 306 288 306 c 0
 260 306 217 307 217 298 c 2
 217 141 l 2
 217 105 218 84 228 58 c 0
 234 42 299 30 307 30 c 0
 310 30 312 19 312 13 c 0
 312 8 311 0 309 -3 c 1
 269 -1 211 3 167 3 c 0xec
EndSplineSet
Validated: 33
Substitution2: "'c2sc' Capitals to Small Capitals in Latin lookup 0 subtable" f.sc
EndChar

StartChar: G
Encoding: 71 71 39
Width: 702
Flags: W
HStem: -8 50<293.928 483.155> 269 33<409.308 477.109 617.194 675.993> 618 49<269.99 465.533>
VStem: 25 125<217.116 441.285> 491 112<68.4659 255.705> 492 122<61.2842 177.325> 558 42<474.019 529.557>
LayerCount: 2
Fore
SplineSet
25 322 m 0xf4
 25 509 170 667 354 667 c 0
 420 667 512 649 586 630 c 1
 590 629 600 496 600 486 c 0
 600 476 589 474 580 474 c 1
 571 474 562 477 558 480 c 1xf2
 550 515 516 618 358 618 c 0
 224 618 150 497 150 340 c 0
 150 202 230 42 386 42 c 0
 422 42 458 47 482 61 c 0
 490 67 492 77 492 84 c 0xf4
 492 111 491 156 491 156 c 1
 491 163 l 2
 491 180 491 223 484 244 c 0
 478 264 424 269 412 269 c 0
 407 269 407 297 412 302 c 1
 463 300 501 296 552 296 c 0
 594 296 633 300 673 302 c 1
 674 299 676 291 676 285 c 0
 676 278 675 268 672 268 c 0
 664 268 628 258 616 252 c 0
 606 246 603 227 603 179 c 0xf8
 603 143 604 124 604 114 c 0
 604 84 614 78 614 68 c 0
 614 62 610 52 592 44 c 0
 540 21 483 -8 342 -8 c 0
 165 -8 25 145 25 322 c 0xf4
EndSplineSet
Validated: 33
Substitution2: "'c2sc' Capitals to Small Capitals in Latin lookup 0 subtable" g.sc
EndChar

StartChar: H
Encoding: 72 72 40
Width: 708
Flags: W
HStem: -3 33<26.0898 89.9337 231.339 291.943 411.09 474.934 616.339 676.989> 314 55<217.099 489> 629 33<28.0016 88.894 232.328 293.994 413.002 473.894 617.328 678.994>
VStem: 104 113<42.5276 313.371 369.001 615.665> 489 113<42.5276 311.999 369.001 615.665>
LayerCount: 2
Fore
SplineSet
673 30 m 0
 677 30 677 17 677 11 c 0
 677 6 676 0 675 -3 c 1
 635 -1 592 3 548 3 c 0
 502 3 461 -1 415 -3 c 1
 413 -1 411 5 411 11 c 0
 411 17 413 30 415 30 c 0
 427 30 476 40 481 52 c 1
 487 75 489 118 489 136 c 2
 489 308 l 2
 489 310 487 312 487 312 c 1
 440 313 406 314 355 314 c 0
 201 314 217 313 217 309 c 2
 217 142 l 2
 217 106 219 79 226 52 c 0
 229 41 280 30 288 30 c 0
 291 30 292 17 292 11 c 0
 292 6 291 0 290 -3 c 1
 250 -1 207 3 163 3 c 0
 117 3 76 -1 30 -3 c 1
 28 -1 26 5 26 11 c 0
 26 17 28 30 30 30 c 0
 42 30 91 40 96 52 c 1
 102 75 104 118 104 136 c 2
 104 522 l 2
 104 540 102 588 96 606 c 1
 90 618 44 629 32 629 c 0
 30 629 28 638 28 644 c 0
 28 650 28 660 30 662 c 1
 76 660 117 656 163 656 c 0
 207 656 251 660 291 662 c 1
 292 659 294 651 294 646 c 0
 294 640 293 629 290 629 c 0
 282 629 228 617 225 606 c 0
 218 579 217 536 217 518 c 2
 217 372 l 2
 217 371 219 369 219 369 c 1
 268 368 299 367 355 367 c 0
 402 367 442 368 487 369 c 1
 487 369 489 371 489 373 c 2
 489 522 l 2
 489 540 487 588 481 606 c 1
 475 618 429 629 417 629 c 0
 415 629 413 638 413 644 c 0
 413 650 413 660 415 662 c 1
 461 660 502 656 548 656 c 0
 592 656 636 660 676 662 c 1
 677 659 679 651 679 646 c 0
 679 640 678 629 675 629 c 0
 667 629 613 617 610 606 c 0
 603 579 602 534 602 518 c 2
 602 142 l 2
 602 106 604 79 611 52 c 0
 614 41 665 30 673 30 c 0
EndSplineSet
Validated: 33
Substitution2: "'c2sc' Capitals to Small Capitals in Latin lookup 0 subtable" h.sc
EndChar

StartChar: I
Encoding: 73 73 41
Width: 323
Flags: W
HStem: -3 33<26.0898 89.9337 231.339 291.943> 629 33<28.0016 88.894 232.328 293.994>
VStem: 104 113<42.5276 615.665>
LayerCount: 2
Fore
SplineSet
104 522 m 2
 104 540 102 588 96 606 c 1
 90 618 44 629 32 629 c 0
 30 629 28 638 28 644 c 0
 28 650 28 660 30 662 c 1
 76 660 117 656 163 656 c 0
 207 656 251 660 291 662 c 1
 292 659 294 651 294 646 c 0
 294 640 293 629 290 629 c 0
 282 629 228 617 225 606 c 0
 218 579 217 536 217 518 c 2
 217 142 l 6
 217 106 219 79 226 52 c 4
 229 41 280 30 288 30 c 4
 291 30 292 17 292 11 c 4
 292 6 291 0 290 -3 c 5
 250 -1 207 3 163 3 c 4
 117 3 76 -1 30 -3 c 5
 28 -1 26 5 26 11 c 4
 26 17 28 30 30 30 c 4
 42 30 91 40 96 52 c 5
 102 75 104 118 104 136 c 6
 104 522 l 2
EndSplineSet
Validated: 1
Substitution2: "'c2sc' Capitals to Small Capitals in Latin lookup 0 subtable" i.sc
EndChar

StartChar: J
Encoding: 74 74 42
Width: 466
Flags: W
HStem: -222 64<79.5 197.257> 629 33<171.002 238.398 379.221 439.994>
VStem: 250 114<-25.7212 615.721>
LayerCount: 2
Fore
SplineSet
364 518 m 2
 364 114 l 2
 364 -81 257 -222 91 -222 c 3
 68 -222 40 -210 36 -206 c 1
 30 -198 23 -179 23 -161 c 3
 23 -129 54 -106 86 -106 c 1
 126 -106 140 -158 170 -158 c 1
 218 -158 250 -66 250 106 c 2
 250 524 l 2
 250 542 250 580 243 606 c 0
 238 624 187 629 175 629 c 0
 173 629 171 638 171 644 c 0
 171 650 171 660 173 662 c 1
 219 660 264 656 310 656 c 0
 354 656 397 660 437 662 c 1
 438 659 440 651 440 646 c 0
 440 640 439 629 436 629 c 0
 428 629 375 617 372 606 c 0
 365 579 364 536 364 518 c 2
EndSplineSet
Validated: 1
Substitution2: "'c2sc' Capitals to Small Capitals in Latin lookup 0 subtable" j.sc
EndChar

StartChar: K
Encoding: 75 75 43
Width: 722
Flags: W
HStem: -3 33<26.0898 89.9337 231.339 291.943 409.308 454.276 627.174 690.908> 300 50<217 254.761> 632 30<28.013 79.7881 242.233 293.965 412.688 474.128 581.642 646.703>
VStem: 104 113<42.5276 299.999 350.001 615.665>
LayerCount: 2
Fore
SplineSet
217 518 m 2
 217 357 l 2
 217 351 223 350 223 350 c 1
 231 350 l 2
 241 350 259 358 283 384 c 0
 361 468 389 501 459 584 c 0
 464 590 475 604 475 614 c 0
 475 629 425 632 416 632 c 0
 411 632 409 653 412 662 c 1
 449 660 496 656 533 656 c 0
 577 656 606 660 646 662 c 1
 648 656 649 632 644 632 c 0
 635 631 577 628 543 590 c 2
 357 378 l 2
 348 368 353 357 359 350 c 2
 593 72 l 2
 621 38 678 30 686 30 c 0
 689 30 691 18 691 11 c 0
 691 6 689 -1 688 -3 c 1
 648 -1 592 3 551 3 c 0
 495 3 468 -1 412 -3 c 1
 407 2 407 30 412 30 c 0
 423 30 457 40 457 52 c 0
 457 62 358 188 255 296 c 0
 250 301 239 300 233 300 c 0
 229 300 217 299 217 288 c 2
 217 140 l 2
 217 104 219 79 226 52 c 0
 229 41 280 30 288 30 c 0
 291 30 292 17 292 11 c 0
 292 6 291 0 290 -3 c 1
 250 -1 207 3 163 3 c 0
 117 3 76 -1 30 -3 c 1
 28 -1 26 5 26 11 c 0
 26 17 28 30 30 30 c 0
 42 30 91 40 96 52 c 1
 102 75 104 118 104 136 c 2
 104 522 l 2
 104 540 102 588 96 606 c 1
 90 618 44 629 32 629 c 0
 30 629 28 638 28 644 c 0
 28 650 28 660 30 662 c 1
 76 660 117 656 163 656 c 0
 207 656 251 660 291 662 c 1
 292 659 294 651 294 646 c 0
 294 640 293 629 290 629 c 0
 282 629 228 617 225 606 c 0
 218 579 217 536 217 518 c 2
EndSplineSet
Validated: 33
Substitution2: "'c2sc' Capitals to Small Capitals in Latin lookup 0 subtable" k.sc
EndChar

StartChar: L
Encoding: 76 76 44
Width: 584
Flags: W
HStem: -3 33<27.0058 91.3433> 1 48<223.604 451.818> 629 33<28.0016 88.894 232.328 293.994>
VStem: 104 113<53.7397 615.665> 517 42<123 171.577>
LayerCount: 2
Fore
SplineSet
217 518 m 2xb8
 217 142 l 2
 217 113 219 86 226 62 c 0
 230 52 252 49 294 49 c 2
 331 49 l 2x78
 369 49 421 55 450 70 c 0
 469 80 501 117 517 166 c 0
 518 170 524 172 531 172 c 0
 541 172 556 169 559 166 c 1
 540 112 512 41 505 -3 c 1xb8
 396 -3 253 4 163 1 c 2x78
 96 2 30 -3 30 -3 c 1
 29 -2 27 4 27 13 c 0
 27 19 28 30 30 30 c 0
 42 30 91 39 97 52 c 1
 103 70 104 106 104 143 c 2
 104 521 l 2
 104 539 102 588 96 606 c 1
 90 618 44 629 32 629 c 0
 30 629 28 638 28 644 c 0
 28 650 28 660 30 662 c 1
 76 660 117 656 163 656 c 0
 207 656 251 660 291 662 c 1
 292 659 294 651 294 646 c 0
 294 640 293 629 290 629 c 0
 282 629 228 617 225 606 c 0
 218 579 217 536 217 518 c 2xb8
EndSplineSet
Validated: 33
Substitution2: "'c2sc' Capitals to Small Capitals in Latin lookup 0 subtable" l.sc
EndChar

StartChar: M
Encoding: 77 77 45
Width: 913
Flags: W
HStem: -3 33<26.0058 95.5908 214.669 283.981 622.036 680.27 826.168 883.974> 629 28<60.2308 130.901 804.489 855.982> 642 20G<260.5 286>
VStem: 130 60<53.2929 319.298> 144 62<349.24 538> 686 102<289.887 507.967> 696 106<51.4709 359.907>
LayerCount: 2
Fore
SplineSet
178 656 m 0xa8
 212 656 245 660 276 662 c 1xa8
 296 598 399 372 470 196 c 1
 470 195 472 194 473 194 c 0
 474 194 476 195 476 197 c 2
 476 197 564 408 616 544 c 24
 633 588 652 660 652 660 c 1
 672 658 715 657 734 657 c 0xc8
 768 657 821 660 853 662 c 1xa8
 855 659 856 651 856 646 c 0
 856 640 856 629 852 629 c 2
 850 629 l 2
 839 629 812 621 801 613 c 0
 792 606 787 585 788 559 c 0xcc
 790 514 798 275 802 146 c 0xc2
 803 107 808 80 818 54 c 0
 824 40 872 30 880 30 c 0
 883 30 884 18 884 12 c 0
 884 7 883 0 882 -3 c 1
 842 -1 803 3 759 3 c 0
 713 3 672 -1 626 -3 c 1
 624 -1 622 6 622 12 c 0
 622 18 624 30 626 30 c 0
 638 30 676 40 686 51 c 0xc4
 694 61 696 74 696 86 c 0
 696 98 697 126 696 142 c 2xc2
 686 446 l 2
 685 463 681 508 674 508 c 0
 672 508 671 507 669 502 c 2
 478 36 l 2
 474 27 458 -2 440 -2 c 0
 437 -2 433 -1 430 0 c 1
 206 538 l 1xcc
 200 326 194 180 190 92 c 0
 190 83 191 67 193 61 c 0
 200 44 272 30 280 30 c 0
 283 30 284 19 284 12 c 0
 284 6 283 0 282 -3 c 1
 242 -1 200 3 156 3 c 0
 110 3 76 -1 30 -3 c 1
 28 -1 26 7 26 13 c 0
 26 19 28 30 30 30 c 0
 42 30 111 42 119 66 c 0
 128 84 129 107 130 133 c 0xd0
 135 311 143 535 144 580 c 0
 144 590 144 599 141 608 c 1
 136 620 76 630 64 630 c 0
 62 630 60 641 60 647 c 0
 60 653 62 660 64 662 c 1
 110 660 132 656 178 656 c 0xa8
EndSplineSet
Validated: 33
Substitution2: "'c2sc' Capitals to Small Capitals in Latin lookup 0 subtable" m.sc
EndChar

StartChar: N
Encoding: 78 78 46
Width: 753
Flags: W
HStem: -3 33<27.0058 97.353 206.195 275.917> 629 33<29.5454 107.375 479.631 551.128 656.643 726.997>
VStem: 123 60<48.6907 545.109> 571 60<210.564 600.057>
LayerCount: 2
Fore
SplineSet
571 523 m 2
 571 540 570 579 561 603 c 0
 554 622 495 629 483 629 c 0
 478 629 477 657 481 662 c 1
 527 659 561 655 607 655 c 0
 651 655 685 660 725 662 c 1
 727 658 727 651 727 646 c 0
 727 640 726 629 723 629 c 0
 715 629 656 622 642 601 c 0
 634 581 631 554 631 518 c 2
 631 139 l 2
 631 81 633 51 635 -1 c 1
 632 -4 616 -5 613 -5 c 0
 604 -5 591 4 581 18 c 2
 183 546 l 1
 183 141 l 2
 183 105 183 81 191 59 c 0
 199 40 265 30 273 30 c 0
 278 30 277 3 275 -3 c 1
 235 -1 194 3 150 3 c 0
 104 3 77 -1 31 -3 c 1
 29 -1 27 8 27 14 c 0
 27 20 29 30 31 30 c 0
 43 30 100 37 113 60 c 0
 123 81 123 106 123 144 c 0
 123 275 123 405 123 536 c 0
 123 564 123 590 112 609 c 0
 106 620 45 628 33 628 c 0
 28 628 27 657 32 662 c 1
 74 660 105 657 151 657 c 0
 183 657 218 660 241 662 c 1
 283 582 451 370 569 210 c 1
 571 222 571 236 571 251 c 2
 571 523 l 2
EndSplineSet
Validated: 33
Substitution2: "'c2sc' Capitals to Small Capitals in Latin lookup 0 subtable" n.sc
EndChar

StartChar: O
Encoding: 79 79 47
Width: 693
Flags: W
HStem: -10 50<278.867 434.023> 618 49<256.174 412.517>
VStem: 25 128<210.608 450.308> 539 127<204.027 451.586>
LayerCount: 2
Fore
SplineSet
330 618 m 4
 207 618 153 484 153 350 c 4
 153 210 215 40 361 40 c 4
 482 40 539 174 539 309 c 4
 539 453 480 618 330 618 c 4
25 328 m 4
 25 515 169 667 345 667 c 4
 521 667 666 515 666 328 c 4
 666 141 521 -10 345 -10 c 4
 169 -10 25 141 25 328 c 4
EndSplineSet
Validated: 1
Substitution2: "'c2sc' Capitals to Small Capitals in Latin lookup 0 subtable" o.sc
EndChar

StartChar: P
Encoding: 80 80 48
Width: 546
Flags: W
HStem: -3.5 34<27.0072 93.7256 234.287 307.816> 278.5 47.5<241.198 352.448> 610.5 50.5<222.23 353.264> 628 33<26.027 86.9531>
VStem: 104.5 113.5<44.1566 606.376> 397.5 122<392.224 564.334>
LayerCount: 2
Fore
SplineSet
163 657.5 m 1xdc
 221.5 657.5 238.5 661 297.5 661 c 0
 392.5 661 519.5 615 519.5 478 c 0
 519.5 387.5 440.5 278.5 310.5 278.5 c 0
 281 278.5 248.953 289.966 239 303.5 c 0
 235 309 232.5 336.5 238.5 335.5 c 1
 258.5 327 273 326 294.5 326 c 0
 359.5 326 397.5 388 397.5 465 c 0
 397.5 549 367 610.5 288 610.5 c 0xec
 264 610.5 241.883 608.662 230 603 c 0
 222 599 218 584 218 499 c 2
 218 141.5 l 2
 218 114.5 218.5 80.5 225.5 57 c 0
 231.5 37.5 296 29.5 304 29.5 c 0
 306.862 29.5 307.819 19.5904 307.819 13 c 1
 307.819 7.49651 306.956 -0.633515 306 -3.5 c 1
 266 -1.5 224 2 164.5 2 c 0
 102.5 2 30.5 -3.5 30.5 -3.5 c 1
 29.5 -2.5 27 5 27 14 c 0
 27 20 28.5 30.5 30.5 30.5 c 0
 42.5 30.5 91.5 39 98 52 c 1
 104.5 69.5 104.5 106 104.5 143 c 2
 104.5 521 l 2
 104.5 539 104 580 98 603 c 1
 93 615 42 628 30 628 c 0
 28 628 26 636 26 643 c 0
 26 650 27.5 659 29.5 661 c 1
 29.5 661 134.5 657.5 163 657.5 c 1xdc
EndSplineSet
Substitution2: "'c2sc' Capitals to Small Capitals in Latin lookup 0 subtable" p.sc
EndChar

StartChar: Q
Encoding: 81 81 49
Width: 744
Flags: HW
LayerCount: 2
Fore
SplineSet
328.5 614 m 0
 205.5 614 149 484 149 350 c 0
 149 210.5 213 42 359.5 42 c 0
 480.5 42 539 174 539 309 c 0
 539 453.5 478.5 614 328.5 614 c 0
667 -79 m 0
 707 -79 732 -70 739 -70 c 0
 747 -70 751 -80 751 -90 c 2
 751 -95 l 1
 696 -124 629.5 -139.5 568.5 -139.5 c 0
 458.5 -139.5 365.5 -33 257.5 0 c 0
 169.5 27 24.5 141 24.5 328 c 0
 24.5 515 167.5 667 343.5 667 c 0
 519.5 667 663.5 515 663.5 328 c 0
 663.5 141 526.5 22 439.5 5 c 1
 536.5 -41 563 -79 667 -79 c 0
EndSplineSet
Substitution2: "'c2sc' Capitals to Small Capitals in Latin lookup 0 subtable" q.sc
EndChar

StartChar: R
Encoding: 82 82 50
Width: 685
Flags: HW
LayerCount: 2
Fore
SplineSet
288 610.5 m 0
 264 610.5 241.883 608.662 230 603 c 0
 222 599 219 584 218 499 c 2
 218 384.5 l 2
 218 350.5 251.5 348.5 282.5 348.5 c 2
 308.5 348.5 l 2
 354 348.5 404.5 395.562 404.5 474.5 c 0
 404.5 569.5 360.5 610.5 288 610.5 c 0
303.5 660 m 0
 385.5 660 526.5 617.5 526.5 484.5 c 0
 526.5 409 469.5 340 406.5 314 c 0
 401.5 312 398.695 309.121 402 303.5 c 0
 431.5 250.5 460 200.5 514 133.5 c 0
 553.867 84.9151 614 30 664 30 c 1
 666.5 26 667.5 19 667.5 14 c 0
 667.5 8.5 667 3 664 -3.5 c 1
 657 -5 639.5 -6 633 -6 c 0
 489.5 -6 427 67.5 375.5 143 c 0
 317.344 227.916 285.091 286.137 258.5 297 c 0
 253 299 243.5 299.5 234.5 299.5 c 0
 225 299.5 218 297 218 283 c 2
 218 141.5 l 1
 218 114.5 218.5 80.5 225.5 57 c 0
 231.5 37.5 296 29.5 304 29.5 c 0
 306.862 29.5 307.819 19.5904 307.819 13 c 1
 307.819 7.49651 306.956 -0.633515 306 -3.5 c 1
 266 -1.5 224 2 164.5 2 c 0
 102.5 2 30.5 -3.5 30.5 -3.5 c 1
 29.5 -2.5 27 5 27 14 c 0
 27 20 28.5 30.5 30.5 30.5 c 0
 42.5 30.5 91.5 39 98 52 c 1
 104.5 69.5 104.5 106 104.5 143 c 2
 104.5 521 l 2
 104.5 539 104 580 98 603 c 1
 93 615 42 628 30 628 c 0
 28 628 26 636 26 643 c 0
 26 650 27.5 659 29.5 661 c 1
 29.5 661 135.5 657.5 163 657.5 c 1
 220 657.5 244.5 660 303.5 660 c 0
EndSplineSet
Substitution2: "'c2sc' Capitals to Small Capitals in Latin lookup 0 subtable" r.sc
EndChar

StartChar: S
Encoding: 83 83 51
Width: 474
Flags: W
HStem: -10 49<149.678 295.526> 619.5 48.5<173.038 306.019>
VStem: 25.5 45.5<123.181 187.815> 38.5 106.5<462.393 569.322> 335 113<93.5696 209.927> 373 41<477.104 542.387>
LayerCount: 2
Fore
SplineSet
38.5 489.5 m 0xd8
 38.5 594 141.5 668 243 668 c 0
 303.5 668 338 654 402.5 640 c 1
 411.5 587 414 530 414 485.5 c 1
 412.5 478.5 405 477 401.5 477 c 0
 394 477 375 476.5 373 485.5 c 0
 366 538.5 318 619.5 240 619.5 c 0
 176.5 619.5 145 581 145 523.5 c 0xd4
 145 452.5 221.5 413.5 287.5 371.5 c 0
 354 329 448 290 448 174 c 0
 448 64 343 -10 234.5 -10 c 0
 171 -10 104 5.5 49.5 17.5 c 1
 37.5 69.5 25.5 160 25.5 180 c 1
 26.5 185.5 36.5 188 42.5 188 c 0
 53 188 69 186.5 71 180.5 c 1xe8
 79 138.5 122.5 39 225.5 39 c 0
 284.5 39 335 72 335 151 c 0
 335 222.5 258 255.5 198.5 292.5 c 0
 123.5 339.5 38.5 387 38.5 489.5 c 0xd8
EndSplineSet
Substitution2: "'c2sc' Capitals to Small Capitals in Latin lookup 0 subtable" s.sc
EndChar

StartChar: T
Encoding: 84 84 52
Width: 664
Flags: W
HStem: -3.5 33<196.517 260.395 401.742 462.497> 611 50.5<95.3228 267.365 394.086 567.677>
VStem: 24 36.5<513.338 565.589> 273.5 113.5<42.4312 604.216> 602.5 36.5<512.838 565.176>
LayerCount: 2
Fore
SplineSet
331 656.5 m 0
 411 656.5 462 660.5 551 661.5 c 0
 565 661.5 604 668.5 620 672.5 c 1
 639 519 l 1
 636 516 621.5 512 612.5 512 c 0
 607.5 512 603.5 513 602.5 517 c 0
 583.5 591 557 611 493 611 c 0
 414 611 397.5 602.5 395.5 594.5 c 0
 387.5 566.5 387 538 387 500 c 2
 387 139 l 2
 387 103 388.5 79 395.5 52 c 0
 398.5 41 450.5 29.5 458.5 29.5 c 0
 461.5 29.5 462.5 18.5 462.5 12.5 c 0
 462.5 7.5 461.5 -0.5 460.5 -3.5 c 1
 420.5 -1.5 377 3 333 3 c 0
 287 3 246.5 -1.5 200.5 -3.5 c 1
 198.5 -1.5 196.5 6 196.5 12 c 0
 196.5 18 198 29.5 200 29.5 c 0
 212 29.5 261.5 40 266.5 52 c 1
 272.5 75 273.5 117 273.5 135 c 2
 273.5 497 l 2
 273.5 537 273 580.5 265 594.5 c 0
 261 602.5 249 611 170 611 c 0
 105.5 611 79.5 591.5 60.5 517.5 c 0
 59.5 513.5 55.5 512.5 50.5 512.5 c 0
 41.5 512.5 27 516.5 24 519.5 c 1
 43 672.5 l 1
 59 668.5 98 661.5 112 661.5 c 0
 201 660.5 251 656.5 331 656.5 c 0
EndSplineSet
Substitution2: "'c2sc' Capitals to Small Capitals in Latin lookup 0 subtable" t.sc
EndChar

StartChar: U
Encoding: 85 85 53
Width: 733
Flags: HW
LayerCount: 2
Fore
SplineSet
159.5 656.5 m 0
 203.5 656.5 247.5 660 287.5 662 c 1
 288.5 659 290 651.5 290 646 c 0
 290 639.5 289 629 286 629 c 0
 278 629 224.5 617.5 221.5 606.5 c 0
 214.5 579.5 213.5 552 213.5 517.5 c 2
 213.5 287.5 l 2
 213.5 153 274.5 62 382.5 62 c 0
 474 62 552.5 112 552.5 280 c 2
 552.5 524 l 2
 552.5 541 553 584 542.5 604 c 1
 533 618 476 630 464 630 c 0
 459 630 458 657 462.5 662 c 1
 508.5 659 541.5 655 587.5 655 c 0
 631.5 655 665.5 660 705.5 662 c 1
 707 658.5 708.5 650.5 708.5 645.5 c 0
 708.5 639.5 707 630 704 630 c 0
 696 630 637.5 623 623 602 c 0
 614.5 582.5 612 555 612 519 c 2
 612 283.5 l 2
 612 71.5 502.5 -2.5 358.5 -2.5 c 0
 207.5 -2.5 100 79.5 100 303.5 c 2
 100 522.5 l 2
 100 540.5 99 588.5 92.5 606 c 1
 86.5 618 40 629 28 629 c 0
 26 629 24 638 24 644 c 0
 24 650 25 660 27 662 c 1
 73 660 113.5 656.5 159.5 656.5 c 0
EndSplineSet
Substitution2: "'c2sc' Capitals to Small Capitals in Latin lookup 0 subtable" u.sc
EndChar

StartChar: V
Encoding: 86 86 54
Width: 715
Flags: W
HStem: 629 33<15.0272 76.0717 230.832 286.934 484.496 545.352 651.649 708.483>
VStem: 557.5 151<583.75 649.75>
LayerCount: 2
Fore
SplineSet
147.5 655.5 m 0
 192.5 655.5 247 660 285 662 c 1
 288.5 656.5 289 629 284 629 c 0
 274 629 221.5 622.5 221.5 594.5 c 0
 221.5 573 254 496 317.5 340 c 0
 344.5 271.5 391.5 175 392.5 177.5 c 1
 392.5 177.5 532 509 538 523 c 1
 548 547 557.5 575.5 557.5 592 c 0
 557.5 618 513 629 487 629 c 0
 482 629 483 656.5 486.5 662 c 1
 525 660 556.5 655.5 597 655.5 c 0
 643 655.5 662.5 660 705.5 662 c 1
 707 659.5 708.5 652.5 708.5 647 c 0
 708.5 641 708 629.5 705.5 629.5 c 0
 695.5 629.5 656.5 623 638.5 601 c 0
 624.669 579.865 609.5 546.5 595 513 c 1
 552 416.5 386.893 25.5 386.893 25.5 c 2
 376.065 -0.24591 360.5 -9.5 348 -9.5 c 0
 341.5 -9.5 335 -5.5 331.5 0 c 1
 126.5 512 l 2
 113.085 546.13 100 577.5 87.5 601 c 0
 77.1382 621.761 29 629 19 629 c 0
 16.5 629 15 638 15 644 c 0
 15 649.5 16 659.5 18 662 c 1
 61 660 102.5 655.5 147.5 655.5 c 0
EndSplineSet
Substitution2: "'c2sc' Capitals to Small Capitals in Latin lookup 0 subtable" v.sc
EndChar

StartChar: W
Encoding: 87 87 55
Width: 1078
Flags: HW
LayerCount: 2
Fore
SplineSet
141 656.5 m 0
 185 656.5 221.5 660 261.5 662 c 1
 263.5 656 265.5 629 260.5 629 c 0
 252.5 629 212.5 626.5 212.5 597.5 c 0
 212.5 585 223.5 557.5 230 545 c 1
 425.5 157.5 l 2
 429.516 149.508 438 157.5 440.5 162.5 c 2
 512.888 304.026 l 1
 405.5 520.5 l 2
 391.148 549.57 372.5 584.5 355 605 c 0
 342.208 619.292 314 629 297 629 c 0
 294.602 629 293.151 639.254 293.151 646 c 1
 293.151 651.952 293.898 659.898 296 662 c 1
 342 660 382.5 656.5 428.5 656.5 c 0
 472.5 656.5 506.5 660 546.5 662 c 1
 548.5 656 550.5 629 545.5 629 c 0
 533.5 629 498 624 498 598.5 c 0
 498 583 509.5 558.5 515.5 546 c 1
 577.44 420.892 l 1
 636.341 542.091 l 2
 646 562.5 653.5 582 653.5 597 c 0
 653.5 624.5 597 629.5 587 629.5 c 0
 582 629.5 581.5 657 586.5 662 c 1
 618.5 660 664.5 656.5 696.5 656.5 c 0
 747.5 656.5 771 660 811 662 c 1
 813 656 815 629.5 810 629.5 c 0
 796 629.5 753.546 616.669 739 600.5 c 0
 720 579 699.5 541 682 506 c 2
 608.731 357.811 l 1
 706.5 160.5 l 2
 710.5 152.5 716.433 160.027 719 165 c 1
 753.5 245 861 468 894 540 c 0
 904.063 561.753 911.5 583.5 911.5 596.5 c 0
 911.5 623.5 858.5 629.5 847.5 629.5 c 0
 842.5 629.5 842 657 847 662 c 1
 879 660 925.5 656.5 957.5 656.5 c 0
 1008.5 656.5 1029.5 660 1069.5 662 c 1
 1070.6 658.703 1071.87 649.105 1071.87 642 c 1
 1071.87 635.914 1071.01 629.5 1068.5 629.5 c 0
 1054.5 629.5 1015.7 618.53 1000.5 601.5 c 0
 982 581 959.775 543.406 942.5 507 c 1
 927 476.5 713 21.5 713 21.5 c 2
 701.772 -1.89163 684.5 -10.5 676.5 -10.5 c 0
 672.5 -10.5 668.5 -8.5 666.5 -5.5 c 2
 543.978 240.193 l 1
 430 21.5 l 2
 418.277 -1.37578 401.5 -10.5 393.5 -10.5 c 0
 389.5 -10.5 386.5 -8.5 384.5 -5.5 c 2
 119 520.5 l 2
 100.906 556.953 90 578 67 607 c 0
 55 622 20 629 8 629 c 0
 6 629 4 639 4 645 c 0
 4 651 5 660 7 662 c 1
 53 660 95 656.5 141 656.5 c 0
EndSplineSet
Substitution2: "'c2sc' Capitals to Small Capitals in Latin lookup 0 subtable" w.sc
EndChar

StartChar: X
Encoding: 88 88 56
Width: 752
Flags: HW
LayerCount: 2
Fore
SplineSet
201.5 656.5 m 0
 250.5 656.5 297.5 660 337.5 662 c 1
 339.5 656 340.5 629 335.5 629 c 0
 321.5 629 279.5 623 279 602.5 c 0
 279 595.5 283.038 585.525 289 576.5 c 2
 402.005 404.925 l 1
 453.683 470.958 539.5 572.74 539.5 598 c 0
 539.5 613 505.5 629 467.5 629 c 0
 462.5 629 462 657 467 662 c 1
 504 660 555.5 656.5 592.5 656.5 c 0
 644.5 656.5 675 660 715 662 c 1
 717.5 656 718.5 629 713.5 629 c 0
 705.5 629 641.72 621.228 621 595 c 2
 433.398 357.4 l 1
 475.479 293.973 617.212 79.5894 624.5 71 c 1
 648.5 39 695.5 29.5 716 29.5 c 0
 719 29.5 720 17.5 720 10.5 c 0
 720 5.5 718.5 -1.5 717.5 -3.5 c 1
 677.5 -1.5 633 2 592 2 c 0
 536 2 496 -1.5 440 -3.5 c 1
 435 1.5 436 29.5 441 29.5 c 0
 452 29.5 498 39 498 57.5 c 0
 498 60.5 495.984 65.9897 494 69 c 2
 353.831 282.109 l 1
 312.406 226.759 202 79.7213 202 60.5 c 0
 202 46.5 230 29.5 273 29.5 c 0
 276 29.5 277.5 17.5 277.5 11 c 0
 277.5 5.5 277 -1 275.5 -3.5 c 1
 240.5 -1.5 190 2 153 2 c 0
 101 2 67.5 -1.5 27.5 -3.5 c 1
 26.5 -0.5 24.5 5 24.5 10 c 0
 24.5 16 25.5 29.5 28.5 29.5 c 0
 36.5 29.5 96 37 116.5 60.5 c 1
 320.289 333.049 l 1
 183 542.5 l 2
 163.076 573.582 144 600.5 123 613.5 c 0
 107.383 623.424 80.5 629 68.5 629 c 0
 63.5 629 63.5 657 68.5 662 c 1
 117.5 660 152.5 656.5 201.5 656.5 c 0
EndSplineSet
Substitution2: "'c2sc' Capitals to Small Capitals in Latin lookup 0 subtable" x.sc
EndChar

StartChar: Y
Encoding: 89 89 57
Width: 657
Flags: HW
LayerCount: 2
Fore
SplineSet
156.5 656 m 0
 205.5 656 254 660 294 662 c 1
 296 656 297 630 292 630 c 0
 278 630 236 623 235.5 602.5 c 0
 235.5 595.5 239.677 585.76 245 576.5 c 2
 351 382 l 1
 356 377 358.975 381.016 361 384 c 0
 404.5 449 483.5 575 483.5 602.5 c 0
 483.5 615.5 459 630 417 630 c 0
 412 630 411.5 657 416.5 662 c 1
 450 660 499 656 536 656 c 0
 588 656 611 660 645.5 662 c 1
 646.5 659 648 650.5 648 645.5 c 0
 648 639.5 647 630.5 644 630.5 c 0
 630.5 630.5 581.5 620 564 597 c 1
 541 563.5 385 318 385 297.5 c 2
 385 142 l 2
 385 106.5 386 79 393 52 c 0
 396 41 446.5 28.5 454.5 28.5 c 0
 457.37 28.5 458.319 18.8452 458.319 12.5 c 1
 458.319 7.24245 457.452 -0.64443 456.5 -3.5 c 1
 416.5 -1.5 375 3 331 3 c 0
 285 3 245.5 -1.5 199.5 -3.5 c 1
 197.343 -1.34297 195.635 5.63473 195.635 11.5 c 1
 195.635 17.8257 196.657 28.5 199 28.5 c 0
 211 28.5 259 40 264 52 c 1
 270 75 271.5 112 271.5 140.5 c 2
 271.5 288 l 2
 271.5 305 205.5 418.5 136 543 c 1
 118.113 575.885 103.5 599 84.5 611.5 c 0
 69.1236 621.426 37.5 630 25.5 630 c 0
 22 630 21 648.5 23.5 654 c 1
 48 656 107.5 656 156.5 656 c 0
EndSplineSet
Substitution2: "'c2sc' Capitals to Small Capitals in Latin lookup 0 subtable" y.sc
EndChar

StartChar: Z
Encoding: 90 90 58
Width: 622
Flags: HW
LayerCount: 2
Fore
SplineSet
224 656 m 2
 333 656 l 2
 417 656 470 660 554 666 c 1
 558 665 564 643 564 633 c 1
 562 625 194.5 79 194.5 79 c 2
 190.5 73 187.5 68 187.5 64 c 0
 187.5 57 194.5 54 201.5 54 c 2
 394 54 l 2
 494.5 54 535.5 118.5 555 173 c 0
 556 175 560.5 177.5 568.5 177.5 c 0
 578.5 177.5 590.5 175 596 170 c 1
 573 97.5 555.5 48.5 547 0 c 1
 40.5 0 l 1
 34.5 7 32.5 18 32.5 26 c 0
 32.5 33 33.5 39 36.5 43 c 2
 412 603.5 l 1
 220.5 603.5 l 1
 121 603 103 558 79.5 484 c 0
 78.5 481 75.5 479 68 479 c 0
 57 479 38.5 482.5 35.5 485.5 c 1
 47 542.5 59.5 599.5 67 663.5 c 1
 83 659.5 210 656 224 656 c 2
EndSplineSet
Substitution2: "'c2sc' Capitals to Small Capitals in Latin lookup 0 subtable" z.sc
EndChar

StartChar: bracketleft
Encoding: 91 91 59
Width: 275
Flags: W
HStem: -124 41<172.332 250.955> -106 48<126 233.651> 708 48<126 239.27> 729 42<133.757 253.344>
VStem: 35 91<-58.936 708.574>
LayerCount: 2
Fore
SplineSet
53 756 m 0xa8
 145 756 222 767 248 771 c 1
 250 771 254 768 254 758 c 0
 254 736 242 730 240 729 c 1x18
 225 721 173 708 133 708 c 0
 127 708 126 701 126 699 c 1
 126 -50 l 1
 126 -52 127 -58 133 -58 c 0x68
 155 -58 204 -67 241 -83 c 0x88
 249 -86 251 -94 251 -106 c 0x48
 251 -117 247 -124 245 -124 c 1x88
 207 -118 144 -106 53 -106 c 0x48
 35 -106 35 -84 35 -83 c 2
 35 732 l 2
 35 733 35 756 53 756 c 0xa8
EndSplineSet
Validated: 1
EndChar

StartChar: backslash
Encoding: 92 92 60
Width: 409
Flags: W
LayerCount: 2
Fore
SplineSet
387 -6 m 0
 387 -33 365 -39 359 -39 c 1
 353 -39 335 -37 335 -37 c 1
 21 755 l 1
 21 755 29 761 43 761 c 0
 73 761 90 754 97 739 c 2
 383 13 l 2
 385 10 387 2 387 -6 c 0
EndSplineSet
Validated: 1
EndChar

StartChar: bracketright
Encoding: 93 93 61
Width: 276
Flags: W
HStem: -124 41<24.0704 103.052> -106 48<42.0574 150> 708 48<36.7293 150> 729 42<22.6562 141.475>
VStem: 150 91<-57.9956 707.995>
LayerCount: 2
Fore
SplineSet
222 756 m 0x28
 240 756 241 733 241 732 c 2
 241 -83 l 2xa8
 241 -84 240 -106 222 -106 c 0x48
 131 -106 68 -118 30 -124 c 1x88
 28 -124 24 -117 24 -106 c 0x48
 24 -94 27 -86 35 -83 c 0x88
 72 -67 120 -58 142 -58 c 0
 148 -58 150 -52 150 -50 c 1
 150 699 l 1
 150 701 148 708 142 708 c 0x68
 102 708 51 721 36 729 c 1
 34 730 22 736 22 758 c 0
 22 768 26 771 28 771 c 1x18
 54 767 130 756 222 756 c 0x28
EndSplineSet
Validated: 1
EndChar

StartChar: asciicircum
Encoding: 94 94 62
Width: 388
Flags: W
HStem: 472 218
VStem: 56 304
LayerCount: 2
Fore
SplineSet
347 472 m 0
 331 472 255 533 207 590 c 1
 163 533 85 472 69 472 c 0
 59 472 56 499 56 499 c 1
 62 513 142 567 193 677 c 0
 197 686 195 690 203 690 c 0
 228 690 218 668 278 588 c 0
 301 558 358 505 360 500 c 1
 360 496 355 472 347 472 c 0
EndSplineSet
Validated: 1
EndChar

StartChar: underscore
Encoding: 95 95 63
Width: 585
Flags: W
HStem: -43 56<64.9907 523.32>
LayerCount: 2
Fore
SplineSet
61 -33 m 1
 61 -33 66 13 76 13 c 2
 525 13 l 2
 527 13 529 12 529 8 c 0
 529 -1 525 -15 519 -37 c 0
 517 -43 513 -43 513 -43 c 1
 68 -43 l 1
 68 -43 61 -43 61 -33 c 1
EndSplineSet
Validated: 1
EndChar

StartChar: grave
Encoding: 96 96 64
Width: 247
Flags: W
HStem: 524 163
VStem: 44 171
LayerCount: 2
Fore
SplineSet
44 660 m 0
 44 666 53 687 88 687 c 0
 102 687 117 683 122 678 c 0
 159 635 215 545 215 540 c 0
 215 534 207 524 200 524 c 0
 190 524 44 621 44 660 c 0
EndSplineSet
Validated: 1
EndChar

StartChar: a
Encoding: 97 97 65
Width: 452
Flags: W
HStem: -7 64.5<108 220.444 323.5 402.847> 395.5 47<150.801 242.098>
VStem: 28 107<68.7252 156.996 295.21 352.12> 258 103<70.5188 206 246.711 380.316>
LayerCount: 2
Fore
SplineSet
192 57.5 m 0
 229 57.5 258 81 258 104 c 2
 258 206 l 1
 212.5 189 135 175.5 135 119.5 c 0
 135 75 162 57.5 192 57.5 c 0
237 442.5 m 0
 316 442.5 361 408.5 361 297.5 c 2
 361 101 l 2
 361 74 374 59.5 393.5 59.5 c 0
 411.5 59.5 424.5 70.5 428 73 c 1
 431.5 72 433.5 65.5 433.5 61.5 c 1
 433.5 49 430.5 37.5 427.5 32.5 c 1
 413.5 20 374 -6 340 -6 c 0
 307 -6 275 23.5 266 47.5 c 1
 262 46.5 212 -7 141 -7 c 0
 75 -7 28 31 28 95.5 c 0
 28 199 171.5 223.5 249 250.5 c 0
 255 252.5 258 258.5 258 265.5 c 2
 258 321 l 2
 258 368.5 234 395.5 199 395.5 c 0
 160 395.5 135 371 135 325 c 0
 135 296 108.5 286 85.5 286 c 0
 66 286 44 294 34.5 310.5 c 1
 34.5 374 142 442.5 237 442.5 c 0
EndSplineSet
Substitution2: "'smcp' Lowercase to Small Capitals in Latin lookup 0 subtable" a.sc
EndChar

StartChar: b
Encoding: 98 98 66
Width: 525
Flags: W
HStem: -7 48<206.946 330.301> 387.5 55<204.295 323.325> 624 32<9.01318 75.228> 674.5 20G<179.5 186>
VStem: 81.5 103.5<62.9805 369.52 411.786 619.945> 379 115<132.078 320.77>
LayerCount: 2
Fore
SplineSet
281.5 442.5 m 0
 411.5 442.5 494 333 494 229.5 c 0
 494 98 384 -7 263.5 -7 c 0
 188.5 -7 184 8.5 144.5 8.5 c 0
 127.5 8.5 105.536 -6.5 98 -6.5 c 1
 95.5 -6.5 71.5 3.5 71.5 10.5 c 0
 71.5 20 81.5 57 81.5 131.5 c 2
 81.5 540 l 2
 81.5 557 79.5 588 75.5 608 c 1
 71.5 622 41 624 24 624 c 2
 15 624 l 2
 11 624 9 632.5 9 639.5 c 0
 9 641.5 10 656 15 656 c 0
 125.5 666 178 694.5 181 694.5 c 2
 183 694.5 l 2
 189 694.5 195 683 196 678 c 1
 196 678 185 639.5 185 584 c 2
 185 423.5 l 2
 185 418.5 184.851 407.19 191 412 c 0
 206 423.5 246.5 442.5 281.5 442.5 c 0
260 387.5 m 0
 215 387.5 185 358 185 323.5 c 2
 185 112.5 l 2
 185 62 230 41 274.5 41 c 0
 347.5 41 379 121 379 202.5 c 0
 379 315.5 337 387.5 260 387.5 c 0
EndSplineSet
Substitution2: "'smcp' Lowercase to Small Capitals in Latin lookup 0 subtable" b.sc
EndChar

StartChar: c
Encoding: 99 99 67
Width: 435
Flags: W
HStem: -6.5 72<194.824 326.905> 395.5 46<177.43 280.202>
VStem: 25 110<134.348 316.5>
LayerCount: 2
Fore
SplineSet
241.5 441.5 m 0
 319.5 441.5 376 410 395.5 386.5 c 1
 395.5 344.5 383 307 350 307 c 0
 322.5 307 309.906 323.505 296 349.5 c 0
 285.352 370.4 269 395.5 229 395.5 c 0
 171 395.5 135 329.5 135 243 c 0
 135 115 196.5 65.5 266 65.5 c 0
 339.5 65.5 378 99 394 110 c 1
 397 109 401.5 101 401.5 94 c 1
 401.5 88 399.137 79.3066 396.5 75 c 0
 381 48.5 320.5 -6.5 239 -6.5 c 0
 120 -6.5 25 92 25 217.5 c 0
 25 334 108 441.5 241.5 441.5 c 0
EndSplineSet
Substitution2: "'smcp' Lowercase to Small Capitals in Latin lookup 0 subtable" c.sc
EndChar

StartChar: d
Encoding: 100 100 68
Width: 520
Flags: W
HStem: -5 55<192.041 303.583> 20 32<441.226 500.232> 395.5 48<184.251 308.144> 624 32<257.513 323.728> 674.5 20G<428 434.5>
VStem: 21 115<113.978 303.411> 330 103.5<66.6777 373.776 430.503 619.945>
LayerCount: 2
Fore
SplineSet
243 395.5 m 0xbe
 170.5 395.5 136 327 136 230.5 c 0
 136 116.5 179 50 254.5 50 c 0
 300 50 330 76.5 330 112 c 2
 330 322 l 2
 330 343 317.5 395.5 243 395.5 c 0xbe
252.5 443.5 m 0
 286.5 443.5 310 437 325 430.5 c 1
 328 430.5 330 434.5 330 446.5 c 2
 330 540 l 2
 330 557 328 588 324 608 c 1
 320 622 289.5 624 272.5 624 c 2
 263.5 624 l 2
 259.5 624 257.5 632.5 257.5 639.5 c 0
 257.5 641.5 258.5 656 263.5 656 c 0
 374 666 426.5 694.5 429.5 694.5 c 2
 431.5 694.5 l 2
 437.5 694.5 443.5 683 444.5 678 c 1
 444.5 678 433.5 639.5 433.5 584 c 2
 433.5 144 l 2
 433.5 133 433.5 98.5 439.5 70 c 0
 444.5 51 494.5 53 497.5 52 c 0
 499.5 51 500.5 43 500.5 40 c 0
 500.5 38 499.5 20 494.5 20 c 0x7e
 442 17 337 -6 336 -6 c 0
 331 -6 330 4 330 11 c 2
 330 27.5 l 2
 330 32.5 327.979 33.0386 326 31.5 c 0
 307.5 17.5 268.5 -5 222.5 -5 c 0
 116.5 -5 21 81.5 21 204 c 0
 21 336 127.5 443.5 252.5 443.5 c 0
EndSplineSet
Substitution2: "'smcp' Lowercase to Small Capitals in Latin lookup 0 subtable" d.sc
EndChar

StartChar: e
Encoding: 101 101 69
Width: 436
Flags: W
HStem: -6.5 72<194.872 326.745> 226 48.5<134.057 311> 395.5 46<173.33 274.036>
VStem: 25 109<132.833 322.295> 311 106<243.75 344.195>
LayerCount: 2
Fore
SplineSet
225 395.5 m 1
 155 395.5 134 308.5 134 281 c 0
 134 278 136 274.5 140.5 274.5 c 0
 166.5 274.5 286 274.5 301.5 274.5 c 0
 310.737 274.5 311 284 311 289 c 1
 311 328 281.5 395.5 225 395.5 c 1
232.5 441.5 m 0
 363.5 441.5 417 330 417 259 c 0
 417 228.5 407.007 226 379 226 c 0
 302.5 226 221 226 140 226 c 0
 135 226 133 223.561 133 220 c 0
 133 153 172.5 65.5 266 65.5 c 1
 339.5 65.5 378 99 394 110 c 1
 397 109 401.5 101 401.5 94 c 1
 401.5 88 399.137 79.3066 396.5 75 c 0
 381 48.5 320 -6.5 238.5 -6.5 c 0
 122.5 -6.5 25 91.5 25 215 c 0
 25 350 112.5 441.5 232.5 441.5 c 0
EndSplineSet
Substitution2: "'smcp' Lowercase to Small Capitals in Latin lookup 0 subtable" e.sc
EndChar

StartChar: f
Encoding: 102 102 70
Width: 349
Flags: W
HStem: -3.5 33<28.8714 87.2388 218.419 275.287> 371 53<44.18 101.5 204.5 321.38> 645 50.3<241.528 323.133>
VStem: 101.5 103<41.9072 370.997 424.56 551.068>
LayerCount: 2
Fore
SplineSet
312 695.3 m 4
 373 695.354 408 676 418 659 c 5
 422.5 625 415.5 579 376.5 579 c 4
 335 579 330 645 281.5 645 c 4
 226.5 645 204.5 558 204.5 475 c 6
 204.5 429 l 6
 204.5 427 207.5 424 209.5 424 c 6
 320.5 424 l 6
 325.5 424 325.5 423 325.5 417 c 4
 325.5 408 320.5 385 313.5 371 c 5
 210.5 371 l 6
 207.5 371 204.5 368 204.5 365 c 4
 204.5 275 204.5 142 204.5 142 c 6
 204.5 108.5 205.5 79 212.5 52 c 4
 215.5 41 264 29.5 272 29.5 c 4
 277 29.5 276.5 2.5 274.5 -3.5 c 5
 234 -1.5 192 3 152.5 3 c 4
 111 3 73 -1.5 31.5 -3.5 c 5
 26.5 1.5 27 29.5 31.5 29.5 c 4
 43.5 29.5 90 41 93 52 c 4
 100 80.5 101.5 113.5 101.5 134.5 c 6
 101.5 134.5 101.5 275 101.5 364 c 4
 101.5 367 99.5 371 96.5 371 c 6
 36.5 371 l 6
 34.5 371 33.5 373 33.5 377 c 4
 33.5 387.5 52.5 424.5 79.5 424.5 c 6
 96.5 424.5 l 6
 99.5 424.5 101.5 427.5 101.5 430.5 c 6
 101.5 440.5 l 6
 101.5 581.5 200.5 695.185 312 695.3 c 4
EndSplineSet
Substitution2: "'smcp' Lowercase to Small Capitals in Latin lookup 0 subtable" f.sc
EndChar

StartChar: g
Encoding: 103 103 71
Width: 477
Flags: W
HStem: -222.5 49<148.212 313.38> -25 88.5<129.835 331.003> 136 43<171.287 266.204> 367 47.5<377.913 447.907> 397 43.5<166.258 260.058>
VStem: 24 82.5<-136.19 -63.2887> 39 103<210.585 365.173> 43.5 82<43.5 112.848> 290 103<217.218 365.225> 356 91<-112.423 -49.3691>
LayerCount: 2
Fore
SplineSet
356 -83 m 0xe440
 356 -31.5 261 -25 170 -25 c 0
 169 -25 166.474 -25.8419 165 -26.5 c 0
 136.288 -38.6059 106.5 -48.5 106.5 -90 c 0
 106.5 -141 171 -173.5 229 -173.5 c 0
 303.5 -173.5 356 -135.5 356 -83 c 0xe440
142 295 m 0xea80
 142 234.5 167 179 218 179 c 0
 270.5 179 290 227 290 278 c 0
 290 346 264 397 212.5 397 c 0
 159 397 142 339.5 142 295 c 0xea80
218 440.5 m 0
 289 440.5 314.5 414.5 381 414.5 c 2
 437.5 414.5 l 1
 440.5 413.5 450 391 450 381 c 0
 450 373 448 367 444 367 c 2
 379 367 l 2
 377.5 367 375 366 375 364 c 0
 375 355 393 329.5 393 289.5 c 0
 393 215.5 322.5 136 220.5 136 c 0
 194.5 136 170 138.5 158.5 140.5 c 1
 142 133.5 125.5 111 125.5 97 c 0xf180
 125.5 64.5 203.5 65.5 254.5 63.5 c 0
 386.707 59.5681 446.5 29 447 -37 c 0
 447.701 -137.495 333.5 -222 206 -222.5 c 0
 116.5 -223 24 -187 24 -112 c 0xf440
 24 -69.5 76.5 -31 114 -17.5 c 1
 83.5 -8.5 43.5 22 43.5 65 c 0xf1
 43.5 103.5 89.5 136.5 118 154 c 1
 82 170.5 39 226.5 39 287 c 0
 39 384.5 122 440.5 218 440.5 c 0
EndSplineSet
Substitution2: "'smcp' Lowercase to Small Capitals in Latin lookup 0 subtable" g.sc
EndChar

StartChar: h
Encoding: 104 104 72
Width: 578
Flags: W
HStem: -3.5 33<28.3083 88.1003 217.919 274.787 309.808 365.969 495.604 554.287> 369 7<207.5 284> 624 32<29.0132 95.228> 674.5 20G<199.5 206>
VStem: 101 103.5<41.4343 349.716 376.003 619.945> 378.5 103.5<41.9072 332.945>
LayerCount: 2
Fore
SplineSet
354 442 m 0
 436 442 482 380.5 482 245 c 2
 482 141.5 l 2
 482 108 482.5 79 489.5 52 c 0
 492.5 41 543 29.5 551 29.5 c 0
 556 29.5 555.5 2.5 553.5 -3.5 c 1
 513 -1.5 470 3 431.5 3 c 0
 390 3 354 -1.5 312.5 -3.5 c 1
 307.5 1.5 307.5 29.5 312.5 29.5 c 0
 324.5 29.5 368.5 41 371.5 52 c 0
 377.5 77.5 378.5 114.5 378.5 125 c 2
 378.5 223 l 2
 378.5 338.5 345 369 284 369 c 0
 244 369 204.5 341 204.5 314.5 c 2
 204.5 142 l 2
 204.5 108.5 205 79 212 52 c 0
 215 41 263.5 29.5 271.5 29.5 c 0
 276.5 29.5 276 2.5 274 -3.5 c 1
 233.5 -1.5 192.5 3 154 3 c 0
 112.5 3 72.5 -1.5 31 -3.5 c 1
 26 1.5 26 29.5 31 29.5 c 0
 43 29.5 91 41 94 52 c 0
 100 77.5 101 114 101 124.5 c 2
 101 540 l 2
 101 556.5 99.5 588 95.5 608 c 1
 91.5 622 61 624 44 624 c 2
 35 624 l 2
 31 624 29 632.5 29 639.5 c 0
 29 641.5 30 656 35 656 c 0
 145.5 666 198 694.5 201 694.5 c 2
 203 694.5 l 2
 209 694.5 215 683 216 678 c 1
 216 678 204.5 639.5 204.5 584 c 2
 204.5 584 204.5 422 204.5 381.5 c 0
 204.5 379.5 205.5 376 207.5 376 c 0
 209 376 210.021 377.48 211.5 379 c 0
 237.5 408 297.5 442 354 442 c 0
EndSplineSet
Substitution2: "'smcp' Lowercase to Small Capitals in Latin lookup 0 subtable" h.sc
EndChar

StartChar: i
Encoding: 105 105 73
Width: 300
Flags: W
HStem: -3.5 33<28.989 88.781 218.785 277.467> 418.5 20G<202.68 206.68> 542.5 124<97.2549 193.106>
VStem: 83.1806 124<556.574 652.426> 101.68 103.5<41.9072 358.146>
LayerCount: 2
Fore
SplineSet
83.1806 604.5 m 0xf0
 83.1806 639 110.68 666.5 145.18 666.5 c 0
 179.68 666.5 207.18 639 207.18 604.5 c 0
 207.18 570 179.68 542.5 145.18 542.5 c 0
 110.68 542.5 83.1806 570 83.1806 604.5 c 0xf0
205.18 142 m 2xe8
 205.18 108.5 205.68 79 212.68 52 c 0
 215.68 41 266.18 29.5 274.18 29.5 c 0
 279.18 29.5 278.68 2.5 276.68 -3.5 c 1
 236.18 -1.5 193.18 3 154.68 3 c 0
 113.18 3 73.1806 -1.5 31.6806 -3.5 c 1
 26.6806 1.5 26.6806 29.5 31.6806 29.5 c 0
 43.6806 29.5 91.6806 41 94.6806 52 c 0
 100.68 77.5 101.68 114.5 101.68 125 c 2
 101.68 288 l 2
 101.68 297 100.18 337 85.6806 352.5 c 1
 66.6806 375 29.1806 370.5 29.1806 375.5 c 0
 29.1806 377.5 29.6806 405 34.6806 405.5 c 0
 70.1806 409 158.18 425 195.18 436.5 c 0
 196.18 436.5 202.18 438.5 203.18 438.5 c 0
 210.18 438.5 213.68 424.5 213.18 419.5 c 0
 209.18 387.5 205.18 367.5 205.18 333.5 c 2
 205.18 142 l 2xe8
EndSplineSet
Substitution2: "'smcp' Lowercase to Small Capitals in Latin lookup 0 subtable" i.sc
EndChar

StartChar: j
Encoding: 106 106 74
Width: 280
Flags: W
HStem: 418.5 20G<209.5 213.5> 542.5 124<101.074 196.926>
VStem: 87 124<556.574 652.426> 108.5 103.5<-61.8742 358.146>
LayerCount: 2
Fore
SplineSet
108.5 288 m 2xd0
 108.5 297 107 337 92.5 352.5 c 1
 73.5 375 36.5 370.5 36.5 375.5 c 0
 36.5 377.5 36.5 405 41.5 405.5 c 0
 77 409 165.5 425 202.5 436.5 c 0
 203.5 436.5 209 438.5 210 438.5 c 0
 217 438.5 221 424.5 220.5 419.5 c 0
 216.5 387.5 212 367.5 212 333.5 c 2
 212 94 l 2
 212 34 203.5 -56 168.5 -111 c 0
 133.5 -166.5 49.5 -217.5 17 -224.5 c 1
 11 -221 3.5 -213.5 2.5 -205 c 0
 2 -203 2 -197.5 3 -196.5 c 0
 6 -192.5 108.5 -164 108.5 72.5 c 2
 108.5 288 l 2xd0
87 604.5 m 0xe0
 87 639 114.5 666.5 149 666.5 c 0
 183.5 666.5 211 639 211 604.5 c 0
 211 570 183.5 542.5 149 542.5 c 0
 114.5 542.5 87 570 87 604.5 c 0xe0
EndSplineSet
Substitution2: "'smcp' Lowercase to Small Capitals in Latin lookup 0 subtable" j.sc
EndChar

StartChar: k
Encoding: 107 107 75
Width: 596
Flags: W
HStem: -3.5 33<28.3083 88.1003 218.104 276.787 324.188 362.982 503.816 564.456> 395 29<308.352 354.544 456.502 518.014> 624 32<29.0132 95.228> 674.5 20G<199.5 206>
VStem: 101 103.5<41.9072 204 250 619.945>
LayerCount: 2
Fore
SplineSet
445 375 m 0
 429.5 366 357.5 317 302.5 260 c 1
 377.5 179 462.5 76 488 56 c 1
 511 37 552 28.5 560 28.5 c 0
 563 28.5 564.5 18 564.5 11 c 0
 564.5 6 564 -1 563 -3 c 1
 523 -1 483.5 2.5 445.5 2.5 c 0
 404.5 2.5 368 -1.5 327 -3.5 c 1
 322 1.5 322 28.5 327 28.5 c 0
 338 28.5 363 34.5 363 41.5 c 0
 363 42.5 363 43.5 362 44.5 c 2
 216 207 l 1
 204.5 204 l 1
 204.5 142 l 1
 205 108.5 205 79 212 52 c 0
 215 41 265.5 29.5 273.5 29.5 c 0
 278.5 29.5 278 2.5 276 -3.5 c 1
 235.5 -1.5 192.5 3 154 3 c 0
 112.5 3 72.5 -1.5 31 -3.5 c 1
 26 1.5 26 29.5 31 29.5 c 0
 43 29.5 91 41 94 52 c 0
 100 77.5 101 114.5 101 125 c 2
 101 540 l 2
 101 556.5 99.5 588 95.5 608 c 1
 91.5 622 61 624 44 624 c 2
 35 624 l 2
 31 624 29 632.5 29 639.5 c 0
 29 641.5 30 656 35 656 c 0
 145.5 666 198 694.5 201 694.5 c 2
 203 694.5 l 2
 209 694.5 215 683 216 678 c 1
 216 678 204.5 639.5 204.5 584 c 2
 204.5 250 l 1
 212.5 252 226 254 234 261 c 0
 322.5 338 355 357.5 355 377.5 c 0
 355 397.5 314.5 389 309.5 395 c 1
 306.5 404 306 422.5 311 424.5 c 1
 311 424.5 386.5 424 407.5 424 c 1
 443 424 469 425.5 514.5 427.5 c 1
 522.5 422.5 518.5 395 514.5 395 c 0
 491.5 395 456.5 382 445 375 c 0
EndSplineSet
Substitution2: "'smcp' Lowercase to Small Capitals in Latin lookup 0 subtable" k.sc
EndChar

StartChar: l
Encoding: 108 108 76
Width: 295
Flags: W
HStem: -3 33<28.3083 81.2129 215.875 266.161> 628 28<25.1252 86.9094> 674 20G<195.5 202>
VStem: 97 104<42.5565 622.312>
LayerCount: 2
Fore
SplineSet
201 144 m 6
 201 110 201 82 208 54 c 4
 211 43 255 30 263 30 c 4
 268 30 267 3 265 -3 c 5
 225 -1 187 3 149 3 c 4
 107 3 73 -1 31 -3 c 5
 26 2 26 30 31 30 c 4
 43 30 86 43 89 54 c 4
 95 80 97 118 97 128 c 6
 97 544 l 6
 97 561 95 592 91 612 c 5
 87 626 58 628 41 628 c 6
 31 628 l 6
 27 628 25 633 25 640 c 4
 25 642 26 656 31 656 c 4
 141 666 194 694 197 694 c 6
 199 694 l 6
 205 694 212 683 213 678 c 5
 213 678 201 640 201 584 c 6
 201 144 l 6
EndSplineSet
Substitution2: "'smcp' Lowercase to Small Capitals in Latin lookup 0 subtable" l.sc
EndChar

StartChar: m
Encoding: 109 109 77
Width: 844
Flags: W
HStem: -3.5 33<29.1833 88.9753 218.794 275.662 304.683 363.568 493.387 551.162 579.683 638.568 768.387 826.162> 369 73<269.025 375.472 529.141 670.169> 369 10<210.875 285.375>
VStem: 101.875 103.5<41.4343 350.038> 376.375 103.5<41.4343 332.968> 651.375 103.5<41.4343 331.688>
LayerCount: 2
Fore
SplineSet
354.375 442 m 0xdc
 408.011 442 442.875 409.5 458.875 372 c 1
 494.375 408 555.375 441.5 626.375 442 c 0
 723.875 442 754.875 346.5 754.875 247 c 2
 754.875 142 l 2
 754.875 108.5 755.375 79 762.375 52 c 0
 765.375 41 814.875 29.5 822.875 29.5 c 0
 827.875 29.5 827.375 2.5 825.375 -3.5 c 1
 784.875 -1.5 742.875 3 704.375 3 c 0
 662.875 3 623.875 -1.5 582.375 -3.5 c 1
 577.375 1.5 577.375 29.5 582.375 29.5 c 0
 594.375 29.5 641.375 41 644.375 52 c 0
 650.375 77.5 651.375 111.5 651.375 122 c 2
 651.375 223.5 l 2
 651.375 318 623.875 369 557.875 369 c 0
 509.375 369 480.875 338 477.375 321.5 c 0
 476.375 318.5 476.443 309.973 476.875 306.5 c 0
 479.375 288 479.875 258.5 479.875 243.5 c 2
 479.875 137.5 l 2
 479.875 104 480.375 79 487.375 52 c 0
 490.375 41 539.875 29.5 547.875 29.5 c 0
 552.875 29.5 552.375 2.5 550.375 -3.5 c 1
 509.875 -1.5 467.875 3 429.375 3 c 0
 387.875 3 348.875 -1.5 307.375 -3.5 c 1
 302.375 1.5 302.375 29.5 307.375 29.5 c 0
 319.375 29.5 366.375 41 369.375 52 c 0
 375.375 77.5 376.375 114.5 376.375 125 c 2
 376.375 221 l 2
 376.375 328.5 342.875 369 285.375 369 c 0xdc
 244.875 369 205.375 342 205.375 314 c 2
 205.375 142 l 2
 205.375 108.5 205.875 79 212.875 52 c 0
 215.875 41 264.375 29.5 272.375 29.5 c 0
 277.375 29.5 276.875 2.5 274.875 -3.5 c 1
 234.375 -1.5 193.375 3 154.875 3 c 0
 113.375 3 73.375 -1.5 31.875 -3.5 c 1
 26.875 1.5 26.875 29.5 31.875 29.5 c 0
 43.875 29.5 91.875 41 94.875 52 c 0
 100.875 77.5 101.875 114.5 101.875 125 c 2
 101.875 288 l 2
 101.875 297 100.375 337 85.875 352.5 c 1
 66.875 375 29.375 370.5 29.375 375.5 c 0
 29.375 377.5 29.875 405 34.875 405.5 c 0
 70.375 409 141.375 424 195.375 436.5 c 0
 197.875 437 202.375 438.5 203.375 438.5 c 0
 210.375 438.5 213.875 424.5 213.375 419.5 c 0
 211.375 405.5 209.375 388.5 209.375 384 c 0
 209.375 382 209.375 379.5 210.875 379 c 1xbc
 212.375 379 214.353 381.023 215.875 382.5 c 0
 243.375 409.5 297.375 442 354.375 442 c 0xdc
EndSplineSet
Substitution2: "'smcp' Lowercase to Small Capitals in Latin lookup 0 subtable" m.sc
EndChar

StartChar: n
Encoding: 110 110 78
Width: 584
Flags: W
HStem: -3.5 33<29.3083 89.1003 218.919 275.787 310.808 366.969 496.604 555.287> 369 10<211 285.5> 418.5 20G<203 207>
VStem: 102 103.5<41.4343 349.443> 379.5 103.5<41.9072 334.164>
LayerCount: 2
Fore
SplineSet
354.5 442 m 0
 438 442 483 380 483 237 c 2
 483 142 l 2
 483 108.5 483.5 79 490.5 52 c 0
 493.5 41 544 29.5 552 29.5 c 0
 557 29.5 556.5 2.5 554.5 -3.5 c 1
 514 -1.5 471 3 432.5 3 c 0
 391 3 355 -1.5 313.5 -3.5 c 1
 308.5 1.5 308.5 29.5 313.5 29.5 c 0
 325.5 29.5 369.5 41 372.5 52 c 0
 378.5 77.5 379.5 114.5 379.5 125 c 2
 379.5 220 l 2
 379.5 334 349.5 369 285.5 369 c 0
 243 369 205.5 340.5 205.5 314 c 2
 205.5 142 l 2
 205.5 108.5 206 79 213 52 c 0
 216 41 264.5 29.5 272.5 29.5 c 0
 277.5 29.5 277 2.5 275 -3.5 c 1
 234.5 -1.5 193.5 3 155 3 c 0
 113.5 3 73.5 -1.5 32 -3.5 c 1
 27 1.5 27 29.5 32 29.5 c 0
 44 29.5 92 41 95 52 c 0
 101 77.5 102 114.5 102 125 c 2
 102 288 l 2
 102 297 100.5 337 86 352.5 c 1
 67 375 29.5 370.5 29.5 375.5 c 0
 29.5 377.5 30 405 35 405.5 c 0
 70.5 409 141.5 424 195.5 436.5 c 0
 198 437 202.5 438.5 203.5 438.5 c 0
 210.5 438.5 214 424.5 213.5 419.5 c 0
 211.5 405.5 209.5 388.5 209.5 384 c 0
 209.5 382 209.5 379.5 211 379 c 1
 212.5 379 214.478 381.023 216 382.5 c 0
 243.5 409.5 297.5 442 354.5 442 c 0
EndSplineSet
Substitution2: "'smcp' Lowercase to Small Capitals in Latin lookup 0 subtable" n.sc
EndChar

StartChar: o
Encoding: 111 111 79
Width: 507
Flags: W
HStem: -7 47<206.033 317.792> 395 47<187.678 299.747>
VStem: 27 114<121.171 316.366> 364.5 115<120.781 311.717>
LayerCount: 2
Fore
SplineSet
240.5 395 m 1
 172.5 395 141 317.5 141 241 c 1
 141 141.5 181.5 40 263.5 40 c 1
 331 40 364.5 117.5 364.5 193.5 c 1
 364.5 294 323.5 395 240.5 395 c 1
253 442 m 0
 379 442 479.5 341.5 479.5 218 c 0
 479.5 94 381 -7 254 -7 c 0
 127.5 -7 27 94 27 218 c 0
 27 343 125.5 442 253 442 c 0
EndSplineSet
Substitution2: "'smcp' Lowercase to Small Capitals in Latin lookup 0 subtable" o.sc
EndChar

StartChar: p
Encoding: 112 112 80
Width: 540
Flags: W
HStem: -222 33<25.8083 85.6003 215.604 274.287> -8 48<225.702 344.991> 387.5 53.5<223.009 335.969>
VStem: 98.5 103.5<-176.593 5.9967 63.3152 358.646> 396.5 115<127.361 314.556>
LayerCount: 2
Fore
SplineSet
299.5 441 m 0
 435 441 511.5 328 511.5 230.5 c 0
 511.5 89.5 402 -8 277 -8 c 0
 237.5 -8 216.5 2.5 206 6 c 1
 204.5 6 202 1.5 202 -8.5 c 2
 202 -76.5 l 2
 202 -110 202.5 -139.5 209.5 -166.5 c 0
 212.5 -177.5 263 -189 271 -189 c 0
 276 -189 275.5 -216 273.5 -222 c 1
 233 -220 190 -215.5 151.5 -215.5 c 0
 110 -215.5 70 -220 28.5 -222 c 1
 23.5 -217 23.5 -189 28.5 -189 c 0
 40.5 -189 88.5 -177.5 91.5 -166.5 c 0
 97.5 -141 98.5 -104 98.5 -93.5 c 2
 98.5 288.5 l 2
 98.5 297.5 97 337.5 82.5 353 c 1
 63.5 375.5 26 371 26 376 c 0
 26 378 26.5 405.5 31.5 406 c 0
 67 409.5 128 418 181 433.5 c 0
 181.5 433.5 198.5 439 200 439 c 0
 205.5 439 203.5 423.5 203.5 418.5 c 0
 203.5 415 203 410.5 202.5 406.5 c 1
 218.5 418.5 263 441 299.5 441 c 0
276 387.5 m 0
 232.5 387.5 202 360.5 202 318.5 c 2
 202 111.5 l 2
 202 65.5 249.5 40 287 40 c 0
 345 40 396.5 93.5 396.5 200 c 0
 396.5 303 354 387.5 276 387.5 c 0
EndSplineSet
Substitution2: "'smcp' Lowercase to Small Capitals in Latin lookup 0 subtable" p.sc
EndChar

StartChar: q
Encoding: 113 113 81
Width: 487
Flags: HW
LayerCount: 2
Fore
SplineSet
263.5 443.5 m 0
 335.5 443.5 346.5 429 384 429 c 0
 399 429 421.964 442.5 428.5 442.5 c 1
 432 442.5 456 432 456 425.5 c 0
 456 419.5 443.5 378 443.5 300 c 2
 443.5 -83 l 2
 443.5 -116.5 444 -140 451 -167 c 0
 454 -178 504.5 -189.5 512.5 -189.5 c 0
 517.5 -189.5 517 -216.5 515 -222.5 c 1
 474.5 -220.5 431.5 -216 393 -216 c 0
 351.5 -216 311.5 -220.5 270 -222.5 c 1
 265 -217.5 265 -189.5 270 -189.5 c 0
 282 -189.5 330 -178 333 -167 c 0
 339 -141.5 340 -104.5 340 -94 c 2
 340 12 l 2
 340 17.5 339.649 27.3093 333.5 23.5 c 0
 315.95 12.9751 283 -6 240 -6 c 0
 127 -6 31 90.5 31 208 c 0
 31 333.5 136.5 443.5 263.5 443.5 c 0
251.5 395.5 m 0
 168 395.5 146 302.5 146 235 c 0
 146 130.5 187.5 50 267.5 50 c 0
 297.5 50 340 68 340 110.5 c 2
 340 319.5 l 2
 340 352.5 320 395.5 251.5 395.5 c 0
EndSplineSet
Substitution2: "'smcp' Lowercase to Small Capitals in Latin lookup 0 subtable" q.sc
EndChar

StartChar: r
Encoding: 114 114 82
Width: 430
Flags: W
HStem: -3.5 33<29.3083 89.1003 218.966 276.287> 364.5 77.5<255.835 337.995>
VStem: 102 103.5<41.4343 338.967>
LayerCount: 2
Fore
SplineSet
320.5 442 m 1
 359 442 386.5 428 402.5 409 c 1
 402.5 351.5 386.5 324.5 354.5 324.5 c 1
 315.5 324.5 316 364.5 271.5 364.5 c 1
 227 364.5 205.5 305.5 205.5 267 c 2
 205.5 141.5 l 2
 205.5 108.5 206 79 213 52 c 0
 216 41 265 29.5 273 29.5 c 0
 278 29.5 277.5 2.5 275.5 -3.5 c 1
 235 -1.5 193.5 3 155 3 c 0
 113.5 3 73.5 -1.5 32 -3.5 c 1
 27 1.5 27 29.5 32 29.5 c 0
 44 29.5 92 41 95 52 c 0
 101 77.5 102 114.5 102 125 c 2
 102 288 l 2
 102 297 100.5 337 86 352.5 c 1
 67 375 29.5 370.5 29.5 375.5 c 0
 29.5 377.5 30 405 35 405.5 c 0
 70.5 409 141.5 424 195.5 436.5 c 0
 196 436.5 202.5 438.5 203.5 438.5 c 0
 210.5 438.5 214 424.5 213.5 419.5 c 1
 212 409 209 381 208 372.5 c 1
 228.5 402 272.5 442 320.5 442 c 1
EndSplineSet
Substitution2: "'smcp' Lowercase to Small Capitals in Latin lookup 0 subtable" r.sc
EndChar

StartChar: s
Encoding: 115 115 83
Width: 366
Flags: W
HStem: -10.5 45.5<110.077 227.686> 398 45<136.31 247.284>
VStem: 28.5 38<83.4272 135.365> 30.5 98<301.907 384.997> 238 100<54.3238 136.757> 280 37<306.756 358.853>
LayerCount: 2
Fore
SplineSet
190 443 m 0xd8
 233 443 266 437.5 306 426.5 c 1
 313 395 316.5 350 317 313.5 c 0
 317 309.5 311 306.5 304 306.5 c 0
 293.5 306.5 281 309 280 314 c 0
 272 353.5 246 398 189.5 398 c 0
 151.5 398 128.5 379.5 128.5 348 c 0xd4
 128.5 305 168 287.5 212.5 263.5 c 0
 259 238.5 338 202.5 338 125.5 c 0
 338 38.5 260.5 -10.5 171.5 -10.5 c 0
 126.5 -10.5 78.5 3 43 18 c 1
 37 40 28.5 105 28.5 131 c 1
 32.5 134 37 135.5 42 135.5 c 0
 49 135.5 65.5 135 66.5 128 c 0xe8
 77 69 127 35 173.5 35 c 0
 209 35 238 53 238 90 c 0
 238 138.5 189 157.5 126.5 191 c 0
 69.5 220.5 30.5 256 30.5 316.5 c 0
 30.5 403.5 113.5 443 190 443 c 0xd8
EndSplineSet
Substitution2: "'smcp' Lowercase to Small Capitals in Latin lookup 0 subtable" s.sc
EndChar

StartChar: t
Encoding: 116 116 84
Width: 350
Flags: W
HStem: -7 56<204.494 288.146> 372 53.5<188.5 315.31>
VStem: 85 103.5<66.4062 372>
LayerCount: 2
Fore
SplineSet
85 372 m 1
 23.5 372 l 2
 19 372 17 390 17 398 c 0
 17 402 17 405 18.5 407 c 1
 34.5 414.5 69 436 95 460.5 c 0
 124 488 157 528.5 160.5 532 c 1
 171.5 532 188.5 528.5 188.5 524 c 2
 188.5 425.5 l 1
 232.5 425.5 296 425 310 425 c 0
 315 425 318 421.5 318 415.5 c 0
 318 406.5 315 386 308 372 c 1
 188.5 372 l 1
 188.5 131 l 2
 188.5 78 212 49 252.5 49 c 0
 281 49 306.5 64.5 311 66 c 0
 316.5 67.5 325 46.5 324.5 43.5 c 0
 317 28.5 261 -7 210.5 -7 c 0
 148.5 -7 85 30.5 85 129.5 c 2
 85 372 l 1
EndSplineSet
Substitution2: "'smcp' Lowercase to Small Capitals in Latin lookup 0 subtable" t.sc
EndChar

StartChar: u
Encoding: 117 117 85
Width: 555
Flags: W
HStem: -5.5 71.5<170 299.849> 20.5 32<473.007 528.819> 418.5 20G<190.5 194.5 462 466>
VStem: 89.5 103<101.797 358.146> 361 103<85.7245 358.146>
LayerCount: 2
Fore
SplineSet
464 334 m 2xb8
 464 136 l 2
 464 118 465 85.5 472.5 66.5 c 0
 480.5 51 523 53.5 526 52.5 c 0
 528 51.5 529.5 46 529.5 43 c 0
 529.5 41 527.5 20.5 522.5 20.5 c 0x78
 470 17.5 368 -6.5 367 -6.5 c 0
 362 -6.5 360 3.5 360 10.5 c 2
 360 54.5 l 2
 360 59.5 357.979 60.021 357 59 c 1
 331.5 32 277 -5.5 217 -5.5 c 1
 123 -5.5 89.5 94.5 89.5 176.5 c 2
 89.5 288 l 2
 89.5 297 88 337 73.5 352.5 c 1
 54.5 375 17 370.5 17 375.5 c 0
 17 377.5 17.5 405 22.5 405.5 c 0
 58 409 146 425 183 436.5 c 0
 184 436.5 190 438.5 191 438.5 c 0
 198 438.5 201.5 424.5 201 419.5 c 0
 197 387.5 192.5 366.5 192.5 332.5 c 2
 192.5 211.5 l 2
 192.5 108 219.5 66 285 66 c 0
 332 66 361 102.5 361 123 c 2
 361 288 l 2
 361 297 359.5 337 345 352.5 c 1
 326 375 288.5 370.5 288.5 375.5 c 0
 288.5 377.5 289 405 294 405.5 c 0
 329.5 409 417.5 425 454.5 436.5 c 0
 455.5 436.5 461.5 438.5 462.5 438.5 c 0
 469.5 438.5 473 424.5 472.5 419.5 c 0
 468.5 387.5 464 367.5 464 334 c 2xb8
EndSplineSet
Substitution2: "'smcp' Lowercase to Small Capitals in Latin lookup 0 subtable" u.sc
EndChar

StartChar: v
Encoding: 118 118 86
Width: 560
Flags: HW
LayerCount: 2
Fore
SplineSet
395.5 379 m 0
 386 398.5 358.5 405.5 326.5 405.5 c 0
 321.5 405.5 322.5 433 326 438.5 c 1
 367 436.5 391.5 432 431.5 432 c 0
 471.5 432 498 436.5 539 438.5 c 1
 540.5 436 542 428.5 542 422.5 c 1
 542 415 540 405.5 536.5 405.5 c 0
 526.5 405.5 476.5 397 463 368.5 c 2
 295.5 15 l 2
 292 7 277.5 -11 266 -11 c 0
 260.5 -11 254.5 -7 253.5 -5 c 0
 186 148 154.5 225.5 83 378 c 0
 71.5 403.5 28.5 405.5 18.5 405.5 c 0
 16 405.5 14.5 414.5 14.5 422 c 1
 14.5 428.5 16 435.5 18.5 438.5 c 1
 59.5 436.5 99 432 139 432 c 0
 179 432 219.5 436.5 260.5 438.5 c 1
 264 433 263.5 405.5 258.5 405.5 c 0
 249 405.5 200 399.5 200 383.5 c 0
 200 380 201 375 201.5 374 c 2
 301 144.5 l 1
 391 342.5 l 2
 396.5 354.5 401.5 369.5 395.5 379 c 0
EndSplineSet
Substitution2: "'smcp' Lowercase to Small Capitals in Latin lookup 0 subtable" v.sc
EndChar

StartChar: w
Encoding: 119 119 87
Width: 815
Flags: HW
LayerCount: 2
Fore
SplineSet
653.5 366.5 m 0
 653.5 400.5 604.5 405 581.5 405 c 2
 577.5 405 l 2
 572.5 405 571.5 433.5 576.5 438.5 c 1
 617.5 436.5 652 431.5 693 431.5 c 0
 731 431.5 754 436.5 794 438.5 c 1
 795 435.5 796.5 426 796.5 421 c 0
 796.5 415 795 405.5 792 405.5 c 0
 784 405.5 729.5 391.5 717.5 363 c 2
 569.5 10.5 l 2
 565 -1 550.5 -11 537 -11 c 0
 530 -11 525 -6.5 523.5 -3.5 c 2
 402.5 272.5 l 1
 295 11 l 2
 293 6 281.5 -11 262.5 -11 c 0
 256.5 -11 250.5 -7.5 248.5 -3.5 c 0
 180 149 151 229.5 76.5 377.5 c 0
 65.5 398 30 405 18 405 c 0
 16 405 14 415 14 421 c 0
 14 427 15.5 436.5 17.5 438.5 c 1
 58.5 436.5 91.5 432 132.5 432 c 0
 170.5 432 212 436.5 252 438.5 c 1
 254 432.5 256 406 251 406 c 0
 243 406 195 399.5 195 378.5 c 0
 195 371.5 236.5 281.5 295 148.5 c 1
 342 265.5 371 332.5 371 344.5 c 0
 371 356.5 362 378 358 384 c 1
 352 393 345.5 396.5 336.5 400.5 c 0
 326.5 405 312 405.5 300 405.5 c 0
 295 405.5 294.5 433.5 299.5 438.5 c 1
 340.5 436.5 371 432 412 432 c 0
 450 432 488.5 436.5 528.5 438.5 c 1
 530.5 432.5 531 405 526 405 c 0
 511 405 475 402 475 370.5 c 0
 475 353.5 499.5 298 569 148 c 1
 613 261.5 653.5 347.5 653.5 366.5 c 0
EndSplineSet
Substitution2: "'smcp' Lowercase to Small Capitals in Latin lookup 0 subtable" w.sc
EndChar

StartChar: x
Encoding: 120 120 88
Width: 566
Flags: W
HStem: -3.5 33<29.5015 91.2987 195.544 254.999 289.545 333.175 480.267 532.961> 405 33.5<32.527 87.5092 230.468 276.461 302.004 363.174 458.327 528.493>
LayerCount: 2
Fore
SplineSet
32.5 422.5 m 1
 32.5 426 34 434.5 36 438.5 c 1
 82 436 108.5 432.5 154.5 432.5 c 1
 201.5 432.5 227.5 436 274.5 438.5 c 1
 276 435 276.5 429.5 276.5 423.5 c 1
 276.5 416 274.5 405.5 272.5 405.5 c 0
 256.5 405.5 230 400 230 385 c 0
 230 382 231.5 378 235 373 c 2
 298.5 284 l 1
 325 323 363.5 369 363.5 386 c 0
 363.5 406 312.5 404 305.5 405.5 c 0
 302.5 406 302 415.5 302 422.5 c 1
 302 427.5 302.5 434.5 305.5 438.5 c 1
 351 436 376 432.5 421.5 432.5 c 1
 462.5 432.5 485.5 436 526 438.5 c 1
 527.5 434 528.5 429 528.5 422.5 c 1
 528.5 415.5 527.5 405.5 525.5 405.5 c 0
 491.5 401.5 451 390 437.5 374.5 c 2
 332.5 249.5 l 2
 330.5 246.5 330 245 330 242 c 1
 330 238 331 235 333.5 231.5 c 2
 447 77 l 2
 470.5 44.5 502.5 32 529.5 28.5 c 0
 531.5 28.5 533 18 533 11 c 1
 533 5 532 0.5 529 -3.5 c 1
 485 -1 460.5 3 416 3 c 1
 367.5 3 340 -1 291.5 -3.5 c 1
 290.5 1.5 289.5 4 289.5 9 c 1
 289.5 17 290 29.5 293 29.5 c 0
 307 30.5 337 39.5 337 54.5 c 0
 337 56.5 336 58.5 335 60.5 c 2
 263 160 l 1
 200 72.5 l 2
 194.5 65 193 58.5 193 53.5 c 0
 193 34.5 230.5 33 252.5 29.5 c 0
 254.5 29.5 255 19.5 255 13 c 1
 255 6 253 -1.5 251 -3.5 c 1
 208.5 -1 184.5 3 142 3 c 1
 99 3 74.5 -1 31.5 -3.5 c 1
 30.5 0.5 29.5 6.5 29.5 13 c 1
 29.5 19.5 31.5 29.5 33.5 29.5 c 0
 65.5 34.5 103.5 45.5 121 68 c 2
 228.5 198.5 l 1
 229.5 201 230 203.5 230 205.5 c 1
 230 208.5 228.5 211 227 213 c 1
 111.5 369 l 2
 96 390 56.5 405 36.5 405 c 0
 34.5 405 32.5 419 32.5 422.5 c 1
EndSplineSet
Substitution2: "'smcp' Lowercase to Small Capitals in Latin lookup 0 subtable" x.sc
EndChar

StartChar: y
Encoding: 121 121 89
Width: 524
Flags: W
HStem: -222.5 85.5<54.9608 154.645> 405.5 33<6.05933 58.6925 197.427 250.462 298.517 355.984 454.428 511.496>
LayerCount: 2
Fore
SplineSet
134 432 m 0
 172 432 208 436.5 248 438.5 c 1
 249 435.5 250.5 425.5 250.5 420.5 c 0
 250.5 414.5 249.5 405.5 246.5 405.5 c 0
 236.5 405.5 193.5 395 192 382 c 1
 192 380 192.5 376.5 192.5 376.5 c 2
 193.5 362.5 219.5 300 285 148.5 c 1
 299.5 180 346.5 307 360 339 c 1
 365 352 366.5 362.5 366.5 369.5 c 0
 366.5 384.5 348 405.5 302.5 405.5 c 0
 300.5 405.5 298.5 415 298.5 421 c 0
 298.5 427 300 436 301.5 438.5 c 1
 342.5 436.5 370.5 432 411.5 432 c 0
 449.5 432 468.5 436.5 508.5 438.5 c 1
 510 435 511.5 429.5 511.5 422.5 c 0
 511.5 416.5 510.5 405.5 507.5 405.5 c 0
 499.5 405.5 446 397.5 433 366.5 c 2
 250.5 -76.5 l 2
 194.572 -207.026 133 -222.5 101 -222.5 c 0
 64 -222.5 47 -196.5 47 -176.5 c 1
 47 -157.5 55.5 -144 65.5 -137 c 1
 132.5 -137 180.048 -112.846 203 -55 c 0
 215.092 -24.7725 219.5 -15 230 13 c 1
 84 353 l 2
 82.5 356.5 76 371.5 71.5 376 c 0
 57.5 398.5 22 405.5 10 405.5 c 0
 8 405.5 6 413.5 6 419.5 c 0
 6 425.5 7 436.5 9 438.5 c 1
 50 436.5 93 432 134 432 c 0
EndSplineSet
Substitution2: "'smcp' Lowercase to Small Capitals in Latin lookup 0 subtable" y.sc
EndChar

StartChar: z
Encoding: 122 122 90
Width: 431
Flags: HW
LayerCount: 2
Fore
SplineSet
158.5 54 m 0
 158.5 49 168.5 47 170.5 47 c 2
 267 47 l 2
 328 47 353 82.5 367 125 c 0
 369 131.5 379.5 135 384.5 135 c 0
 393.5 135 401.5 131.5 404.5 127 c 1
 385.5 0 l 1
 46 0 l 1
 46 0 26 12 26 23 c 0
 26 24 26 26 27 27 c 2
 257.5 376.5 l 1
 152.5 377.5 l 2
 95.5 378 79 324 71 306 c 0
 69 302 56.5 300 46.5 300 c 0
 40.5 300 35 300.5 35 302.5 c 0
 35 316.5 48 377 51 430 c 1
 51 430 110 424 146 424 c 2
 268 424 l 2
 322 424 352.5 427 393.5 432 c 1
 398.5 424 396.5 413 396.5 408 c 1
 165.5 68 l 2
 160.5 61 158.5 57 158.5 54 c 0
EndSplineSet
Substitution2: "'smcp' Lowercase to Small Capitals in Latin lookup 0 subtable" z.sc
EndChar

StartChar: braceleft
Encoding: 123 123 91
Width: 290
Flags: W
HStem: -125 31<223.693 267.594> 719 31<223.562 267.692>
VStem: 82 86<-25.4355 115.774 507.285 661.475> 114 88<119.535 266.339 356.283 504.642>
LayerCount: 2
Fore
SplineSet
26 292 m 1xd0
 24 296 22 303 22 310 c 0
 22 316 23 323 26 328 c 1
 70 339 114 353 114 406 c 0xd0
 114 458 80 513 80 574 c 0
 80 688 179 750 264 750 c 0
 267 750 268 744 268 740 c 0
 268 732 266 720 260 719 c 0
 229 717 168 678 168 613 c 0xe0
 168 540 202 512 202 428 c 0
 202 363 156 308 120 308 c 1
 156 308 202 257 202 192 c 0xd0
 202 108 168 91 168 18 c 0
 168 -47 229 -92 260 -94 c 0
 266 -95 268 -108 268 -116 c 0
 268 -120 267 -125 264 -125 c 0
 179 -125 82 -48 82 56 c 0xe0
 82 115 114 167 114 219 c 0
 114 272 68 279 26 292 c 1xd0
EndSplineSet
Validated: 1
EndChar

StartChar: bar
Encoding: 124 124 92
Width: 145
Flags: W
VStem: 35 76<-114.139 764.903>
LayerCount: 2
Fore
SplineSet
111 -106 m 1
 111 -113 43 -122 41 -122 c 0
 34 -122 35 -119 35 -115 c 2
 35 757 l 1
 35 757 34 763 40 765 c 0
 57 770 99 772 102 772 c 0
 111 772 110 766 110 766 c 1
 111 -106 l 1
EndSplineSet
Validated: 1
EndChar

StartChar: braceright
Encoding: 125 125 93
Width: 289
Flags: W
HStem: -125 31<21.5625 65.3725> 719 31<21.4339 68.6339>
VStem: 87 89<119.535 266.339 356.283 504.642> 121 87<-25.4355 115.774 505.953 661.475>
LayerCount: 2
Fore
SplineSet
264 292 m 1xe0
 222 279 176 272 176 219 c 0xe0
 176 167 208 115 208 56 c 0
 208 -48 110 -125 25 -125 c 0
 22 -125 21 -120 21 -116 c 0
 21 -108 24 -95 30 -94 c 0
 61 -92 121 -47 121 18 c 0xd0
 121 91 87 108 87 192 c 0xe0
 87 257 134 308 170 308 c 1
 134 308 88 363 88 428 c 0
 88 512 121 540 121 613 c 0xd0
 121 678 61 717 30 719 c 0
 24 720 21 732 21 740 c 0
 21 744 22 750 25 750 c 0
 110 750 210 688 210 574 c 0
 210 513 176 458 176 406 c 0
 176 353 219 339 263 328 c 1
 266 323 267 316 267 310 c 0
 267 303 266 296 264 292 c 1xe0
EndSplineSet
Validated: 1
EndChar

StartChar: asciitilde
Encoding: 126 126 94
Width: 520
Flags: W
HStem: 248 56<286.532 446.798> 300 56<75.9836 235.981>
LayerCount: 2
Fore
SplineSet
37 256 m 1x40
 31 259 28 270 28 278 c 0
 28 293 40 310 52 318 c 0
 84 341 114 356 158 356 c 0x40
 252 356 300 304 394 304 c 0
 433 304 455 325 484 348 c 1
 490 345 493 334 493 326 c 0
 493 311 482 295 470 286 c 0
 436 260 409 248 365 248 c 0x80
 270 248 223 300 128 300 c 0
 89 300 66 279 37 256 c 1x40
EndSplineSet
Validated: 1
EndChar

StartChar: exclamdown
Encoding: 161 161 96
Width: 179
Flags: W
HStem: 304 134<43.0038 137.565>
VStem: 25 130<321.303 419.384> 35 112<-218.705 72.0039>
LayerCount: 2
Fore
SplineSet
91 -231 m 0xa0
 57 -231 35 -202 35 -166 c 0
 35 -126 58 64 71 228 c 0
 73 244 77 252 89 256 c 0
 100 258 110 246 112 230 c 0
 128 32 147 -126 147 -166 c 0
 147 -204 123 -231 91 -231 c 0xa0
25 370 m 0xc0
 25 408 57 438 91 438 c 0
 127 438 155 406 155 370 c 0
 155 334 126 304 89 304 c 0
 54 304 25 333 25 370 c 0xc0
EndSplineSet
Validated: 33
EndChar

StartChar: cent
Encoding: 162 162 97
Width: 463
Flags: HW
LayerCount: 2
Fore
SplineSet
277 474 m 17
 285 474 314 473 314 466 c 9
 231 -45 l 17
 222 -45 194 -43 194 -36 c 9
 277 474 l 17
259.5 441 m 0
 337.5 441 397.5 409.5 413.5 384.5 c 1
 413.5 336.5 398.5 307 368.5 307 c 0
 346 307 333.406 324.005 319.5 348 c 0
 303 374.5 286 396 246 396 c 0
 188 396 152 333 152 243.5 c 0
 152 115.5 211 62.5 285 62.5 c 0
 357.5 62.5 397 101 412 110.5 c 1
 415 109.5 419.5 100.5 419.5 94 c 1
 419.5 88 417.5 79 414.5 75 c 0
 398 51 336.5 -7.5 255 -7.5 c 0
 136 -7.5 43 81.5 43 218.5 c 0
 43 335 134 441 259.5 441 c 0
EndSplineSet
EndChar

StartChar: sterling
Encoding: 163 163 98
Width: 482
Flags: HW
LayerCount: 2
Fore
SplineSet
54 327 m 1
 83 327 312.5 327 326.5 327 c 0
 330.5 327 331.5 322 331.5 317 c 3
 331.5 311 327.5 291.5 316.5 284.5 c 1
 287.5 284.5 67 284.5 53 284.5 c 0
 49 284.5 48 292.5 48 297.5 c 3
 48 303.5 48 318 54 327 c 1
286 638.5 m 1
 330.5 638.5 370.5 623 386.5 599 c 1
 386.5 573 380.5 527 345.5 527 c 1
 301.5 527 298.5 591.5 254 591.5 c 1
 194.5 591.5 180 535 180 464 c 1
 180 417.5 199.5 310 199.5 259 c 1
 199.5 190 184.5 137 156.5 93.5 c 1
 174.5 101 192.5 102.5 218 102.5 c 1
 272 102.5 330 71.5 365 71.5 c 0
 406 71.5 422 113 440 142 c 1
 447 142 458.5 132.5 458.5 122 c 1
 458.5 117.5 457.73 112.973 457 111 c 0
 445.5 73.5 410.5 -8 339.5 -8 c 1
 274.5 -8 203 27.5 153 27.5 c 1
 115.5 27.5 88.5 3.5 72 -8.5 c 1
 53.5 -6 46 9 46 15 c 1
 59.4234 38.1352 78 58 95.5 82.5 c 1
 110.373 115.798 109.5 190.163 109.5 233.5 c 1
 109.5 272.5 90.5 378.5 90.5 431 c 1
 90.5 555 175 638.5 286 638.5 c 1
EndSplineSet
EndChar

StartChar: currency
Encoding: 164 164 99
Width: 468
Flags: W
HStem: 120 38<193.869 288.843> 458 39<178.586 274.525>
VStem: 45 96<216.962 396.386> 327 96<219.91 394.759>
LayerCount: 2
Fore
SplineSet
243 158 m 1
 299 158 327 223 327 286 c 1
 327 370 294 458 224 458 c 1
 168 458 141 390 141 326 c 1
 141 243 175 158 243 158 c 1
347 458 m 1
 402 510 l 2
 410 518 439 488 445 464 c 1
 390 413 l 1
 410 383 423 346 423 308 c 0
 423 266 409 226 385 194 c 1
 435 142 l 2
 443 134 413 105 389 99 c 1
 339 152 l 1
 309 132 274 120 234 120 c 0
 190 120 150 134 118 158 c 1
 65 109 l 2
 57 101 29 131 23 155 c 1
 75 204 l 1
 55 234 45 270 45 308 c 0
 45 352 60 392 84 424 c 1
 33 478 l 2
 25 486 55 514 79 520 c 1
 130 466 l 1
 160 486 196 497 234 497 c 0
 277 497 315 482 347 458 c 1
EndSplineSet
Validated: 33
EndChar

StartChar: yen
Encoding: 165 165 100
Width: 673
Flags: W
HStem: -3.5 32<191.023 249.995 394.139 449.997> 135.5 41.5<180.476 265.984 378.025 463.146> 215 41.5<180.476 266 378 463.146> 610 32<24.6728 81.1881 235.752 289.661 406.266 469.449 575.811 643.49> 610 24<22.5392 73.5535>
VStem: 266 112<41.2322 135.5 177 215 256.5 323.483>
LayerCount: 2
Fore
SplineSet
154.5 636 m 0xec
 203 636 249 640 288.5 642 c 1
 290.5 636 291.5 610 286.5 610 c 0
 272.5 610 231.5 603.5 231 583.5 c 0
 231 576.5 235.177 566.76 240 558 c 2
 344.5 366.5 l 1
 349.5 361.5 352.476 365.517 354.5 368.5 c 0
 397 432 475 556.5 475 583.5 c 0
 475 596.5 451 610 409.5 610 c 0
 404.5 610 404 637 409 642 c 1
 442 640 479 636 515.5 636 c 0
 566.5 636 607 640 641 642 c 1
 642 639 643.5 630.5 643.5 625.5 c 0
 643.5 619.5 642.5 610.5 639.5 610.5 c 0
 626 610.5 571.5 600.5 554 578 c 1
 531.5 545 378 303 378 283 c 2
 378 256.5 l 1
 378 256.5 451.5 256.5 458.5 256.5 c 1
 462.5 256.5 463.5 249 463.5 244 c 1
 463.5 235.5 462.5 223 457.5 215 c 1
 443 215 378 215 378 215 c 1
 378 177 l 1
 378 177 451.5 177 458.5 177 c 1
 462.5 177 463.5 169.5 463.5 164.5 c 1
 463.5 156 462.5 143.5 457.5 135.5 c 1
 443 135.5 378.025 135.5 378.025 135.5 c 1
 378.16 108.034 378.913 77.4059 385.5 52 c 0
 388.5 41 438 28.5 446 28.5 c 0
 449 28.5 450 19 450 13 c 0
 450 7.5 449 -0.5 448 -3.5 c 1
 408.5 -1.5 367.5 3 324.5 3 c 0
 279.5 3 240 -1.5 195 -3.5 c 1
 193 -1.5 191 5.5 191 11 c 0
 191 17.5 192 28.5 194.5 28.5 c 0
 206.5 28.5 253.5 40 258.5 52 c 1
 264.212 73.8948 265.881 109.826 265.984 135.5 c 1
 265.984 135.5 192 135.5 185 135.5 c 1
 181 135.5 180 143.5 180 148.5 c 1
 180 154.5 181 167 186 177 c 1
 200.5 177 266 177 266 177 c 1
 266 215 l 1
 266 215 192 215 185 215 c 1
 181 215 180 223 180 228 c 1
 180 234 181 246.5 186 256.5 c 1
 200.5 256.5 266 256.5 266 256.5 c 1
 266 258 266 278.5 265.5 279.5 c 1
 264 293.5 194.5 414 132.5 524.5 c 1
 115.113 556.884 101.5 576.5 84 592 c 0
 70.1235 603.426 37.5 610 25.5 610 c 0xf4
 22 610 21 628.5 23.5 634 c 1
 48 636 106 636 154.5 636 c 0xec
EndSplineSet
EndChar

StartChar: brokenbar
Encoding: 166 166 101
Width: 143
Flags: W
VStem: 34 76<-114.139 244.903 405.861 764.903>
LayerCount: 2
Back
SplineSet
182 -106 m 5
 182 -113 114 -122 112 -122 c 4
 105 -122 106 -119 106 -115 c 6
 106 757 l 5
 106 757 105 763 111 765 c 4
 128 770 170 772 173 772 c 4
 182 772 181 766 181 766 c 5
 182 -106 l 5
EndSplineSet
Fore
SplineSet
110 414 m 1
 110 407 42 398 40 398 c 0
 33 398 34 401 34 405 c 2
 34 757 l 1
 34 757 33 763 39 765 c 0
 56 770 98 772 101 772 c 0
 110 772 109 766 109 766 c 1
 110 414 l 1
110 -106 m 1
 110 -113 42 -122 40 -122 c 0
 33 -122 34 -119 34 -115 c 2
 34 237 l 1
 34 237 33 243 39 245 c 0
 56 250 98 252 101 252 c 0
 110 252 109 246 109 246 c 1
 110 -106 l 1
EndSplineSet
Validated: 1
EndChar

StartChar: section
Encoding: 167 167 102
Width: 394
Flags: W
HStem: -41 49<153.48 253.472> 602 49<138.717 239.032>
VStem: 25 58<320.901 425.329> 74 55<494.134 591.531> 263 55<18.6764 115.972> 311 57<192.088 285.349>
LayerCount: 2
Fore
SplineSet
368 276 m 0xd4
 368 208 328 160 305 144 c 1
 310 133 318 111 318 90 c 0
 318 -16 226 -41 169 -41 c 0
 119 -41 86 -21 76 -6 c 1
 76 -2 75 6 75 10 c 0
 75 49 94 58 107 58 c 0
 141 58 156 8 201 8 c 0
 237 8 263 28 263 60 c 0
 263 183 25 156 25 338 c 0xe8
 25 407 54 443 86 466 c 1
 79 478 74 500 74 518 c 0
 74 608 145 651 223 651 c 0
 273 651 305 629 315 614 c 1
 315 610 317 602 317 598 c 0
 317 559 301 550 283 550 c 0
 253 550 237 602 192 602 c 0
 164 602 129 590 129 548 c 0
 129 429 368 456 368 276 c 0xd4
289 179 m 1
 301 191 311 202 311 225 c 0xe4
 311 333 157 338 103 430 c 1
 88 418 83 398 83 382 c 0
 83 271 232 276 289 179 c 1
EndSplineSet
Validated: 1
EndChar

StartChar: dieresis
Encoding: 168 168 103
Width: 366
Flags: W
HStem: 456 117<40.2549 130.338 242.255 332.338>
VStem: 27 117<469.255 559.338> 229 117<469.255 559.338>
LayerCount: 2
Fore
SplineSet
229 514 m 0
 229 546 255 573 287 573 c 0
 319 573 346 546 346 514 c 0
 346 482 319 456 287 456 c 0
 255 456 229 482 229 514 c 0
27 514 m 0
 27 546 53 573 85 573 c 0
 117 573 144 546 144 514 c 0
 144 482 117 456 85 456 c 0
 53 456 27 482 27 514 c 0
EndSplineSet
Validated: 1
EndChar

StartChar: copyright
Encoding: 169 169 104
Width: 600
Flags: W
HStem: 69 38<210.817 390.158> 197 31<273.14 378.928> 450 32<263.196 366.575> 577 38<210.817 390.158>
VStem: 27 38<252.395 431.605> 161 64<269.51 415.198> 395 22<396.037 418.427> 536 38<252.395 431.605>
LayerCount: 2
Fore
SplineSet
65 342 m 0
 65 212 171 107 301 107 c 0
 431 107 536 212 536 342 c 0
 536 472 431 577 301 577 c 0
 171 577 65 472 65 342 c 0
27 342 m 0
 27 493 149 615 300 615 c 0
 451 615 574 493 574 342 c 0
 574 191 451 69 300 69 c 0
 149 69 27 191 27 342 c 0
419 272 m 1
 419 268 408 220 399 216 c 0
 371 202 339 197 299 197 c 0
 221 197 161 260 161 336 c 0
 161 415 219 482 301 482 c 0
 330 482 374 476 405 466 c 1
 407 466 417 406 417 402 c 0
 417 398 410 396 405 396 c 3
 401 396 397 397 395 398 c 1
 391 412 372 450 307 450 c 0
 256 450 225 400 225 346 c 0
 225 276 267 228 319 228 c 0
 348 228 369 234 381 245 c 0
 393 257 399 276 401 276 c 3
 404 276 417 276 419 272 c 1
EndSplineSet
Validated: 1
EndChar

StartChar: ordfeminine
Encoding: 170 170 105
Width: 330
Flags: W
HStem: 248 45<79 169.78 230 297.816> 524 32<110.872 174.448>
VStem: 27 74<296.615 369.612 454.208 507.241> 184 71<298.022 393 424.05 518.653>
LayerCount: 2
Fore
SplineSet
184 325 m 2
 184 393 l 1
 153 381 101 374 101 336 c 0
 101 306 119 293 139 293 c 0
 164 293 184 309 184 325 c 2
255 322 m 2
 255 304 260 290 278 290 c 0
 292 290 299 300 301 300 c 0
 303 300 305 296 305 294 c 1
 305 288 302 278 300 272 c 1
 289 264 265 250 241 250 c 0
 219 250 197 270 191 286 c 1
 187 284 152 248 104 248 c 0
 54 248 27 280 27 324 c 0
 27 390 125 406 178 424 c 0
 182 425 184 430 184 435 c 2
 184 476 l 2
 184 506 167 524 145 524 c 0
 120 524 99 505 99 472 c 0
 99 458 78 452 62 452 c 0
 44 452 32 460 32 474 c 0
 32 510 100 556 164 556 c 0
 220 556 255 533 255 460 c 2
 255 322 l 2
EndSplineSet
Validated: 1
EndChar

StartChar: guillemotleft
Encoding: 171 171 106
Width: 470
Flags: W
LayerCount: 2
Fore
SplineSet
299 248 m 1
 308 240 364 181 379 167 c 1
 433 115 446 104 446 94 c 0
 446 82 423 75 417 73 c 1
 416 75 358 132 211 227 c 1
 206 229 204 235 204 241 c 0
 204 251 205 260 212 268 c 1
 343 347 415 421 418 423 c 1
 432 419 447 409 447 401 c 0
 447 393 435 381 379 328 c 0
 353 302 317 266 299 248 c 1
120 248 m 1
 129 240 184 181 199 167 c 1
 253 115 267 104 267 94 c 0
 267 82 244 75 238 73 c 1
 237 75 179 132 32 227 c 1
 27 229 25 235 25 241 c 0
 25 251 26 260 33 268 c 1
 164 347 236 421 239 423 c 1
 253 419 268 409 268 401 c 0
 268 393 257 381 201 328 c 0
 175 302 138 266 120 248 c 1
EndSplineSet
Validated: 1
EndChar

StartChar: logicalnot
Encoding: 172 172 107
Width: 535
Flags: W
HStem: 360 64<32.7461 437>
VStem: 437 64<159.773 359.996>
LayerCount: 2
Fore
SplineSet
28 370 m 1
 28 370 33 424 43 424 c 0
 191 424 341 424 489 424 c 0
 495 424 501 422 501 412 c 2
 501 169 l 1
 500 168 498 161 447 154 c 1
 443 154 l 2
 433 154 437 161 437 161 c 1
 437 350 l 2
 437 354 432 360 425 360 c 2
 34 360 l 1
 34 360 28 360 28 370 c 1
EndSplineSet
Validated: 1
EndChar

StartChar: registered
Encoding: 174 174 108
Width: 599
Flags: W
HStem: 131 38<210.817 390.158> 258 13<172 195.641 271.906 295.086 433.464 454.963> 389 21<264.516 276.906> 522 23<265.001 319.897> 532 14<172.001 196.83> 639 38<210.817 390.158>
VStem: 27 38<314.395 493.605> 203 61<281.574 389 410.099 521.525> 334 59<415.212 517.051> 536 38<314.395 493.605>
LayerCount: 2
Fore
SplineSet
264 321 m 1xf7c0
 264 321 265 293 268 281 c 0
 269 276 290 271 293 271 c 0
 295 271 296 261 294 258 c 1
 277 259 252 261 233 261 c 0
 213 261 193 259 173 258 c 1
 172 259 172 261 172 264 c 0
 172 267 172 271 173 271 c 0
 178 271 198 276 200 281 c 1
 203 291 203 310 203 318 c 2
 203 486 l 2
 203 494 203 512 200 522 c 1xf7c0
 198 527 178 532 173 532 c 0
 172 532 172 535 172 538 c 0
 172 541 172 545 173 546 c 1xefc0
 183 546 222 542 233 542 c 1
 259 542 268 545 294 545 c 0
 329 545 393 532 393 471 c 0
 393 438 376 408 349 397 c 0
 347 396 346 392 347 390 c 0
 357 364 380 328 407 299 c 0
 425 279 437 271 453 271 c 1
 454 269 455 266 455 264 c 0
 455 261 456 261 454 258 c 1
 451 257 445 257 442 257 c 0
 380 257 346 292 323 324 c 0
 297 360 288 381 277 388 c 0
 275 390 273 389 271 389 c 0
 268 389 264 389 264 382 c 2
 264 321 l 1xf7c0
296 410 m 1
 313 410 334 429 334 464 c 0
 334 505 315 522 295 522 c 0
 285 522 274 522 268 520 c 0
 266 520 265 518 265 516 c 0
 264 504 264 503 264 476 c 2
 264 425 l 2
 264 410 275 410 297 410 c 2
 296 410 l 1
65 404 m 0
 65 274 171 169 301 169 c 0
 431 169 536 274 536 404 c 0
 536 534 431 639 301 639 c 0
 171 639 65 534 65 404 c 0
27 404 m 0
 27 555 149 677 300 677 c 0
 451 677 574 555 574 404 c 0
 574 253 451 131 300 131 c 0
 149 131 27 253 27 404 c 0
EndSplineSet
Validated: 5
EndChar

StartChar: macron
Encoding: 175 175 109
Width: 384
Flags: W
HStem: 532 66<71.9742 307.904>
VStem: 68 248<539.852 598>
LayerCount: 2
Fore
SplineSet
68 541 m 0
 68 543 71 598 82 598 c 2
 311 598 l 2
 313 598 316 597 316 591 c 0
 316 586 313 557 308 539 c 0
 306 533 301 532 301 532 c 1
 74 532 l 1
 74 532 68 531 68 541 c 0
EndSplineSet
Validated: 1
EndChar

StartChar: degree
Encoding: 176 176 110
Width: 234
Flags: W
HStem: 437 41<73.7643 159.854> 593 41<73.7643 159.854>
VStem: 18 41<492.764 578.854> 174 41<492.764 578.854>
LayerCount: 2
Fore
SplineSet
59 536 m 0
 59 504 85 478 117 478 c 0
 149 478 174 504 174 536 c 0
 174 568 149 593 117 593 c 0
 85 593 59 568 59 536 c 0
18 536 m 0
 18 590 63 634 117 634 c 0
 171 634 215 590 215 536 c 0
 215 482 171 437 117 437 c 0
 63 437 18 482 18 536 c 0
EndSplineSet
Validated: 1
EndChar

StartChar: plusminus
Encoding: 177 177 111
Width: 532
Flags: W
HStem: 4 64<35.0959 495.904> 309 64<35.0959 233.999 298.001 495.904>
VStem: 234 64<107.7 308.998 373 571.904>
LayerCount: 2
Fore
SplineSet
489 4 m 1
 33 4 l 1
 33 4 27 4 27 14 c 0
 27 18 28 39 35 63 c 0
 37 69 42 68 42 68 c 1
 498 68 l 2
 502 68 506 69 506 62 c 0
 506 53 502 32 496 10 c 0
 494 4 489 4 489 4 c 1
298 306 m 2
 298 118 l 1
 298 118 291 108 246 102 c 0
 243 102 242 101 240 101 c 0
 234 101 234 105 234 109 c 2
 234 304 l 2
 234 306 233 309 228 309 c 2
 33 309 l 1
 33 309 27 309 27 319 c 0
 27 323 28 344 35 368 c 0
 37 374 42 373 42 373 c 1
 229 373 l 2
 232 373 234 377 234 379 c 2
 234 565 l 1
 234 565 233 570 239 572 c 0
 263 579 284 580 288 580 c 0
 298 580 298 574 298 574 c 1
 298 378 l 2
 298 375 299 373 302 373 c 2
 498 373 l 2
 502 373 506 374 506 367 c 0
 506 358 502 337 496 315 c 0
 494 309 489 309 489 309 c 1
 302 309 l 2
 299 309 298 308 298 306 c 2
EndSplineSet
Validated: 1
EndChar

StartChar: uni00B2
Encoding: 178 178 112
Width: 328
Flags: W
HStem: 254 60<105.908 273.192> 590 56<91.1261 178.485>
VStem: 192 82<466.571 576.842> 281 23<330.655 357.509>
LayerCount: 2
Fore
SplineSet
134 590 m 0
 100 590 71 557 59 546 c 1
 53 544 39 564 39 571 c 3
 39 574 39 576 40 578 c 0
 57 604 108 646 164 646 c 0
 227 646 274 600 274 538 c 0
 274 449 176 375 106 320 c 0
 104 318 105 314 108 314 c 2
 233 314 l 2
 273 314 272 338 281 355 c 0
 282 358 283 358 287 358 c 0
 290 358 301 357 304 353 c 1
 295 323 287 284 280 254 c 1
 166 254 l 1
 166 254 40 254 38 254 c 1
 33 258 26 266 26 277 c 1
 26 280 27 284 28 288 c 1
 98 361 192 463 192 530 c 0
 192 555 173 590 134 590 c 0
EndSplineSet
Validated: 33
EndChar

StartChar: uni00B3
Encoding: 179 179 113
Width: 294
Flags: W
HStem: 246 36<89.7066 174.174> 439 30<86.2109 130.262> 596 50<87.6917 170.734>
VStem: 176 74<516.525 590.218> 202 66<304.298 426.511>
LayerCount: 2
Fore
SplineSet
166 646 m 0xf0
 196 646 250 624 250 572 c 0xf0
 250 526 210 496 180 478 c 1
 206 478 268 442 268 374 c 4
 268 283 189 246 106 246 c 0
 66 246 37 260 28 270 c 1
 27 272 26 279 26 282 c 1
 26 301 42 316 58 316 c 0
 86 316 94 282 126 282 c 0
 166 282 202 310 202 368 c 0xe8
 202 421 175 442 131 442 c 0
 115 442 116 441 94 439 c 1
 90 443 86 451 86 456 c 0
 86 460 88 467 92 469 c 1
 139 479 176 503 176 554 c 0
 176 581 153 596 132 596 c 0
 94 596 72 558 62 558 c 0
 54 558 44 582 46 586 c 0
 68 618 116 646 166 646 c 0xf0
EndSplineSet
Validated: 33
EndChar

StartChar: acute
Encoding: 180 180 114
Width: 247
Flags: W
HStem: 524 163
VStem: 44 171
LayerCount: 2
Fore
SplineSet
215 660 m 4
 215 621 69 524 59 524 c 4
 52 524 44 534 44 540 c 4
 44 545 100 635 137 678 c 4
 142 683 157 687 171 687 c 4
 206 687 215 666 215 660 c 4
EndSplineSet
Validated: 1
EndChar

StartChar: uni00B5
Encoding: 181 181 115
Width: 513
Flags: HW
LayerCount: 2
Fore
SplineSet
179.5 -9 m 0
 137.5 -9 123.5 42 111.5 76 c 1
 113.5 51 111.5 -89 133.5 -207 c 1
 128.5 -215 111.5 -227 96.5 -227 c 0
 82 -227 35 -203 35 -190 c 0
 35 -172 44 100 56 204 c 1
 56 228 52 275 52 298 c 0
 52 311 52.5 384.5 52 421.5 c 1
 57 429.5 77.5 441.5 89.5 441.5 c 0
 99.5 441.5 148 417.5 148 404.5 c 0
 148 390.5 147 345 128 256 c 0
 127 250 122.5 223 122.5 223 c 0
 122.5 144 143.5 77 179.5 77 c 0
 246.5 77 279 157.5 294.5 227 c 1
 294.5 251 294.5 275 294.5 298 c 0
 294.5 311 295.5 383.5 294.5 421.5 c 1
 299.5 429.5 319.5 441.5 331.5 441.5 c 0
 341.5 441.5 396 417.5 396 404.5 c 0
 396 386.5 392 335 373 246 c 0
 372 240 368 223 368 223 c 1
 367 141 376 72.5 422 72.5 c 0
 448 72.5 474.5 94 481.5 103 c 1
 484.5 103 490 96.5 493 91.5 c 0
 495 87.5 496 79 496 76 c 0
 483 32 443 -4 403 -4 c 0
 355 -3 330.5 64 321.5 128 c 1
 291.5 58 249.5 -9 179.5 -9 c 0
EndSplineSet
EndChar

StartChar: paragraph
Encoding: 182 182 116
Width: 468
Flags: W
HStem: -4 30<157.823 209.829 387.891 442.861> 2 38<277.969 316.275> 277 375<121.921 222> 287 43<276.062 319.998> 623 25<380.958 435.812>
VStem: 26 250<372.93 555.169> 222 56<40.4072 276.872> 320 51<78.1487 286.999 346.903 603.643>
LayerCount: 2
Fore
SplineSet
276 274 m 2x55
 278 53 l 2x53
 278 44 289 40 299 40 c 0
 309 40 316 48 316 54 c 0
 319 88 320 177 320 283 c 0
 320 286 318 287 316 287 c 0
 312 287 301 284 284 282 c 0
 278 281 276 279 276 274 c 2x55
206 652 m 0xa5
 265 652 258 648 317 648 c 0
 384 648 434 654 434 654 c 1
 439 649 437 623 432 623 c 0
 420 623 379 616 374 604 c 0
 372 597 371 551 371 500 c 0
 371 439 372 368 372 349 c 0
 372 345 375 343 377 344 c 1
 386 345 420 353 420 353 c 1
 422 349 424 341 424 337 c 0
 424 327 417 316 404 310 c 1
 400 308 383 303 378 302 c 1
 376 301 373 299 373 297 c 0
 373 268 373 74 380 48 c 1
 385 36 427 26 439 26 c 0
 441 26 443 20 443 14 c 0
 443 8 441 -2 439 -4 c 1x8d
 376 -2 341 2 278 2 c 0x43
 232 2 199 -2 159 -4 c 1
 157 2 156 26 161 26 c 0
 169 26 214 37 217 48 c 0
 221 65 222 122 222 183 c 2
 222 270 l 2x83
 222 277 215 277 202 277 c 0
 87 277 26 374 26 464 c 0
 26 590 124 652 206 652 c 0xa5
278 597 m 2x13
 278 597 276 437 276 335 c 0x15
 276 332 279 330 284 330 c 0
 296 330 311 334 314 335 c 1
 317 336 320 338 320 342 c 0
 320 468 319 585 318 598 c 0
 318 602 308 609 298 609 c 0
 288 609 278 608 278 597 c 2x13
EndSplineSet
Validated: 1
EndChar

StartChar: periodcentered
Encoding: 183 183 117
Width: 220
Flags: W
HStem: 199 135<66.6156 163.975>
VStem: 48 134<217.21 316.243>
LayerCount: 2
Fore
SplineSet
182 267 m 0
 182 231 153 199 116 199 c 1
 78 199 48 231 48 267 c 0
 48 303 79 334 116 334 c 1
 152 334 182 303 182 267 c 0
EndSplineSet
Validated: 1
EndChar

StartChar: cedilla
Encoding: 184 184 118
Width: 443
Flags: W
HStem: -154 28<162.335 243.473> -64 37<208.234 247.669>
VStem: 250 44<-122.552 -64.8705>
LayerCount: 2
Fore
SplineSet
223 -28 m 1
 223 -28 241 -27 245 -27 c 1
 273 -27 294 -51 294 -77 c 0
 294 -124 254 -154 198 -154 c 0
 181 -154 164 -148 158 -142 c 1
 157 -138 155 -131 155 -126 c 0
 155 -119 162 -112 166 -112 c 0
 174 -112 190 -126 209 -126 c 0
 237 -126 250 -111 250 -95 c 0
 250 -76 237 -64 222 -64 c 0
 214 -64 204 -66 194 -70 c 0
 192 -70 180 -60 182 -56 c 0
 191 -41 204 -17 212 -3 c 1
 239 -3 l 1
 223 -28 l 1
EndSplineSet
Validated: 1
EndChar

StartChar: uni00B9
Encoding: 185 185 119
Width: 273
Flags: W
HStem: 252 28<35.5742 90.7417 193.304 246.931>
VStem: 100 83<294.561 562.254>
LayerCount: 2
Fore
SplineSet
37 548 m 1
 31 550 23 556 23 566 c 0
 23 568 22 574 24 575 c 0
 114 615 177 650 179 650 c 2
 180 650 l 2
 185 650 194 631 195 628 c 1
 193 622 183 585 183 546 c 2
 183 336 l 2
 183 316 186 306 193 294 c 0
 199 286 237 280 243 280 c 0
 245 280 247 270 247 264 c 0
 247 260 246 254 245 252 c 1
 213 253 177 256 145 256 c 0
 113 256 70 253 38 252 c 1
 34 255 34 280 38 280 c 0
 48 280 86 286 91 294 c 0
 96 304 100 315 100 326 c 1
 100 358 100 492 100 524 c 1
 100 560 92 564 84 564 c 0
 74 564 53 554 37 548 c 1
EndSplineSet
Validated: 1
EndChar

StartChar: ordmasculine
Encoding: 186 186 120
Width: 368
Flags: W
HStem: 247 30<152.119 228.285> 523 31<140.5 217.685>
VStem: 27 82<323.47 477.211> 259 83<321.759 478.256>
LayerCount: 2
Fore
SplineSet
177 523 m 1
 128 523 109 465 109 416 c 1
 109 353 130 277 193 277 c 1
 241 277 259 336 259 384 c 1
 259 447 240 523 177 523 c 1
185 554 m 0
 273 554 342 484 342 400 c 0
 342 316 273 247 185 247 c 0
 97 247 27 316 27 400 c 0
 27 485 97 554 185 554 c 0
EndSplineSet
Validated: 1
EndChar

StartChar: guillemotright
Encoding: 187 187 121
Width: 473
Flags: W
LayerCount: 2
Fore
SplineSet
173 248 m 5
 155 266 119 302 93 328 c 4
 37 381 25 393 25 401 c 4
 25 409 40 419 54 423 c 5
 57 421 129 347 260 268 c 5
 267 260 268 251 268 241 c 4
 268 235 266 229 261 227 c 5
 114 132 56 75 55 73 c 5
 49 75 26 82 26 94 c 4
 26 104 39 115 93 167 c 5
 108 181 164 240 173 248 c 5
352 248 m 5
 334 266 297 302 271 328 c 4
 215 381 204 393 204 401 c 4
 204 409 219 419 233 423 c 5
 236 421 308 347 439 268 c 5
 446 260 447 251 447 241 c 4
 447 235 445 229 440 227 c 5
 293 132 235 75 234 73 c 5
 228 75 205 82 205 94 c 4
 205 104 219 115 273 167 c 5
 288 181 343 240 352 248 c 5
EndSplineSet
Validated: 1
EndChar

StartChar: onequarter
Encoding: 188 188 122
Width: 680
Flags: W
HStem: -4 21G<565.5 593> 108 49<439.956 538.952 618.001 656.828> 252 28<34.5742 89.7417 192.304 245.931>
VStem: 99 83<294.561 562.254> 539 79<-3.43996 105.986 157.061 284>
LayerCount: 2
Fore
SplineSet
36 548 m 5
 30 550 22 556 22 566 c 4
 22 568 21 574 23 575 c 4
 113 615 176 650 178 650 c 6
 179 650 l 6
 184 650 193 631 194 628 c 5
 192 622 182 585 182 546 c 6
 182 336 l 6
 182 316 185 306 192 294 c 4
 198 286 236 280 242 280 c 4
 244 280 246 270 246 264 c 4
 246 260 245 254 244 252 c 5
 212 253 176 256 144 256 c 4
 112 256 69 253 37 252 c 5
 33 255 33 280 37 280 c 4
 47 280 85 286 90 294 c 4
 95 304 99 315 99 326 c 5
 99 358 99 492 99 524 c 5
 99 560 91 564 83 564 c 4
 73 564 52 554 36 548 c 5
580 -4 m 0
 551 -4 539 -1 539 4 c 2
 539 104 l 1
 538 107 536 108 534 108 c 2
 381 108 l 1
 375 112 370 122 370 132 c 1
 408 177 548 351 580 389 c 1
 584 394 593 398 601 398 c 0
 610 398 618 395 618 390 c 2
 618 160 l 2
 618 157 620 156 624 156 c 1
 646 156 l 2
 654 156 658 140 658 112 c 0
 658 108 652 106 652 106 c 1
 622 106 l 2
 620 106 618 104 618 101 c 2
 618 1 l 1
 616 -1 606 -4 580 -4 c 0
539 284 m 0
 539 285 495 231 494 230 c 0
 472 202 463 193 440 164 c 0
 439 162 442 157 444 157 c 2
 536 157 l 1
 538 157 539 157 539 159 c 1
 539 165 539 272 539 284 c 0
521 643 m 17
 522 645 524 646 527 646 c 27
 545 646 564 627 564 620 c 3
 564 619 563 618 563 617 c 25
 215 -14 l 18
 214 -15 212 -16 210 -16 c 27
 193 -16 174 4 174 8 c 3
 174 9 173 10 174 11 c 10
 521 643 l 17
EndSplineSet
Validated: 33
EndChar

StartChar: onehalf
Encoding: 189 189 123
Width: 705
Flags: W
HStem: 0 58<483.908 651.404> 252 28<34.5742 89.7417 192.304 245.931> 336 56<469.853 556.724>
VStem: 99 83<294.561 562.254> 570 82<212.571 322.842> 660 23<75.0938 103.509>
LayerCount: 2
Fore
SplineSet
513 336 m 0
 479 336 450 303 438 292 c 1
 432 290 418 310 418 317 c 3
 418 320 418 322 419 324 c 0
 436 350 486 392 542 392 c 0
 605 392 652 346 652 284 c 0
 652 195 554 121 484 66 c 0
 482 64 483 58 486 58 c 2
 612 58 l 2
 652 58 651 84 660 101 c 0
 661 104 662 104 666 104 c 0
 669 104 680 103 683 99 c 1
 674 69 665 30 658 0 c 1
 544 0 l 1
 544 0 419 0 417 0 c 1
 412 4 405 12 405 23 c 1
 405 26 406 30 407 34 c 1
 477 107 570 209 570 276 c 0
 570 301 552 336 513 336 c 0
36 548 m 1
 30 550 22 556 22 566 c 0
 22 568 21 574 23 575 c 0
 113 615 176 650 178 650 c 2
 179 650 l 2
 184 650 193 631 194 628 c 1
 192 622 182 585 182 546 c 2
 182 336 l 2
 182 316 185 306 192 294 c 0
 198 286 236 280 242 280 c 0
 244 280 246 270 246 264 c 0
 246 260 245 254 244 252 c 1
 212 253 176 256 144 256 c 0
 112 256 69 253 37 252 c 1
 33 255 33 280 37 280 c 0
 47 280 85 286 90 294 c 0
 95 304 99 315 99 326 c 1
 99 358 99 492 99 524 c 1
 99 560 91 564 83 564 c 0
 73 564 52 554 36 548 c 1
506 643 m 17
 507 645 509 646 512 646 c 27
 530 646 549 627 549 620 c 3
 549 619 548 618 548 617 c 25
 200 -14 l 18
 199 -15 197 -16 195 -16 c 27
 178 -16 159 4 159 8 c 3
 159 9 158 10 159 11 c 10
 506 643 l 17
EndSplineSet
Validated: 33
EndChar

StartChar: threequarters
Encoding: 190 190 124
Width: 691
Flags: W
HStem: -4 21G<576.5 604> 108 49<450.956 549.952 629.001 667.828> 246 36<85.7066 171.642> 439 30<83.1405 126.262> 596 50<84.9727 166.084>
VStem: 171 75<515.67 590.457> 199 78<314.155 427.2> 550 79<-3.43996 105.986 157.061 284>
LayerCount: 2
Back
SplineSet
601 617 m 1
 253 -14 l 1
 253 -14 251.334 -16 247.334 -16 c 0
 244.334 -16 225 -12 212 4 c 0
 208 8 211 12 211 12 c 1
 556 644 l 1
 556 644 557.333 647 561.333 647 c 0
 567.333 647 586 641 598 628 c 0
 603 623 601 617 601 617 c 1
601 617 m 1
 253 -14 l 1
 253 -14 253 -16 249 -16 c 0
 246 -16 228 -13 215 3 c 0
 211 7 214 10 214 10 c 1
 562 642 l 1
 562 642 562 645 566 645 c 0
 572 645 586 641 598 628 c 0
 603 623 601 617 601 617 c 1
598 628 m 0
 603 623 601 617 601 617 c 1
 253 -14 l 1
 253 -14 253 -16 249 -16 c 0
 246 -16 225 -12 212 4 c 0
 208 8 211 12 211 12 c 1
EndSplineSet
Fore
SplineSet
532 643 m 17xf9
 533 645 535 646 538 646 c 27
 556 646 575 627 575 620 c 3
 575 619 574 618 574 617 c 25
 226 -14 l 18
 225 -15 223 -16 221 -16 c 27
 204 -16 185 4 185 8 c 3
 185 9 184 10 185 11 c 10
 532 643 l 17xf9
163 646 m 0
 193 646 246 624 246 572 c 0xfd
 246 526 207 496 177 478 c 1
 203 478 277 452 277 384 c 0
 277 293 185 246 102 246 c 0
 62 246 33 260 24 270 c 1
 23 272 23 279 23 282 c 1
 23 301 38 316 54 316 c 0
 82 316 90 282 122 282 c 0
 162 282 199 310 199 368 c 0xfb
 199 421 171 442 127 442 c 0
 111 442 112 441 90 439 c 1
 86 443 83 451 83 456 c 0
 83 460 84 467 88 469 c 1
 135 479 171 503 171 554 c 0xfd
 171 581 149 596 128 596 c 0
 90 596 69 558 59 558 c 0
 51 558 41 582 43 586 c 0
 65 618 113 646 163 646 c 0
591 -4 m 4
 562 -4 550 -1 550 4 c 6
 550 104 l 5
 549 107 547 108 545 108 c 6
 392 108 l 5
 386 112 381 122 381 132 c 5
 419 177 559 351 591 389 c 5
 595 394 604 398 612 398 c 4
 621 398 629 395 629 390 c 6
 629 160 l 6
 629 157 631 156 635 156 c 5
 657 156 l 6
 665 156 669 140 669 112 c 4
 669 108 663 106 663 106 c 5
 633 106 l 6
 631 106 629 104 629 101 c 6
 629 1 l 5
 627 -1 617 -4 591 -4 c 4
550 284 m 4
 550 285 506 231 505 230 c 4
 483 202 474 193 451 164 c 4
 450 162 453 157 455 157 c 6
 547 157 l 5
 549 157 550 157 550 159 c 5
 550 165 550 272 550 284 c 4
EndSplineSet
Validated: 33
EndChar

StartChar: questiondown
Encoding: 191 191 125
Width: 325
Flags: W
HStem: -218 93<141.849 272.195> 303 135<186.025 283.384>
VStem: 23 67<-106.421 -8.44873> 168 134<320.757 419.79> 218 40<164.687 249.664>
LayerCount: 2
Fore
SplineSet
250 -218 m 27xe8
 136 -218 23 -148 23 -34 c 3
 23 58 67 95 133 128 c 0
 167 145 207 162 213 184 c 0
 218 200 213 230 218 239 c 0
 223 247 233 250 244 250 c 3
 254 250 258 198 258 164 c 3
 258 94 243 78 201 50 c 0
 169 28 90 4 90 -56 c 27
 90 -95 122 -125 161 -125 c 27
 192 -125 210 -115 241 -115 c 27
 272 -115 301 -137 301 -168 c 27
 301 -183 298 -196 295 -206 c 1
 282 -212 268 -218 250 -218 c 27xe8
168 370 m 0xf0
 168 406 197 438 234 438 c 1
 272 438 302 406 302 370 c 0
 302 334 271 303 234 303 c 1
 198 303 168 334 168 370 c 0xf0
EndSplineSet
Validated: 33
EndChar

StartChar: AE
Encoding: 198 198 132
Width: 914
Flags: W
HStem: -6 30<5.89163 60.4043 182.764 232.563 373.113 421.942> 0 47<565.604 793.818> 229 54<306.999 445.999> 304 50<559 722.461> 611 51<608.207 769.962> 611 43<563.594 717.24> 624 34<373.023 426.57>
VStem: 446 113<52.2134 226.997 285.55 303.098 354.476 499.999> 751 35<228.036 286.968 362.524 425.963> 859 42<121 169.577>
LayerCount: 2
Fore
SplineSet
446 496 m 2x31c0
 446 498 445 500 442 500 c 3
 439 500 436 498 434 494 c 0
 386 416 356 370 307 290 c 17
 307 290 306 286 308 286 c 0
 331 284 356 283 379 283 c 0
 410 283 400 284 431 286 c 0
 433 286 446 289 446 296 c 18
 446 496 l 2x31c0
425 584 m 2
 428 589 430 595 430 600 c 3
 430 601 429 603 428 605 c 0
 422 617 389 624 377 624 c 0
 375 624 373 633 373 640 c 0
 373 647 375 656 377 658 c 1xb3c0
 377 658 437 654 504 654 c 0x35c0
 597 654 718 662 827 662 c 1
 834 612 847 565 856 520 c 1
 853 517 842 515 835 515 c 0
 828 515 823 517 821 522 c 0
 797 587 746 611 693 611 c 2
 641 611 l 2
 600 611 567 610 565 598 c 0
 561 579 559 540 559 517 c 2
 559 360 l 2
 559 355 581 354 603 354 c 2
 655 354 l 2
 751 354 734 353 751 419 c 0
 752 424 760 426 767 426 c 0
 774 426 783 424 786 421 c 1
 786 232 l 1
 784 230 774 228 767 228 c 0
 760 228 753 231 751 236 c 0
 736 293 732 290 723 296 c 0
 712 303 669 304 631 304 c 0
 603 304 559 305 559 296 c 2
 559 141 l 2
 559 122 561 80 568 60 c 0
 572 50 594 47 636 47 c 2
 673 47 l 2
 711 47 763 53 792 68 c 0
 811 78 843 115 859 164 c 0
 860 168 866 170 873 170 c 0
 883 170 898 167 901 164 c 1
 882 110 854 39 847 -5 c 1
 738 -5 596 0 505 0 c 0x79c0
 443 0 377 -6 377 -6 c 1
 375 -4 373 4 373 12 c 0
 373 20 375 30 377 30 c 0
 389 30 435 38 439 50 c 1
 445 73 446 116 446 133 c 10
 446 223 l 17
 446 223 444 227 441 227 c 0
 409 229 409 229 384 229 c 0
 343 229 310 228 270 226 c 0
 268 226 263 223 263 222 c 1
 205 129 l 1
 187 99 175 79 172 64 c 0
 169 51 174 46 178 42 c 0
 190 31 227 25 235 25 c 0
 240 25 233 0 230 -6 c 1xb1c0
 190 -4 169 0 125 0 c 0x71c0
 79 0 51 -4 5 -6 c 1
 3 -4 3 4 4 10 c 0
 5 16 9 24 11 24 c 0xb1c0
 23 24 74 40 87 56 c 0
 111 84 131 116 142 134 c 2
 425 584 l 2
EndSplineSet
Validated: 33
EndChar

StartChar: Eth
Encoding: 208 208 142
Width: 718
Flags: HW
LayerCount: 2
Fore
SplineSet
54.5 350.5 m 5
 83.5 350.5 385.5 350.5 399.5 350.5 c 4
 403.5 350.5 405.5 343.5 405.5 338.5 c 7
 405.5 332.5 403.5 316.5 399.5 307.5 c 5
 370.5 307.5 67.5 307.5 53.5 307.5 c 4
 49.5 307.5 48.5 316.5 48.5 321.5 c 7
 48.5 327.5 48.5 341.5 54.5 350.5 c 5
167.5 657.5 m 0
 234.5 657.5 297.5 658.5 341.5 658.5 c 0
 572.5 658.5 686.5 496 686.5 336 c 0
 686.5 152 564.5 -3 340.5 -3 c 0
 296.5 -3 235 2 169 1 c 1
 107 1.5 35.5 -3.5 35.5 -3.5 c 1
 34.5 -2.5 32 3.5 32 12.5 c 0
 32 18.5 33.5 29.5 35.5 29.5 c 0
 47.5 29.5 96.5 39 103 52 c 1
 109.5 69.5 109.5 106 109.5 143 c 2
 109.5 521 l 2
 109.5 539 109 580 103 603 c 1
 98 615 47 628 35 628 c 0
 33 628 31 636 31 643 c 0
 31 650 32.5 659 34.5 661 c 1
 34.5 661 101 657.5 167.5 657.5 c 0
223 529.5 m 2
 223 137.5 l 2
 223 107.5 224.5 80 235 64.5 c 0
 248.5 51 340.5 48 356.5 48 c 0
 488 48 562.5 145 562.5 340 c 0
 562.5 478 492 608.5 349.5 608.5 c 2
 344.5 608.5 l 2
 320.5 608.5 247 607.5 236 592.5 c 0
 225 577.5 223 547.5 223 529.5 c 2
EndSplineSet
EndChar

StartChar: multiply
Encoding: 215 215 149
Width: 419
Flags: W
LayerCount: 2
Fore
SplineSet
161 244 m 1
 163 246 162 248 160 250 c 2
 28 382 l 1
 26 384 24 386 26 390 c 0
 32 404 52 429 62 432 c 0
 66 434 69 432 71 430 c 2
 206 295 l 2
 208 293 210 294 212 296 c 2
 348 430 l 1
 349 431 352 435 356 431 c 0
 362 429 385 404 391 388 c 0
 393 384 390 382 390 382 c 1
 258 250 l 2
 256 248 254 246 256 244 c 2
 390 112 l 1
 390 112 393 109 391 105 c 0
 385 91 363 61 359 59 c 0
 355 55 351 59 350 60 c 1
 212 198 l 2
 210 200 207 200 205 198 c 2
 66 58 l 1
 66 58 63 57 61 57 c 0
 57 57 52 60 48 66 c 0
 34 84 23 103 25 107 c 1
 25 109 161 244 161 244 c 1
EndSplineSet
Validated: 33
EndChar

StartChar: Oslash
Encoding: 216 216 150
Width: 698
Flags: W
HStem: -10 49.5<280.236 435.488> 618 49<257.639 417.871>
VStem: 26.5 127.5<210.656 450.308> 540 127.5<203.984 451.697>
LayerCount: 2
Fore
SplineSet
331.5 618 m 0
 208.5 618 154 484 154 350 c 0
 154 210.5 216 39.5 362.5 39.5 c 0
 483.5 39.5 540 174 540 309 c 0
 540 453.5 481.5 618 331.5 618 c 0
522.923 671.565 m 17
 531.308 669.068 559.699 656.288 556.5 650 c 9
 159 -15.5 l 17
 150.272 -12.4585 122.523 0.620605 125.79 6.99559 c 9
 522.923 671.565 l 17
346.5 667 m 0
 522.5 667 667.5 515 667.5 328 c 0
 667.5 141 522.5 -10 346.5 -10 c 0
 170.5 -10 26.5 141 26.5 328 c 0
 26.5 515 170.5 667 346.5 667 c 0
EndSplineSet
EndChar

StartChar: Thorn
Encoding: 222 222 156
Width: 564
Flags: W
HStem: -3.5 33<28.0173 91.8945 233.242 293.997> 134 47.5<241.698 352.948> 466 49.5<221.858 355.277> 629 33<29.0264 90.3479 232.881 294.999>
VStem: 105 113.5<42.4312 463.02 504.501 616.115> 398 122<247.724 419.755>
LayerCount: 2
Fore
SplineSet
164.5 656.5 m 0
 208.5 656.5 252.5 660 292.5 662 c 1
 293.5 659 295 650.5 295 645.5 c 0
 295 639.5 294 629 291 629 c 0
 283 629 229.5 617.5 226.5 606.5 c 0
 220.179 582.19 218.509 553.281 218.501 522.5 c 1
 218.529 518.103 218.5 512.064 218.5 510 c 0
 218.5 506.5 220.482 504.5 222.5 504.5 c 0
 227.5 504.5 257.5 515.5 304.5 515.5 c 1
 386.5 515.5 520 470.5 520 333.5 c 0
 520 243 441 134 311 134 c 0
 281.5 134 249.453 145.466 239.5 159 c 0
 235.5 164.5 233 192 239 191 c 1
 259 182.5 273.5 181.5 295 181.5 c 0
 360 181.5 398 243.5 398 320.5 c 0
 398 404.5 367.5 466 288.5 466 c 0
 264.5 466 242.406 465.302 230.5 460 c 0
 222.5 456.5 218.5 452 218.5 391 c 2
 218.5 391 218.5 141 218.5 140 c 1
 218.5 108.5 220 79 227 52 c 0
 230 41 282 29.5 290 29.5 c 0
 293 29.5 294 18.5 294 12.5 c 0
 294 7.5 293 -0.5 292 -3.5 c 1
 252 -1.5 208.5 3 164.5 3 c 0
 118.5 3 78 -1.5 32 -3.5 c 1
 30 -1.5 28 6 28 12 c 0
 28 18 29.5 29.5 31.5 29.5 c 0
 43.5 29.5 93 40 98 52 c 1
 104 75 105 118.5 105 136.5 c 2
 105 522.5 l 2
 105 540.5 104 588.5 97.5 606 c 1
 91.5 618 45 629 33 629 c 0
 31 629 29 638 29 644 c 0
 29 650 30 660 32 662 c 1
 78 660 118.5 656.5 164.5 656.5 c 0
EndSplineSet
EndChar

StartChar: germandbls
Encoding: 223 223 157
Width: 583
Flags: W
HStem: -8 44<384.855 452.165> -4 31<37.0058 93.5849 226.694 274.693> 369 52<49.4861 105.999> 651 43<244.608 358.49>
VStem: 106 103<39.885 368.996 421.002 567.982> 275 79<321.326 392.265> 391 99<490.176 620.82> 464 92<56.1926 153.592>
LayerCount: 2
Fore
SplineSet
490 563 m 0x7e
 490 441 354 437 354 369 c 0
 354 324 401 293 447 268 c 0
 493 244 556 199 556 134 c 0
 556 55 497 -8 421 -8 c 0
 360 -8 304 24 294 41 c 1
 294 74 303 106 330 106 c 0
 380 106 372 36 421 36 c 1
 451 36 464 78 464 103 c 1xbd
 464 203 275 194 275 330 c 0
 275 427 391 421 391 549 c 0
 391 613 357 651 294 651 c 0
 216 651 209 557 209 475 c 0
 209 343 210 137 210 137 c 2
 210 104 212 77 218 50 c 0
 220 40 264 27 272 27 c 0
 277 27 276 2 274 -4 c 1
 234 -2 198 3 158 3 c 0
 117 3 81 -2 40 -4 c 1
 38 -2 37 6 37 12 c 0
 37 18 39 24 41 24 c 0
 53 24 93 35 96 46 c 0
 104 77 105 100 105 135 c 2
 105 135 106 273 106 361 c 0
 106 364 104 369 101 369 c 2
 48 369 l 2
 46 369 45 371 45 375 c 0
 45 388 55 421 60 421 c 2
 101 421 l 2
 104 421 106 424 106 427 c 2
 106 445 l 2
 106 617 200 694 310 694 c 0
 404 694 490 652 490 563 c 0x7e
EndSplineSet
Validated: 1
EndChar

StartChar: aacute
Encoding: 225 225 159
Width: 452
Flags: HW
HStem: -7 64<102.5 218.34 322.5 401.864> 396 47<151.022 242.273> 506 162
VStem: 25 107<67.8853 159.237> 33 98<295.932 370.482> 166 170 257 103<70.7972 206 250.097 382.101>
LayerCount: 2
Back
Refer: 187 768 S 0.888889 0 0 0.906717 51 15 2
Fore
SplineSet
744 718 m 31,0,0
EndSplineSet
Refer: 188 769 N 1 0 0 1 130 -18 2
Refer: 65 97 N 1 0 0 1 0 0 3
EndChar

StartChar: eth
Encoding: 240 240 171
Width: 517
Flags: W
HStem: -6.5 46.5<204.187 313.317> 395 47.5<187.929 306.247> 663 28.5565<81.248 110.506>
VStem: 28 114<123.282 307.799> 357 114.5<134.317 339.554>
LayerCount: 2
Fore
SplineSet
377.68 701.13 m 17
 382.948 695.109 401.267 672.608 396 668 c 9
 131.296 500.437 l 17
 125.369 507.21 108.462 529.616 113.729 534.224 c 9
 377.68 701.13 l 17
246.5 442.5 m 0
 275.5 442.5 317 435.5 329.5 425.5 c 1
 302.5 522.5 225.5 610 77 663 c 1
 77 670.5 80 691.548 89 691.557 c 1
 253 672.057 471.5 533.148 471.5 265.5 c 1
 471.5 83.5 369 -6.5 257 -6.5 c 0
 131 -6.5 28 94.5 28 216 c 0
 28 323 118.993 442.5 246.5 442.5 c 0
241 395 m 0
 174 395 142 320 142 233.5 c 0
 142 135.5 183 40 258 40 c 0
 326 40 357 112.5 357 210.5 c 0
 356.5 265.186 351.747 308.556 343 328 c 0
 322.643 372.143 280.385 395 241 395 c 0
EndSplineSet
EndChar

StartChar: divide
Encoding: 247 247 178
Width: 524
Flags: W
HStem: 0 112<218.004 301.996> 213 67<29.9742 487.903> 384 108<216.993 302.845>
VStem: 205 110<13.1565 99.1522 396.389 479.92>
LayerCount: 2
Fore
SplineSet
260 384 m 0
 230 384 209 404 205 434 c 1
 205 438 l 2
 205 466 231 492 260 492 c 0
 290 492 311 473 315 443 c 1
 315 438 l 2
 315 411 289 384 260 384 c 0
260 0 m 0
 230 0 209 22 205 52 c 1
 205 56 l 2
 205 84 231 112 260 112 c 0
 290 112 311 88 315 58 c 1
 315 56 l 2
 315 29 289 0 260 0 c 0
26 222 m 0
 26 224 29 280 40 280 c 2
 489 280 l 1
 489 280 496 279 496 270 c 0
 496 252 489 224 488 220 c 0
 486 214 480 213 480 213 c 1
 32 213 l 1
 32 213 26 212 26 222 c 0
EndSplineSet
Validated: 1
EndChar

StartChar: oslash
Encoding: 248 248 179
Width: 511
Flags: W
HStem: -7 47<203.9 320.754> 399 46<191.5 307.6>
VStem: 30 114<121.233 316.788> 367 115<120.619 316.475>
LayerCount: 2
Fore
SplineSet
268 40 m 0
 340 40 367 123 367 195 c 0
 367 237 360 283 344 320 c 1
 203 63 l 1
 219 49 242 40 268 40 c 0
246 399 m 0
 173 399 144 315 144 242 c 0
 144 198 152 150 170 112 c 1
 312 373 l 1
 295 389 274 399 246 399 c 0
256 445 m 0
 286 445 316 439 342 428 c 1
 360 459 l 1
 362 461 365 463 370 462 c 0
 378 462 392 452 402 442 c 0
 406 438 406 433 406 432 c 1
 390 402 l 1
 446 360 482 293 482 218 c 0
 482 94 383 -7 256 -7 c 0
 226 -7 199 -2 173 8 c 1
 153 -27 l 1
 152 -29 148 -30 142 -28 c 0
 136 -26 123 -23 113 -11 c 0
 108 -5 108 -0 108 -0 c 1
 126 33 l 1
 68 74 30 142 30 218 c 0
 30 343 128 445 256 445 c 0
EndSplineSet
Validated: 1
EndChar

StartChar: thorn
Encoding: 254 254 185
Width: 540
Flags: HW
LayerCount: 2
Fore
SplineSet
304.5 441 m 0
 440 441 516.5 328 516.5 230.5 c 0
 516.5 89.5 407 -8 282 -8 c 0
 242.5 -8 221.5 2.5 211 6 c 1
 209.5 6 207 1.5 207 -8.5 c 2
 207 -76.5 l 2
 207 -110 207.5 -139.5 214.5 -166.5 c 0
 217.5 -177.5 268 -189 276 -189 c 0
 281 -189 280.5 -216 278.5 -222 c 1
 238 -220 195 -215.5 156.5 -215.5 c 0
 115 -215.5 75 -220 33.5 -222 c 1
 28.5 -217 28.5 -189 33.5 -189 c 0
 45.5 -189 93.5 -177.5 96.5 -166.5 c 0
 102.5 -141 103.5 -104 103.5 -93.5 c 2
 103.5 538 l 2
 103.5 556.5 102 588 98 608 c 1
 94 622 63.5 624 46.5 624 c 2
 37.5 624 l 2
 33.5 624 31.5 632.5 31.5 639.5 c 0
 31.5 641.5 32.5 656 37.5 656 c 0
 148 666 200.5 694.5 203.5 694.5 c 2
 205.5 694.5 l 2
 211.5 694.5 217.5 683 218.5 678 c 1
 218.5 678 207 639.5 207 584 c 2
 207 584 207 415 207 412.5 c 1
 207 409 208.5 407 209.5 407 c 1
 225.5 419 268 441 304.5 441 c 0
281 387.5 m 0
 237.5 387.5 207 360.5 207 318.5 c 2
 207 111.5 l 2
 207 65.5 254.5 40 292 40 c 0
 350 40 401.5 93.5 401.5 200 c 0
 401.5 303 359 387.5 281 387.5 c 0
EndSplineSet
EndChar

StartChar: gravecomb
Encoding: 768 768 187
Width: 247
Flags: W
HStem: 524 162
VStem: 44 170
LayerCount: 2
Fore
SplineSet
44 660 m 0
 44 666 53 686 88 686 c 0
 102 686 117 683 122 678 c 0
 159 635 214 545 214 540 c 0
 214 534 207 524 200 524 c 0
 190 524 44 621 44 660 c 0
EndSplineSet
Validated: 1
EndChar

StartChar: acutecomb
Encoding: 769 769 188
Width: 234
Flags: W
HStem: 524 162
VStem: 36 170
LayerCount: 2
Fore
SplineSet
164 686 m 0
 199 686 206 666 206 660 c 0
 206 621 61 524 51 524 c 0
 44 524 36 534 36 540 c 0
 36 546 94 636 130 678 c 0
 135 683 150 686 164 686 c 0
EndSplineSet
Validated: 1
EndChar

StartChar: uni2010
Encoding: 8208 8208 194
Width: 314
Flags: W
HStem: 196 68<30.2148 184.957> 207 69<138.043 285.448>
VStem: 28 261
LayerCount: 2
Fore
SplineSet
28 207 m 0x60
 28 255 37 264 40 264 c 2
 41 264 l 1xa0
 282 276 l 1
 284 276 l 2
 286 276 289 275 289 267 c 0
 289 217 276 207 276 207 c 1x60
 35 196 l 1xa0
 35 196 28 195 28 207 c 0x60
EndSplineSet
Validated: 1
EndChar

StartChar: uni2011
Encoding: 8209 8209 195
Width: 314
Flags: W
HStem: 196 68<30.2148 184.957> 207 69<138.043 285.448>
VStem: 28 261
LayerCount: 2
Fore
SplineSet
28 207 m 0x60
 28 255 37 264 40 264 c 2
 41 264 l 1xa0
 282 276 l 1
 284 276 l 2
 286 276 289 275 289 267 c 0
 289 217 276 207 276 207 c 1x60
 35 196 l 1xa0
 35 196 28 195 28 207 c 0x60
EndSplineSet
Validated: 1
EndChar

StartChar: figuredash
Encoding: 8210 8210 196
Width: 487
Flags: W
HStem: 197 68<31.9742 447.905>
LayerCount: 2
Fore
SplineSet
28 206 m 0
 28 208 31 265 42 265 c 2
 452 265 l 2
 454 265 457 264 457 257 c 0
 457 245 451 215 448 204 c 0
 446 198 442 197 442 197 c 1
 34 197 l 1
 34 197 28 196 28 206 c 0
EndSplineSet
Validated: 1
EndChar

StartChar: endash
Encoding: 8211 8211 197
Width: 499
Flags: W
HStem: 197 68<31.9742 463.904>
LayerCount: 2
Fore
SplineSet
28 206 m 4
 28 208 31 265 42 265 c 6
 467 265 l 6
 469 265 473 264 473 256 c 4
 473 238 465 208 464 204 c 4
 462 198 457 197 457 197 c 5
 34 197 l 5
 34 197 28 196 28 206 c 4
EndSplineSet
Validated: 1
EndChar

StartChar: emdash
Encoding: 8212 8212 198
Width: 832
Flags: W
HStem: 202 68<28.9742 799.903>
LayerCount: 2
Fore
SplineSet
25 211 m 0
 25 213 28 270 39 270 c 2
 802 270 l 2
 804 270 808 269 808 261 c 0
 808 243 801 213 800 209 c 0
 798 203 792 202 792 202 c 1
 31 202 l 1
 31 202 25 201 25 211 c 0
EndSplineSet
Validated: 1
EndChar

StartChar: afii00208
Encoding: 8213 8213 199
Width: 1073
Flags: W
HStem: 202 68<28.9742 1043.98>
LayerCount: 2
Fore
SplineSet
25 211 m 0
 25 213 28 270 39 270 c 2
 1042 270 l 1
 1043 270 1050 269 1050 261 c 0
 1050 243 1041 213 1040 209 c 0
 1038 203 1034 202 1034 202 c 1
 31 202 l 1
 31 202 25 201 25 211 c 0
EndSplineSet
Validated: 1
EndChar

StartChar: quoteleft
Encoding: 8216 8216 200
Width: 160
Flags: W
HStem: 478 228<60 126>
VStem: 16 68<541 628.644>
LayerCount: 2
Fore
SplineSet
16 555 m 0
 16 649 117 706 126 706 c 0
 134 706 150 695 154 684 c 1
 94 648 84 603 84 594 c 0
 84 568 125 550 125 522 c 0
 125 498 92 478 60 478 c 0
 53 478 39 481 31 485 c 1
 22 498 16 527 16 555 c 0
EndSplineSet
Validated: 1
EndChar

StartChar: quoteright
Encoding: 8217 8217 201
Width: 162
Flags: W
HStem: 479 228<42 108>
VStem: 84 67<555.799 644>
LayerCount: 2
Fore
SplineSet
151 630 m 0
 151 536 51 479 42 479 c 0
 34 479 18 490 14 501 c 1
 74 537 84 583 84 592 c 0
 84 618 42 636 42 664 c 0
 42 688 76 707 108 707 c 0
 115 707 128 704 136 700 c 1
 145 687 151 658 151 630 c 0
EndSplineSet
Validated: 1
EndChar

StartChar: quotesinglbase
Encoding: 8218 8218 202
Width: 160
Flags: W
HStem: -102 227<39 106>
VStem: 82 66<-25.2877 62>
LayerCount: 2
Fore
SplineSet
148 48 m 0
 148 -46 48 -102 39 -102 c 0
 31 -102 15 -92 11 -81 c 1
 71 -45 82 1 82 10 c 0
 82 36 40 54 40 82 c 0
 40 106 74 125 106 125 c 0
 113 125 126 122 134 118 c 1
 143 105 148 76 148 48 c 0
EndSplineSet
Validated: 1
EndChar

StartChar: quotedblleft
Encoding: 8220 8220 203
Width: 320
Flags: W
HStem: 478 228<60 126 206 272>
VStem: 16 68<541 628.644> 162 67<541 628.644>
LayerCount: 2
Fore
SplineSet
162 555 m 0
 162 649 263 706 272 706 c 0
 280 706 296 695 300 684 c 1
 240 648 229 603 229 594 c 0
 229 568 270 550 270 522 c 0
 270 498 238 478 206 478 c 0
 199 478 184 481 176 485 c 1
 167 498 162 527 162 555 c 0
16 555 m 0
 16 649 117 706 126 706 c 0
 134 706 150 695 154 684 c 1
 94 648 84 603 84 594 c 0
 84 568 125 550 125 522 c 0
 125 498 92 478 60 478 c 0
 53 478 39 481 31 485 c 1
 22 498 16 527 16 555 c 0
EndSplineSet
Validated: 1
EndChar

StartChar: quotedblright
Encoding: 8221 8221 204
Width: 321
Flags: W
HStem: 479 228
VStem: 118 2<657.612 670.607> 159 3<583.345 600.268> 226 2<617.027 650.922>
LayerCount: 2
Fore
SplineSet
226 630 m 0
 226 536 125 479 116 479 c 0
 108 479 93 490 89 501 c 1
 149 537 159 583 159 592 c 0
 159 618 118 636 118 664 c 0
 118 688 151 707 183 707 c 0
 190 707 204 704 212 700 c 1
 221 687 226 658 226 630 c 0
228 630 m 0
 228 658 223 687 214 700 c 1
 206 704 193 707 186 707 c 0
 154 707 120 688 120 664 c 0
 120 636 162 618 162 592 c 0
 162 583 151 537 91 501 c 1
 95 490 111 479 119 479 c 0
 128 479 228 536 228 630 c 0
EndSplineSet
Validated: 5
EndChar

StartChar: quotedblbase
Encoding: 8222 8222 205
Width: 314
Flags: W
HStem: -104 2<111.897 117.244> 124 1<174.987 186.896>
VStem: 116 2<75.2374 86.5347> 157 3<1.33058 16.1118> 224 2<34.5304 67.7776>
LayerCount: 2
Fore
SplineSet
224 47 m 0
 224 -47 123 -104 114 -104 c 0
 106 -104 91 -93 87 -82 c 1
 147 -46 157 -1 157 8 c 0
 157 34 116 52 116 80 c 0
 116 104 149 124 181 124 c 0
 188 124 202 121 210 117 c 1
 219 104 224 75 224 47 c 0
226 48 m 0
 226 76 221 105 212 118 c 1
 204 122 191 125 184 125 c 0
 152 125 118 106 118 82 c 0
 118 54 160 36 160 10 c 0
 160 1 149 -45 89 -81 c 1
 93 -92 109 -102 117 -102 c 0
 126 -102 226 -46 226 48 c 0
EndSplineSet
Validated: 5
EndChar

StartChar: dagger
Encoding: 8224 8224 206
Width: 355
Flags: W
HStem: 366 61<27 147.997 209.003 330> 609 20G<141 145 212 216>
VStem: 148 61<125.999 365.974 427.019 621.802>
LayerCount: 2
Fore
SplineSet
218 -10 m 1
 207 -6 189 -5 178 -5 c 0
 167 -5 151 -6 139 -10 c 1
 143 135 148 211 148 356 c 0
 148 361 145 366 140 366 c 2
 130 366 l 2
 92 366 66 362 25 360 c 1
 26 369 27 384 27 393 c 0
 27 404 26 421 25 432 c 1
 66 430 92 427 130 427 c 2
 140 427 l 2
 144 427 148 431 148 435 c 0
 148 513 143 551 139 629 c 1
 151 627 167 625 178 625 c 0
 189 625 206 627 218 629 c 1
 214 551 209 513 209 435 c 0
 209 431 213 427 217 427 c 2
 226 427 l 2
 264 427 291 430 332 432 c 1
 331 421 330 404 330 393 c 0
 330 384 331 369 332 360 c 1
 291 362 264 366 226 366 c 2
 217 366 l 2
 212 366 209 361 209 356 c 0
 209 211 214 135 218 -10 c 1
EndSplineSet
Validated: 1
EndChar

StartChar: daggerdbl
Encoding: 8225 8225 207
Width: 364
Flags: W
HStem: 193 61<31 151.997 213.003 334> 366 61<31 151.997 213.003 334> 609 20G<145 149 216 220>
VStem: 152 61<-1.80225 192.981 254.026 365.974 427.019 621.802>
LayerCount: 2
Back
SplineSet
224 -10 m 5
 213 -6 195 -5 184 -5 c 4
 173 -5 157 -6 145 -10 c 5
 149 135 154 211 154 356 c 4
 154 361 151 366 146 366 c 6
 136 366 l 6
 98 366 72 362 31 360 c 5
 32 369 33 384 33 393 c 4
 33 404 32 421 31 432 c 5
 72 430 98 427 136 427 c 6
 146 427 l 6
 150 427 154 431 154 435 c 4
 154 513 149 551 145 629 c 5
 157 627 173 625 184 625 c 4
 195 625 212 627 224 629 c 5
 220 551 215 513 215 435 c 4
 215 431 219 427 223 427 c 6
 232 427 l 6
 270 427 297 430 338 432 c 5
 337 421 336 404 336 393 c 4
 336 384 337 369 338 360 c 5
 297 362 270 366 232 366 c 6
 223 366 l 6
 218 366 215 361 215 356 c 4
 215 211 220 135 224 -10 c 5
EndSplineSet
Fore
SplineSet
213 264 m 0
 213 259 216 254 221 254 c 2
 230 254 l 2
 268 254 295 258 336 260 c 1
 335 251 334 236 334 227 c 0
 334 216 335 199 336 188 c 1
 295 190 268 193 230 193 c 2
 221 193 l 2
 217 193 213 189 213 185 c 0
 213 107 218 69 222 -9 c 1
 210 -7 193 -5 182 -5 c 0
 171 -5 155 -7 143 -9 c 1
 147 69 152 107 152 185 c 0
 152 189 148 193 144 193 c 2
 134 193 l 2
 96 193 70 190 29 188 c 1
 30 199 31 216 31 227 c 0
 31 236 30 251 29 260 c 1
 70 258 96 254 134 254 c 2
 144 254 l 2
 149 254 152 259 152 264 c 0
 152 302 152 317 152 356 c 0
 152 361 149 366 144 366 c 2
 134 366 l 2
 96 366 70 362 29 360 c 1
 30 369 31 384 31 393 c 0
 31 404 30 421 29 432 c 1
 70 430 96 427 134 427 c 2
 144 427 l 2
 148 427 152 431 152 435 c 0
 152 513 147 551 143 629 c 1
 155 627 171 625 182 625 c 0
 193 625 210 627 222 629 c 1
 218 551 213 513 213 435 c 0
 213 431 217 427 221 427 c 2
 230 427 l 2
 268 427 295 430 336 432 c 1
 335 421 334 404 334 393 c 0
 334 384 335 369 336 360 c 1
 295 362 268 366 230 366 c 2
 221 366 l 2
 216 366 213 361 213 356 c 0
 213 317 213 296 213 264 c 0
EndSplineSet
Validated: 1
EndChar

StartChar: bullet
Encoding: 8226 8226 208
Width: 409
Flags: W
HStem: 139 249<133.883 271.801>
VStem: 79 247<193.883 332.434>
LayerCount: 2
Fore
SplineSet
79 263 m 0
 79 331 135 388 203 388 c 0
 271 388 326 331 326 263 c 0
 326 195 271 139 203 139 c 0
 135 139 79 195 79 263 c 0
EndSplineSet
Validated: 1
EndChar

StartChar: onedotenleader
Encoding: 8228 8228 209
Width: 702
Flags: W
HStem: -12 135<302.616 399.975>
VStem: 284 134<6.20984 105.243>
LayerCount: 2
Fore
SplineSet
418 56 m 0
 418 20 389 -12 352 -12 c 1
 314 -12 284 20 284 56 c 0
 284 92 315 123 352 123 c 1
 388 123 418 92 418 56 c 0
EndSplineSet
Validated: 1
EndChar

StartChar: ellipsis
Encoding: 8230 8230 210
Width: 771
Flags: W
HStem: -12 135<47.6156 144.975 337.616 434.975 627.616 724.975>
VStem: 29 134<6.20984 105.243> 319 134<6.20984 105.243> 609 134<6.20984 105.243>
CounterMasks: 1 70
LayerCount: 2
Fore
SplineSet
743 56 m 0
 743 20 714 -12 677 -12 c 1
 639 -12 609 20 609 56 c 0
 609 92 640 123 677 123 c 1
 713 123 743 92 743 56 c 0
453 56 m 4
 453 20 424 -12 387 -12 c 5
 349 -12 319 20 319 56 c 4
 319 92 350 123 387 123 c 5
 423 123 453 92 453 56 c 4
163 56 m 0
 163 20 134 -12 97 -12 c 1
 59 -12 29 20 29 56 c 0
 29 92 60 123 97 123 c 1
 133 123 163 92 163 56 c 0
EndSplineSet
Validated: 1
Ligature2: "'liga' Standard Ligatures in Latin lookup 0-1" period period period
EndChar

StartChar: perthousand
Encoding: 8240 8240 211
Width: 977
Flags: W
HStem: -3 31<437.775 510.503 768.188 842.915> 278 31<425.435 500.766 755.435 830.874> 331 32<145.296 219.915> 613 30<132.932 205.539>
VStem: 23 80<405.972 567.8> 247 82<406.768 567.825> 315 80<71.7101 233.597> 539 82<70.9763 233.563> 645 80<71.7101 233.597> 870 82<72.5645 233.563>
LayerCount: 2
Fore
SplineSet
793 278 m 0xf9c0
 743 278 725 219 725 169 c 0
 725 105 752 28 806 28 c 0
 856 28 870 87 870 137 c 0
 870 201 850 278 793 278 c 0xf9c0
799 309 m 0
 887 309 952 238 952 152 c 0
 952 70 889 -3 799 -3 c 0
 713 -3 645 66 645 152 c 0
 645 238 711 309 799 309 c 0
169 613 m 0
 119 613 103 553 103 503 c 0
 103 439 129 363 183 363 c 0
 233 363 247 421 247 471 c 0xfdc0
 247 535 226 613 169 613 c 0
176 643 m 0
 264 643 329 572 329 486 c 0
 329 404 266 331 176 331 c 0
 90 331 23 400 23 486 c 0
 23 572 88 643 176 643 c 0
463 278 m 0
 413 278 395 219 395 169 c 0xfbc0
 395 105 421 28 475 28 c 0
 525 28 539 87 539 137 c 0
 539 201 520 278 463 278 c 0
469 309 m 0
 557 309 621 238 621 152 c 0
 621 70 559 -3 469 -3 c 0
 383 -3 315 66 315 152 c 0
 315 238 381 309 469 309 c 0
593 626 m 1
 111 4 l 2
 107 -2 89 -8 77 -8 c 0
 57 -8 50 0 49 4 c 1
 531 628 l 2
 536 634 544 641 550 641 c 0
 576 641 583 634 593 626 c 1
EndSplineSet
Validated: 1
EndChar

StartChar: minute
Encoding: 8242 8242 212
Width: 153
Flags: W
HStem: 489 210<53.0928 64.8095>
VStem: 34 95
LayerCount: 2
Fore
SplineSet
94 699 m 0
 109 699 129 691 129 671 c 0
 129 624 86 544 58 498 c 0
 54 492 50 489 46 489 c 0
 40 489 34 494 34 501 c 0
 34 504 39 612 47 666 c 0
 49 678 75 699 94 699 c 0
EndSplineSet
Validated: 1
EndChar

StartChar: second
Encoding: 8243 8243 213
Width: 282
Flags: W
HStem: 489 210<53.0928 64.7921 177.093 188.792>
VStem: 34 218
LayerCount: 2
Fore
SplineSet
218 699 m 0
 233 699 252 691 252 671 c 0
 252 624 210 544 182 498 c 0
 178 492 174 489 170 489 c 0
 164 489 157 494 157 501 c 0
 157 504 163 612 171 666 c 0
 173 678 199 699 218 699 c 0
94 699 m 0
 109 699 128 691 128 671 c 0
 128 624 86 544 58 498 c 0
 54 492 50 489 46 489 c 0
 40 489 34 494 34 501 c 0
 34 504 39 612 47 666 c 0
 49 678 75 699 94 699 c 0
EndSplineSet
Validated: 1
EndChar

StartChar: uni2038
Encoding: 8248 8248 214
Width: 397
Flags: W
HStem: -48 160
VStem: 83 243
LayerCount: 2
Fore
SplineSet
314 -48 m 0
 301 -48 241 -2 203 38 c 1
 169 -3 105 -48 92 -48 c 0
 84 -48 83 -28 83 -28 c 1
 89 -18 152 24 191 102 c 1
 194 110 194 112 200 112 c 0
 220 112 212 95 260 37 c 0
 278 15 324 -23 326 -27 c 1
 326 -31 320 -48 314 -48 c 0
EndSplineSet
Validated: 1
EndChar

StartChar: guilsinglleft
Encoding: 8249 8249 215
Width: 291
Flags: W
VStem: 25 242
LayerCount: 2
Fore
SplineSet
120 248 m 5
 129 240 185 181 200 167 c 5
 254 115 267 104 267 94 c 4
 267 82 244 75 238 73 c 5
 237 75 179 132 32 227 c 5
 27 229 25 235 25 241 c 4
 25 251 26 260 33 268 c 5
 164 347 236 421 239 423 c 5
 253 419 268 409 268 401 c 4
 268 393 256 381 200 328 c 4
 174 302 138 266 120 248 c 5
EndSplineSet
Validated: 1
EndChar

StartChar: guilsinglright
Encoding: 8250 8250 216
Width: 294
Flags: W
VStem: 25 243
LayerCount: 2
Fore
SplineSet
173 248 m 5
 155 266 119 302 93 328 c 4
 37 381 25 393 25 401 c 4
 25 409 40 419 54 423 c 5
 57 421 129 347 260 268 c 5
 267 260 268 251 268 241 c 4
 268 235 266 229 261 227 c 5
 114 132 56 75 55 73 c 5
 49 75 26 82 26 94 c 4
 26 104 39 115 93 167 c 5
 108 181 164 240 173 248 c 5
EndSplineSet
Validated: 1
EndChar

StartChar: uni203E
Encoding: 8254 8254 217
Width: 565
Flags: W
HStem: 736 68<-11.0258 578.903>
LayerCount: 2
Fore
SplineSet
-15 746 m 0
 -15 748 -12 804 -1 804 c 2
 581 804 l 2
 583 804 587 803 587 795 c 0
 587 777 580 748 579 744 c 0
 577 738 571 736 571 736 c 1
 -9 736 l 1
 -9 736 -15 736 -15 746 c 0
EndSplineSet
Validated: 1
EndChar

StartChar: Euro
Encoding: 8364 8364 218
Width: 658
Flags: W
HStem: -6 46.4199<314.534 498.936> 238.5 52.5<22.9751 419.755> 351 52.5<22.9751 419.755> 594.64 46.8799<296.424 486.616>
VStem: 65.2002 120.88<244.992 392.488> 572.98 36.6401<460.719 508.895>
LayerCount: 2
Fore
SplineSet
36 291 m 1
 65 291 410.5 291 424.5 291 c 0
 428.5 291 427 280.5 425 274.5 c 0
 423 267.5 416 249.5 407 238.5 c 1
 378 238.5 32 238.5 18 238.5 c 0
 14 238.5 16.5 249.5 18.5 255.5 c 0
 20.5 262.5 26 280 36 291 c 1
36 403.5 m 1
 65 403.5 410.5 403.5 424.5 403.5 c 0
 428.5 403.5 427 393 425 387 c 0
 423 380 416 362 407 351 c 1
 378 351 32 351 18 351 c 0
 14 351 16.5 362 18.5 368 c 0
 20.5 375 26 392.5 36 403.5 c 1
378.1 641.52 m 0
 441.28 641.52 530.84 630.28 601.02 615.1 c 1
 604.86 614.14 609.62 484.86 609.62 475.06 c 0
 609.62 465.26 597.42 460.36 586.66 460.36 c 1
 581.26 460.36 576.38 462.32 572.98 464.3 c 1
 565.18 498.02 530.18 594.64 382 594.64 c 0
 249.32 594.64 186.08 464.7 186.08 330 c 0
 186.08 180.12 257.68 40.4199 408.86 40.4199 c 0
 469.66 40.4199 512.82 65.8599 540.3 94.3398 c 0
 570.2 125.24 579.96 183.56 585.88 183.56 c 1
 594.78 183.56 620.6 181.48 623.48 174.76 c 1
 623.48 163.98 599 40.0601 587.3 34.6802 c 0
 529.06 6.64014 455.96 -6 367.8 -6 c 0
 197.84 -6 65.2002 139.46 65.2002 309.42 c 0
 65.2002 489.18 197.9 641.52 378.1 641.52 c 0
EndSplineSet
EndChar

StartChar: arrowleft
Encoding: 8592 8592 219
Width: 762
Flags: W
HStem: 214 68<153 724.904>
LayerCount: 2
Fore
SplineSet
267 400 m 0
 267 390 257 385 198 326 c 0
 153 282 l 1
 726 282 l 1
 726 282 733 281 733 271 c 0
 733 253 726 224 725 220 c 0
 723 214 718 214 718 214 c 1
 153 214 l 1
 199 166 l 0
 255 110 267 104 267 94 c 0
 267 82 243 74 237 72 c 1
 236 74 178 131 31 226 c 1
 26 228 25 234 25 240 c 0
 25 250 26 260 33 268 c 1
 164 347 236 420 239 422 c 1
 249 420 267 410 267 400 c 0
EndSplineSet
Validated: 1
EndChar

StartChar: arrowup
Encoding: 8593 8593 220
Width: 392
Flags: W
VStem: 162 68<10.0966 582>
LayerCount: 2
Fore
SplineSet
349 468 m 4
 339 468 333 478 274 537 c 4
 230 582 l 5
 230 10 l 5
 230 10 229 2 219 2 c 4
 201 2 173 9 169 10 c 4
 163 12 162 18 162 18 c 5
 162 583 l 5
 115 536 l 4
 59 480 52 469 42 469 c 4
 30 469 23 492 21 498 c 5
 23 499 80 557 175 704 c 5
 177 709 183 711 189 711 c 4
 199 711 208 710 216 703 c 5
 295 572 369 500 371 497 c 5
 369 487 359 468 349 468 c 4
EndSplineSet
Validated: 1
EndChar

StartChar: arrowright
Encoding: 8594 8594 221
Width: 761
Flags: W
HStem: 214 68<35.0952 606>
LayerCount: 2
Fore
SplineSet
492 400 m 4
 492 410 511 420 521 422 c 5
 524 420 596 347 727 268 c 5
 734 260 735 250 735 240 c 4
 735 234 733 228 728 226 c 5
 581 131 523 74 522 72 c 5
 516 74 493 82 493 94 c 4
 493 104 505 110 561 166 c 4
 607 214 l 5
 41 214 l 5
 41 214 37 214 35 220 c 4
 34 224 27 253 27 271 c 4
 27 281 33 282 33 282 c 5
 606 282 l 5
 561 326 l 4
 502 385 492 390 492 400 c 4
EndSplineSet
Validated: 1
EndChar

StartChar: arrowdown
Encoding: 8595 8595 222
Width: 395
Flags: W
VStem: 163 68<132 702.904>
LayerCount: 2
Fore
SplineSet
350 246 m 4
 360 246 370 226 372 216 c 5
 370 213 296 141 217 10 c 5
 209 3 200 2 190 2 c 4
 184 2 178 5 176 10 c 5
 81 157 24 215 22 216 c 5
 24 222 31 244 43 244 c 4
 53 244 60 233 116 177 c 4
 163 130 l 5
 163 696 l 5
 163 696 164 701 170 703 c 4
 174 704 202 711 220 711 c 4
 230 711 231 704 231 704 c 5
 231 132 l 5
 275 176 l 4
 334 235 340 246 350 246 c 4
EndSplineSet
Validated: 1
EndChar

StartChar: universal
Encoding: 8704 8704 223
Width: 716
Flags: W
HStem: 374 54<294.001 452> 633 24<463.684 515.844 650.686 693.931>
LayerCount: 2
Fore
SplineSet
331 -1 m 5
 120 523 l 6
 106 560 99 576 90 596 c 4
 80 620 34 633 26 633 c 4
 23 633 22 641 22 647 c 4
 22 652 22 662 24 665 c 5
 64 663 108 658 152 658 c 4
 198 658 231 663 272 665 c 5
 277 660 276 633 271 633 c 4
 259 633 222 621 216 609 c 4
 214 605 214 602 214 596 c 4
 214 576 227 540 232 527 c 5
 238 513 268 434 268 434 c 5
 268 434 271 430 274 430 c 4
 306 428 336 428 361 428 c 4
 402 428 435 429 475 431 c 4
 477 431 481 434 481 435 c 5
 519 528 l 5
 531 558 538 578 538 593 c 4
 538 606 532 611 527 615 c 4
 513 626 474 632 466 632 c 4
 461 632 463 657 465 663 c 5
 505 661 527 657 571 657 c 4
 617 657 644 661 690 663 c 5
 692 661 694 653 694 647 c 4
 694 641 692 633 690 633 c 4
 678 633 631 617 621 601 c 4
 603 573 590 541 583 523 c 6
 397 73 l 5
 385 41 370 -6 343 -6 c 4
 339 -6 333 -3 331 -1 c 5
450 371 m 4
 427 373 401 374 378 374 c 4
 347 374 328 373 297 371 c 4
 295 371 294 367 294 367 c 5
 370 167 l 5
 452 367 l 5
 452 367 452 371 450 371 c 4
EndSplineSet
Validated: 33
EndChar

StartChar: partialdiff
Encoding: 8706 8706 224
Width: 444
Flags: W
HStem: 0 44<169.788 270.443> 324 44<158.472 272.77> 588 50<106.95 235.652>
VStem: 26 99<95.5192 271.083> 310 106<150.952 450.257>
LayerCount: 2
Fore
SplineSet
310 218 m 1
 310 290 260 324 204 324 c 0
 152 324 125 264 125 204 c 0
 125 106 162 44 226 44 c 0
 283 44 310 124 310 218 c 1
192 0 m 0
 94 0 26 72 26 184 c 0
 26 285 106 368 219 368 c 0
 252 368 287 356 305 350 c 0
 310 348 314 356 314 362 c 1
 316 406 300 516 250 556 c 0
 220 581 191 588 163 588 c 1
 123 588 85 565 56 543 c 1
 52 547 44 562 50 572 c 0
 65 595 121 638 206 638 c 1
 361 638 416 438 416 288 c 1
 416 115 332 0 192 0 c 0
EndSplineSet
Validated: 33
EndChar

StartChar: uni2206
Encoding: 8710 8710 225
Width: 673
Flags: W
HStem: 0 68<111.911 510>
LayerCount: 2
Fore
SplineSet
513 76 m 2
 320 464 l 1
 316 467 312 468 308 462 c 2
 112 80 l 1
 110 73 115 68 120 68 c 2
 510 68 l 2
 514 68 515 72 513 76 c 2
349 613 m 1
 651 14 l 1
 651 14 645 8 643 0 c 1
 32 0 l 1
 28 6 27 9 23 16 c 1
 332 613 l 1
 349 613 l 1
EndSplineSet
Validated: 1
EndChar

StartChar: gradient
Encoding: 8711 8711 226
Width: 672
Flags: W
HStem: 573 69<163 561.089>
LayerCount: 2
Fore
SplineSet
160 566 m 2
 354 178 l 1
 358 175 362 174 366 180 c 2
 561 562 l 1
 563 569 559 573 554 573 c 2
 163 573 l 2
 159 573 158 570 160 566 c 2
324 28 m 1
 22 628 l 1
 22 628 28 634 30 642 c 1
 641 642 l 1
 645 636 646 633 650 626 c 1
 341 28 l 1
 324 28 l 1
EndSplineSet
Validated: 1
EndChar

StartChar: element
Encoding: 8712 8712 227
Width: 450
Flags: W
HStem: 10 54<153.854 421.376> 190 54<94.0044 376> 372 54<152.089 421.616>
VStem: 27 67<173.538 310.126>
LayerCount: 2
Fore
SplineSet
384 218 m 0
 384 191 376 190 375 190 c 2
 99 190 l 6
 98 190 93 189 94 186 c 4
 106 123 153 64 220 64 c 6
 408 64 l 2
 408 64 423 59 423 24 c 0
 423 15 416 10 416 10 c 1
 222 10 l 6
 110 10 27 106 27 218 c 4
 27 327 103 426 212 426 c 6
 416 426 l 1
 416 426 423 421 423 409 c 0
 423 378 408 372 408 372 c 1
 212 372 l 6
 149 372 105 311 94 249 c 4
 94 246 96 244 99 244 c 6
 376 244 l 1
 376 243 384 235 384 218 c 0
EndSplineSet
Validated: 1
EndChar

StartChar: notelement
Encoding: 8713 8713 228
Width: 448
Flags: W
HStem: 10 54<177.803 421.376> 190 54<94.0044 186 273 376> 372 54<152.089 287 374 421.616>
VStem: 27 67<172.865 310.126>
LayerCount: 2
Fore
SplineSet
129 -16 m 2
 127 -17 125 -18 121 -18 c 0
 118 -18 102 -14 89 2 c 0
 85 6 85 10 85 10 c 1
 107 49 l 1
 57 87 27 150 27 218 c 0
 27 327 103 426 212 426 c 2
 317 426 l 1
 345 476 l 1
 345 476 347 478 351 478 c 0
 363 478 374 470 382 461 c 0
 387 456 387 450 387 450 c 1
 374 426 l 1
 416 426 l 1
 416 426 423 421 423 409 c 0
 423 378 408 372 408 372 c 1
 344 372 l 1
 273 244 l 1
 376 244 l 1
 376 243 384 235 384 218 c 0
 384 191 376 190 375 190 c 2
 243 190 l 1
 177 73 l 1
 190 68 205 64 220 64 c 2
 408 64 l 1
 408 64 423 59 423 24 c 0
 423 15 416 10 416 10 c 1
 222 10 l 2
 196 10 172 15 150 24 c 1
 129 -16 l 2
216 244 m 1
 287 372 l 1
 212 372 l 2
 149 372 105 311 94 249 c 0
 94 246 96 244 99 244 c 2
 216 244 l 1
136 101 m 1
 186 190 l 1
 99 190 l 2
 98 190 93 189 94 186 c 0
 100 154 114 124 136 101 c 1
EndSplineSet
Validated: 1
EndChar

StartChar: summation
Encoding: 8721 8721 229
Width: 605
Flags: W
HStem: 2 52<175.77 479.663> 2 30<24.0511 57.1753> 613 51<287.849 446.962> 626 30<23.0229 59.6673>
VStem: 541 42<126 174.577>
LayerCount: 2
Back
SplineSet
213 47 m 4x70
 247 47 286 48 319 48 c 4
 357 48 452 51 481 66 c 4
 500 76 523 109 539 162 c 4
 540 166 546 168 553 168 c 4
 563 168 575 165 578 162 c 5
 559 108 531 40 524 -4 c 5
 415 -4 238 2 147 2 c 4x70
 80 2 29 -3 29 -3 c 5
 27 -1 25 7 25 15 c 4
 25 23 27 31 29 31 c 4xb0
 40 31 61 51 70 63 c 6
 274 317 l 6
 276 320 276 323 273 327 c 4
 260 347 158 490 81 592 c 4
 68 609 41 627 29 627 c 4
 27 627 25 634 25 641 c 4
 25 648 27 656 29 658 c 5
 29 658 78 656 145 656 c 4
 238 656 395 664 504 664 c 5
 511 615 523 573 532 528 c 5
 529 525 522 523 515 523 c 4
 508 523 502 525 501 530 c 4
 486 587 459 602 449 607 c 4
 432 615 393 616 358 616 c 6
 312 616 l 6
 292 616 261 617 233 617 c 4
 198 617 168 615 166 607 c 5
 355 358 l 5
 357 352 359 345 359 339 c 4
 359 334 357 330 354 327 c 4
 264 227 138 90 138 58 c 4
 138 51 145 47 213 47 c 4x70
536 0 m 1xc0
 427 0 238 2 147 2 c 0
 80 2 29 -3 29 -3 c 1
 27 -1 25 7 25 15 c 0
 25 23 27 31 29 31 c 0
 40 31 73 53 82 65 c 2
 265 306 l 2
 269 311 268 318 265 322 c 0
 252 342 158 490 81 592 c 0
 68 609 41 627 29 627 c 0
 27 627 25 634 25 641 c 0
 25 648 27 656 29 658 c 1
 29 658 78 656 145 656 c 0xa0
 238 656 397 662 506 662 c 1
 513 612 528 556 537 511 c 1
 534 508 521 506 514 506 c 0
 507 506 502 508 500 513 c 0
 475 563 426 608 360 608 c 27
 338 608 332 608 304 608 c 0
 269 608 239 603 237 595 c 1
 402 360 l 1
 404 354 406 347 406 341 c 0
 406 336 404 332 401 329 c 0
 316 227 195 84 195 71 c 0
 195 64 198 60 266 60 c 0
 300 60 303 60 330 60 c 0
 382 60 444 65 473 80 c 0
 492 90 521 125 538 170 c 0
 539 174 545 176 552 176 c 0
 562 176 579 173 582 170 c 1
 563 116 543 44 536 0 c 1xc0
EndSplineSet
Fore
SplineSet
276 54 m 2xa8
 355 55 l 2
 393 55 445 58 474 73 c 0
 493 83 525 120 541 169 c 0
 542 173 548 175 555 175 c 0
 565 175 580 172 583 169 c 1
 564 115 536 44 529 0 c 1
 420 0 236 2 145 2 c 0
 83 2 28 -4 28 -4 c 1
 26 -2 24 6 24 14 c 0
 24 22 25 32 28 32 c 0
 41 32 68 54 75 64 c 0
 89 84 195 217 270 316 c 24
 271 317 271 319 271 320 c 27
 271 321 270 322 269 323 c 24
 195 428 153 486 80 592 c 16
 69 608 39 626 27 626 c 0
 25 626 23 635 23 642 c 0
 23 649 25 658 27 660 c 1
 27 660 77 656 144 656 c 0x58
 237 656 395 664 504 664 c 1
 511 614 524 567 533 522 c 1
 530 519 519 517 512 517 c 0
 505 517 500 519 498 524 c 0
 474 589 423 613 370 613 c 2
 318 613 l 2
 277 613 207 612 205 600 c 0
 201 581 310 454 377 360 c 17
 381 355 385 351 385 344 c 27
 385 338 382 335 378 330 c 24
 296 229 203 129 166 72 c 0
 163 67 169 59 174 58 c 0
 212 54 234 53 276 54 c 2xa8
EndSplineSet
Validated: 33
EndChar

StartChar: minus
Encoding: 8722 8722 230
Width: 541
Flags: W
HStem: 214 64<35.1528 499.904>
LayerCount: 2
Fore
SplineSet
31 224 m 1
 31 224 35 278 45 278 c 2
 502 278 l 2
 505 278 509 279 509 272 c 0
 509 264 505 237 500 220 c 0
 498 214 493 214 493 214 c 1
 37 214 l 1
 37 214 31 214 31 224 c 1
EndSplineSet
Validated: 1
EndChar

StartChar: uni2213
Encoding: 8723 8723 231
Width: 531
Flags: W
HStem: 237 64<34.0959 232.999 297.001 494.904> 540 64<34.0959 494.904>
VStem: 233 64<35.7003 236.998 301 499.904>
LayerCount: 2
Fore
SplineSet
488 540 m 1
 32 540 l 1
 32 540 26 540 26 550 c 0
 26 554 27 575 34 599 c 0
 36 605 41 604 41 604 c 1
 497 604 l 2
 501 604 505 605 505 598 c 0
 505 589 501 568 495 546 c 0
 493 540 488 540 488 540 c 1
297 234 m 2
 297 46 l 1
 297 46 290 36 245 30 c 0
 242 30 241 29 239 29 c 0
 233 29 233 33 233 37 c 2
 233 232 l 2
 233 234 232 237 227 237 c 2
 32 237 l 1
 32 237 26 237 26 247 c 0
 26 251 27 272 34 296 c 0
 36 302 41 301 41 301 c 1
 228 301 l 2
 231 301 233 305 233 307 c 2
 233 493 l 1
 233 493 232 498 238 500 c 0
 262 507 283 508 287 508 c 0
 297 508 297 502 297 502 c 1
 297 306 l 2
 297 303 298 301 301 301 c 2
 497 301 l 2
 501 301 505 302 505 295 c 0
 505 286 501 265 495 243 c 0
 493 237 488 237 488 237 c 1
 301 237 l 2
 298 237 297 236 297 234 c 2
EndSplineSet
Validated: 1
EndChar

StartChar: radical
Encoding: 8730 8730 232
Width: 553
Flags: W
LayerCount: 2
Fore
SplineSet
46 159 m 1
 32 165 23 178 23 186 c 0
 23 196 36 203 46 209 c 0
 80 231 171 296 185 308 c 0
 193 315 209 315 212 307 c 1
 221 275 230 254 236 238 c 2
 339 8 l 1
 347 51 484 791 484 791 c 1
 532 788 l 1
 532 788 381 -25 356 -153 c 1
 341 -171 321 -176 315 -176 c 0
 311 -176 307 -176 305 -172 c 2
 133 208 l 1
 46 159 l 1
EndSplineSet
Validated: 1
EndChar

StartChar: proportional
Encoding: 8733 8733 233
Width: 668
Flags: W
HStem: 39 65<156.497 281.031 578.812 633.254> 357 67<155.129 268.312 561.096 638.746>
VStem: 27 80<153.984 305.871>
LayerCount: 2
Fore
SplineSet
634 106 m 0
 637 106 641 92 641 84 c 0
 641 65 619 41 614 41 c 0
 483 41 415 171 404 171 c 2
 403 171 l 1
 350 108 289 39 191 39 c 0
 96 39 27 128 27 223 c 0
 27 332 115 424 224 424 c 0
 321 424 392 342 433 294 c 0
 434 292 438 290 439 292 c 0
 478 342 542 414 629 423 c 0
 641 424 643 415 643 405 c 0
 643 386 637 362 619 362 c 0
 558 362 497 277 471 246 c 0
 470 245 470 245 471 244 c 0
 505 200 565 106 634 106 c 0
107 229 m 0
 107 159 157 104 219 104 c 0
 285 104 337 180 371 218 c 0
 372 219 372 219 371 220 c 0
 347 252 282 357 212 357 c 0
 151 357 107 297 107 229 c 0
EndSplineSet
Validated: 1
EndChar

StartChar: infinity
Encoding: 8734 8734 234
Width: 843
Flags: W
HStem: 41 65<153.343 284.106 577.092 691.849> 357 67<155.129 268.312 559.983 688.584>
VStem: 27 80<153.984 305.871> 735 80<154.409 307.016>
LayerCount: 2
Fore
SplineSet
619 362 m 0
 558 362 497 277 471 246 c 0
 470 245 470 245 471 244 c 0
 505 200 565 106 634 106 c 0
 693 106 735 166 735 233 c 0
 735 304 683 362 619 362 c 0
107 229 m 0
 107 159 157 104 219 104 c 0
 285 104 337 180 371 218 c 0
 372 219 372 219 371 220 c 0
 347 252 282 357 212 357 c 0
 151 357 107 297 107 229 c 0
224 424 m 0
 321 424 392 342 433 294 c 0
 434 292 438 290 439 292 c 0
 481 345 549 424 646 424 c 0
 741 424 815 337 815 242 c 0
 815 132 724 41 614 41 c 0
 483 41 415 171 404 171 c 2
 403 171 l 1
 350 108 289 39 191 39 c 0
 96 39 27 128 27 223 c 0
 27 332 115 424 224 424 c 0
EndSplineSet
Validated: 1
EndChar

StartChar: notequal
Encoding: 8800 8800 235
Width: 523
Flags: W
HStem: 113 64<37.0959 175 267 485.905> 255 64<33.0872 254 347 485.905>
LayerCount: 2
Fore
SplineSet
347 319 m 1
 490 319 l 2
 493 319 496 320 496 314 c 0
 496 305 492 283 486 261 c 0
 484 255 480 255 480 255 c 1
 311 255 l 1
 267 177 l 1
 488 177 l 2
 492 177 496 179 496 172 c 0
 496 163 492 141 486 119 c 0
 484 113 480 113 480 113 c 1
 232 113 l 1
 177 14 l 1
 175 13 175 12 171 12 c 0
 168 12 150 16 137 32 c 0
 133 36 134 40 134 40 c 1
 175 113 l 1
 35 113 l 1
 35 113 28 113 28 123 c 0
 28 127 30 148 37 172 c 0
 39 178 44 177 44 177 c 1
 211 177 l 1
 254 255 l 1
 35 255 l 1
 35 255 28 255 28 265 c 1
 28 267 31 295 38 314 c 0
 40 319 42 319 43 319 c 1
 289 319 l 1
 342 413 l 1
 342 413 345 416 349 416 c 0
 358 416 370 410 380 398 c 0
 385 393 385 388 385 388 c 1
 347 319 l 1
EndSplineSet
Validated: 1
EndChar

StartChar: lessequal
Encoding: 8804 8804 236
Width: 463
Flags: W
HStem: 6 56<37.0959 427.982>
LayerCount: 2
Fore
SplineSet
425 62 m 1
 425 62 434 63 432 51 c 0
 425 3 420 9 417 6 c 1
 35 6 l 1
 35 6 26 5 28 19 c 0
 30 33 31 37 37 57 c 0
 39 63 44 62 44 62 c 1
 425 62 l 1
440 136 m 0
 440 129 430 86 424 86 c 0
 423 86 421 87 419 88 c 2
 44 279 l 2
 29 287 26 301 26 318 c 0
 26 329 34 337 44 342 c 2
 413 529 l 2
 415 530 417 531 418 531 c 0
 421 531 428 521 435 484 c 0
 436 478 432 475 432 475 c 1
 106 310 l 1
 437 142 l 1
 437 142 440 141 440 136 c 0
EndSplineSet
Validated: 1
EndChar

StartChar: greaterequal
Encoding: 8805 8805 237
Width: 462
Flags: W
HStem: 6 56<31.6017 423.904>
LayerCount: 2
Fore
SplineSet
30 483 m 0
 30 501 42 531 46 531 c 0
 47 531 49 530 51 529 c 2
 421 342 l 2
 431 337 438 329 438 318 c 0
 438 301 436 287 421 279 c 2
 46 88 l 2
 41 86 40 82 35 95 c 0
 29 110 24 132 24 136 c 0
 24 140 27 142 27 142 c 1
 358 310 l 1
 33 475 l 1
 33 475 30 476 30 483 c 0
28 15 m 0
 28 16 32 62 43 62 c 2
 426 62 l 2
 428 62 432 61 432 54 c 0
 432 46 429 29 424 13 c 0
 422 7 417 6 417 6 c 1
 35 6 l 1
 35 6 28 5 28 15 c 0
EndSplineSet
Validated: 1
EndChar

StartChar: propersubset
Encoding: 8834 8834 238
Width: 450
Flags: W
HStem: 10 54<154.121 421.376> 372 54<154.451 421.616>
VStem: 27 64<133.632 301.454>
LayerCount: 2
Fore
SplineSet
220 64 m 2
 408 64 l 2
 408 64 423 59 423 24 c 0
 423 15 416 10 416 10 c 1
 222 10 l 2
 110 10 27 106 27 218 c 0
 27 327 103 426 212 426 c 2
 416 426 l 1
 416 426 423 421 423 409 c 0
 423 378 408 372 408 372 c 1
 212 372 l 2
 146 372 91 299 91 216 c 3
 91 138 145 64 220 64 c 2
EndSplineSet
Validated: 1
EndChar

StartChar: ae
Encoding: 230 230 240
Width: 662
Flags: W
HStem: -7 64<109.5 249.76 437.876 559.944> 396 47<161.538 250.215 421.147 510.737>
VStem: 32 110<66.945 157.841> 42 98<290.638 369.665> 266 111<117.317 195 262.003 344.455> 540 106<251.5 349.301>
LayerCount: 2
Fore
SplineSet
377 204 m 0xdc
 377 127 415 63 504 63 c 3
 579 63 621 108 628 108 c 3
 629 108 638 100 638 94 c 3
 638 89 637 79 634 74 c 0
 611 40 543 -7 475 -7 c 0
 412 -7 359 16 319 67 c 1
 289 33 234 -7 146 -7 c 0
 73 -7 32 42 32 97 c 0xec
 32 201 177 224 256 244 c 0
 262 246 265 252 265 259 c 2
 265 326 l 2
 265 368 240 396 208 396 c 0
 172 396 140 361 140 313 c 0
 140 293 109 286 86 286 c 0
 60 286 42 300 42 320 c 0
 42 374 136 443 231 443 c 0
 283 443 326 429 348 395 c 1
 375 417 424 442 474 442 c 0
 605 442 644 329 646 262 c 0
 646 241 634 239 608 235 c 0
 548 228 485 220 384 211 c 0
 379 211 377 208 377 204 c 0xdc
266 104 m 2
 266 195 l 1
 220 185 142 171 142 115 c 0
 142 75 169 57 199 57 c 0
 236 57 266 81 266 104 c 2
540 290 m 1
 540 326 520 396 471 396 c 1
 407 396 377 308 377 268 c 0
 377 266 378 262 384 262 c 0
 425 266 518 276 534 280 c 0
 538 281 540 285 540 290 c 1
EndSplineSet
Validated: 1
EndChar

StartChar: uni0302
Encoding: 770 770 242
Width: 354
Flags: W
HStem: 492 158
VStem: 55 218
LayerCount: 2
Fore
SplineSet
264 492 m 0
 253 492 192 538 164 562 c 1
 136 537 75 492 64 492 c 0
 58 492 55 508 55 516 c 1
 62 524 82 544 115 586 c 0
 133 608 143 625 153 641 c 0
 157 648 159 650 164 650 c 1
 169 650 170 647 174 641 c 0
 185 625 195 608 211 588 c 0
 245 544 269 521 273 516 c 1
 273 506 270 492 264 492 c 0
EndSplineSet
Validated: 1
EndChar

StartChar: tildecomb
Encoding: 771 771 243
Width: 415
Flags: W
HStem: 511 52<211.33 312.209> 564 52<76.8992 177.183>
VStem: 46 294
LayerCount: 2
Fore
SplineSet
53 520 m 0
 47 520 46 531 46 537 c 0
 46 553 55 566 62 576 c 0
 82 603 101 616 129 616 c 0
 188 616 219 563 278 563 c 0
 304 563 327 608 335 608 c 0
 338 608 340 598 340 590 c 0
 340 578 333 560 326 550 c 0
 306 522 288 511 260 511 c 0
 200 511 170 564 110 564 c 0
 86 564 62 520 53 520 c 0
EndSplineSet
Validated: 1
EndChar

StartChar: dotlessi
Encoding: 305 305 244
Width: 300
Flags: W
HStem: -3 33<30.3083 83.2129 217.875 268.161> 420 20G<202.5 206>
VStem: 99 104<42.5565 358.531>
LayerCount: 2
Fore
SplineSet
203 144 m 2
 203 110 203 82 210 54 c 0
 213 43 257 30 265 30 c 0
 270 30 269 3 267 -3 c 1
 227 -1 189 3 151 3 c 4
 109 3 75 -1 33 -3 c 1
 28 2 28 30 33 30 c 0
 45 30 88 43 91 54 c 0
 97 80 99 118 99 128 c 2
 99 289 l 2
 99 298 97 337 83 353 c 1
 64 375 26 371 26 376 c 0
 26 378 26 406 31 406 c 0
 67 410 156 428 193 437 c 0
 196 438 202 440 203 440 c 0
 209 440 210 426 210 420 c 0
 210 403 203 368 203 334 c 2
 203 144 l 2
EndSplineSet
Validated: 33
EndChar

StartChar: f_f
Encoding: 61696 61696 245
Width: 744
Flags: W
HStem: -3 33<27.3083 80.2129 214.875 265.161 321.308 374.213 508.875 559.161> 371 53<40.0793 96 200 390.999 494 610.88> 631 51<242.121 360.519> 645 51<535.038 620.394>
VStem: 96 104<42.5565 370.997 424.002 537.297> 391 103<43.0558 370.997 424.002 533.812> 402 92<424.002 588.178>
LayerCount: 2
Fore
SplineSet
390 128 m 6xdc
 390 128 391 275 391 364 c 0
 391 367 389 371 386 371 c 2
 206 371 l 2
 203 371 200 368 200 365 c 0
 200 275 200 144 200 144 c 6
 200 110 200 82 207 54 c 4
 210 43 254 30 262 30 c 4
 267 30 266 3 264 -3 c 5
 224 -1 186 3 148 3 c 4
 106 3 72 -1 30 -3 c 5
 25 2 25 30 30 30 c 4
 42 30 85 43 88 54 c 4
 94 80 96 118 96 128 c 6
 96 128 96 275 96 364 c 0
 96 367 95 371 92 371 c 2
 38 371 l 2
 36 371 36 373 36 377 c 0
 36 390 45 424 50 424 c 2
 92 424 l 2
 95 424 96 427 96 430 c 2
 96 440 l 1
 96 581 218 682 320 682 c 0xec
 388 682 443 652 465 627 c 1
 501 670 565 696 612 696 c 0
 673 696 706 676 716 659 c 1
 720 625 718 579 676 579 c 0
 634 579 628 643 580 645 c 0
 524 648 493 557 494 475 c 2
 494 429 l 2
 494 427 497 424 499 424 c 2
 610 424 l 2
 615 424 615 423 615 417 c 0
 615 408 610 385 603 371 c 1
 500 371 l 2
 497 371 494 368 494 365 c 0
 494 275 494 144 494 144 c 6
 494 110 494 82 501 54 c 4
 504 43 548 30 556 30 c 4
 561 30 560 3 558 -3 c 5
 518 -1 480 3 442 3 c 4
 400 3 366 -1 324 -3 c 5
 319 2 319 30 324 30 c 4
 336 30 379 43 382 54 c 4
 388 80 390 118 390 128 c 6xdc
401 521 m 0
 402 525 402 530 402 534 c 1xea
 402 540 398 556 396 560 c 0
 389 573 366 631 302 631 c 0
 226 631 199 557 200 475 c 2
 200 429 l 2
 200 427 202 424 204 424 c 2
 386 424 l 2
 389 424 391 427 391 430 c 2
 391 433 l 1
 391 458 395 499 401 521 c 0
EndSplineSet
Validated: 33
LCarets2: 1 0 
Ligature2: "'liga' Standard Ligatures in Latin lookup 0-1" f f
EndChar

StartChar: f_i
Encoding: 61697 61697 246
Width: 587
Flags: W
HStem: -3 33<27.3083 80.2129 214.875 265.161 320.308 373.213 507.875 558.161> 372 52<39.8928 96.9978 199.002 378.58> 420 20G<490.5 494.5> 554 127<383.154 469.524> 645 50<249.102 350.977>
VStem: 97 102<43.0558 371.997 424.002 542.899> 375 116<567.422 621.151> 389 104<42.5565 361.26>
LayerCount: 2
Fore
SplineSet
389 128 m 2xa5
 389 294 l 1xa5
 389 303 389 339 375 355 c 0
 362 371 329 372 309 372 c 0
 205 372 l 2
 202 372 199 369 199 366 c 0
 199 276 200 144 200 144 c 2
 200 110 200 82 207 54 c 0
 210 43 254 30 262 30 c 0
 267 30 266 3 264 -3 c 1
 224 -1 186 3 148 3 c 0
 106 3 72 -1 30 -3 c 1
 25 2 25 30 30 30 c 0
 42 30 85 43 88 54 c 0
 94 80 96 118 96 128 c 2
 96 128 97 276 97 365 c 0
 97 368 94 372 91 372 c 2
 39 372 l 2
 37 372 35 374 35 378 c 0
 35 391 46 424 51 424 c 2
 91 424 l 2
 94 424 97 427 97 430 c 2
 97 439 l 1
 97 577 210 695 331 695 c 0xce
 376 695 405 689 427 681 c 0
 464 670 491 646 491 614 c 0
 491 580 465 554 431 554 c 0x96
 406 554 385 568 375 588 c 0
 363 612 343 645 297 645 c 0
 237 645 198 557 199 475 c 2
 199 429 l 2
 199 427 203 424 205 424 c 2
 365 424 l 1xce
 389 424 449 425 483 437 c 0
 484 437 490 440 491 440 c 0xa6
 498 440 501 425 501 420 c 0
 497 388 493 368 493 334 c 2
 493 144 l 2
 493 110 493 82 500 54 c 0
 503 43 547 30 555 30 c 0
 560 30 559 3 557 -3 c 1
 517 -1 479 3 441 3 c 0
 399 3 365 -1 323 -3 c 1
 318 2 318 30 323 30 c 0
 335 30 378 43 381 54 c 0
 387 80 389 116 389 128 c 2xa5
EndSplineSet
Validated: 33
LCarets2: 1 0 
Ligature2: "'liga' Standard Ligatures in Latin lookup 0-1" f i
EndChar

StartChar: f_f_i
Encoding: 61698 61698 247
Width: 882
Flags: W
HStem: -3 33<27.3083 80.2129 214.875 265.161 321.308 374.213 508.875 559.161 615.308 668.213 802.875 853.161> 371 53<40.0793 96 200 390.999 494 672.774> 420 20G<785.5 789.5> 554 127<678.568 763.408> 631 51<242.121 360.372> 645 51<543.2 645.766>
VStem: 96 104<42.5565 370.997 424.002 537.297> 391 103<43.0558 370.932 424.002 533.812> 402 92<424.002 584.586> 670 116<567.422 621.151> 684 104<42.5565 361.26>
LayerCount: 2
Fore
SplineSet
684 133 m 2xa220
 684 294 l 2
 684 303 683 339 669 355 c 0
 656 371 623 372 603 372 c 0
 500 372 l 2
 497 372 494 370 494 366 c 0
 494 276 494 140 494 140 c 2
 494 106 494 82 501 54 c 0
 504 43 548 30 556 30 c 0
 561 30 560 3 558 -3 c 1
 518 -1 480 3 442 3 c 0
 400 3 366 -1 324 -3 c 1
 319 2 319 30 324 30 c 0
 336 30 379 43 382 54 c 0
 388 80 390 123 390 133 c 2
 390 133 391 275 391 364 c 0
 391 367 389 371 386 371 c 2
 206 371 l 2
 203 371 200 368 200 365 c 0
 200 275 200 140 200 140 c 2
 200 106 200 82 207 54 c 0
 210 43 254 30 262 30 c 0
 267 30 266 3 264 -3 c 1
 224 -1 186 3 148 3 c 0
 106 3 72 -1 30 -3 c 1
 25 2 25 30 30 30 c 0
 42 30 85 43 88 54 c 0
 94 80 96 123 96 133 c 2
 96 133 96 275 96 364 c 0
 96 367 95 371 92 371 c 2
 38 371 l 2
 36 371 36 373 36 377 c 0
 36 390 45 424 50 424 c 2
 92 424 l 2xc320
 95 424 96 427 96 430 c 2
 96 440 l 1
 96 581 218 682 320 682 c 0xab20
 388 682 443 652 465 627 c 1
 501 670 577 696 624 696 c 0x8720
 669 696 700 689 722 681 c 0
 758 670 786 646 786 614 c 0
 786 580 760 554 726 554 c 0x9340
 700 554 680 568 670 588 c 0
 658 612 637 645 591 645 c 0
 531 645 490 557 494 475 c 2
 494 429 l 2
 494 427 497 424 499 424 c 2
 659 424 l 1xc740
 683 424 745 425 777 437 c 0
 778 437 785 440 786 440 c 0xa340
 793 440 795 425 795 420 c 0
 791 388 788 368 788 334 c 2
 788 140 l 2
 788 106 788 82 795 54 c 0
 798 43 842 30 850 30 c 0
 855 30 854 3 852 -3 c 1
 812 -1 774 3 736 3 c 0
 694 3 660 -1 618 -3 c 1
 613 2 613 30 618 30 c 0
 630 30 673 43 676 54 c 0
 682 80 684 123 684 133 c 2xa220
302 631 m 0xca80
 226 631 199 557 200 475 c 2
 200 429 l 2
 200 427 202 424 204 424 c 2
 386 424 l 2
 389 424 391 427 391 430 c 2
 391 433 l 1xcb
 391 458 396 500 401 521 c 0
 402 525 402 530 402 534 c 1
 402 540 398 556 396 560 c 0
 388 572 366 631 302 631 c 0xca80
EndSplineSet
Validated: 33
LCarets2: 2 0 0 
Ligature2: "'liga' Standard Ligatures in Latin lookup 0-1" f f i
EndChar

StartChar: f_l
Encoding: 61699 61699 248
Width: 595
Flags: W
HStem: -3 33<27.3083 80.2129 214.875 265.161 329.308 382.213 516.875 567.161> 372 52<38.8928 96 198.002 316.005> 645 50<248.102 354.725>
VStem: 96 102<43.0558 371.997 424.002 542.899> 398 104<42.5565 599.259>
LayerCount: 2
Fore
SplineSet
398 133 m 6
 398 508 l 2
 398 528 395 563 386 584 c 0
 376 607 342 645 296 645 c 0
 236 645 197 557 198 475 c 2
 198 429 l 2
 198 427 202 424 204 424 c 2
 314 424 l 2
 319 424 320 423 320 417 c 0
 320 408 315 386 308 372 c 1
 204 372 l 2
 201 372 198 369 198 366 c 0
 198 276 200 140 200 140 c 6
 200 106 200 82 207 54 c 4
 210 43 254 30 262 30 c 4
 267 30 266 3 264 -3 c 5
 224 -1 186 3 148 3 c 4
 106 3 72 -1 30 -3 c 5
 25 2 25 30 30 30 c 4
 42 30 85 43 88 54 c 4
 94 80 96 123 96 133 c 6
 96 133 96 276 96 365 c 0
 96 368 93 372 90 372 c 2
 38 372 l 2
 36 372 34 374 34 378 c 0
 34 391 45 424 50 424 c 2
 90 424 l 2
 93 424 96 427 96 430 c 2
 96 439 l 1
 96 577 209 695 330 695 c 0
 357 695 389 675 410 675 c 0
 446 675 495 694 498 694 c 1
 500 694 l 1
 506 694 512 683 513 678 c 1
 513 678 502 640 502 584 c 2
 502 140 l 6
 502 106 502 82 509 54 c 4
 512 43 556 30 564 30 c 4
 569 30 568 3 566 -3 c 5
 526 -1 488 3 450 3 c 4
 408 3 374 -1 332 -3 c 5
 327 2 327 30 332 30 c 4
 344 30 387 43 390 54 c 4
 396 80 398 123 398 133 c 6
EndSplineSet
Validated: 33
LCarets2: 1 0 
Ligature2: "'liga' Standard Ligatures in Latin lookup 0-1" f l
EndChar

StartChar: f_f_l
Encoding: 61700 61700 249
Width: 890
Flags: W
HStem: -3 33<27.3083 80.2129 214.875 265.161 322.308 375.213 509.875 560.161 624.308 677.213 811.875 862.161> 371 54<40.3342 96 199.003 391 494.002 610.671> 631 50<241.994 360.372> 645 50<542.7 648.725>
VStem: 96 103<42.5565 370.997 425.001 537.141> 391 103<42.5565 370.932 425.055 533.812> 402 91<425.055 584.586> 693 104<42.5565 599.259>
LayerCount: 2
Fore
SplineSet
200 140 m 6xdd
 200 106 200 82 207 54 c 4
 210 43 254 30 262 30 c 4
 267 30 266 3 264 -3 c 5
 224 -1 186 3 148 3 c 4
 106 3 72 -1 30 -3 c 5
 25 2 25 30 30 30 c 4
 42 30 85 43 88 54 c 4
 94 80 96 123 96 133 c 6
 96 133 96 275 96 364 c 0
 96 367 95 371 92 371 c 2
 38 371 l 2
 36 371 36 373 36 377 c 0
 36 390 45 425 50 425 c 2
 92 425 l 2
 95 425 96 427 96 430 c 2
 96 440 l 1
 96 581 218 681 320 681 c 0xed
 388 681 443 652 465 627 c 1
 501 670 577 695 624 695 c 0
 651 695 683 675 704 675 c 0
 740 675 789 695 792 695 c 0
 795 695 l 0
 801 695 807 683 808 678 c 1
 808 678 797 640 797 584 c 2
 797 140 l 2
 797 106 797 82 804 54 c 0
 807 43 851 30 859 30 c 0
 864 30 863 3 861 -3 c 1
 821 -1 783 3 745 3 c 0
 703 3 669 -1 627 -3 c 1
 622 2 622 30 627 30 c 0
 639 30 682 43 685 54 c 0
 691 80 693 123 693 133 c 2
 693 508 l 2
 693 527 689 563 680 584 c 0
 670 607 636 645 590 645 c 0
 530 645 489 557 493 475 c 2xdb
 494 429 l 2
 494 427 497 424 499 424 c 2
 610 424 l 2
 615 424 615 423 615 417 c 0
 615 408 610 386 603 372 c 1
 500 372 l 2
 497 372 494 370 494 366 c 0
 494 276 495 140 495 140 c 6
 495 106 495 82 502 54 c 4
 505 43 549 30 557 30 c 4
 562 30 561 3 559 -3 c 5
 519 -1 481 3 443 3 c 4
 401 3 367 -1 325 -3 c 5
 320 2 320 30 325 30 c 4
 337 30 380 43 383 54 c 4
 389 80 391 123 391 133 c 6
 391 133 391 275 391 364 c 0
 391 367 389 371 386 371 c 2
 206 371 l 2
 203 371 199 368 199 365 c 0
 199 275 200 140 200 140 c 6xdd
302 631 m 0
 226 631 198 557 199 475 c 2
 199 429 l 2
 199 427 202 425 204 425 c 2
 386 425 l 2
 389 425 391 427 391 430 c 2
 391 433 l 1xed
 391 458 396 500 401 521 c 0
 402 525 402 530 402 534 c 1xeb
 402 540 398 556 396 560 c 0
 388 572 366 631 302 631 c 0
EndSplineSet
Validated: 33
LCarets2: 2 0 0 
Ligature2: "'liga' Standard Ligatures in Latin lookup 0-1" f f l
EndChar

StartChar: f_b
Encoding: 61701 61701 250
Width: 840
Flags: W
HStem: -7 48<518.905 655.951> -3 33<28.7256 80.0861 214.875 264.448> 372 52<38.8928 96 198.002 316.005> 380 63<537.271 649.264> 645 50<248.102 354.725>
VStem: 96 102<43.0558 371.997 424.002 542.899> 398 104<59.2213 357.404 403.914 599.259> 698 115<126.865 325.698>
LayerCount: 2
Fore
SplineSet
576 380 m 0x9f
 542 380 502 348 502 314 c 2
 502 99 l 2
 502 65 535 41 602 41 c 0
 671 41 698 118 698 199 c 0
 698 322 668 380 576 380 c 0x9f
96 128 m 2
 96 128 96 276 96 365 c 0
 96 368 93 372 90 372 c 2
 38 372 l 2
 36 372 34 374 34 378 c 0
 34 391 45 424 50 424 c 2
 90 424 l 2x6f
 93 424 96 427 96 430 c 2
 96 439 l 1
 96 577 209 695 330 695 c 0
 357 695 389 675 410 675 c 0
 446 675 495 694 498 694 c 1
 500 694 l 1
 506 694 512 683 513 678 c 1
 513 678 502 640 502 584 c 2
 502 415 l 10
 502 410 504 402 508 404 c 0
 526 414 567 443 611 443 c 3
 751 443 813 343 813 229 c 0
 813 100 714 -7 587 -7 c 0x9f
 503 -7 502 7 464 7 c 0
 448 7 419 -8 413 -8 c 2
 408 -8 l 1
 401 -3 386 3 389 14 c 0
 397 45 398 119 398 126 c 2
 398 508 l 2
 398 528 395 563 386 584 c 0
 376 607 342 645 296 645 c 0
 236 645 197 557 198 475 c 2
 198 429 l 2
 198 427 202 424 204 424 c 2
 314 424 l 2
 319 424 320 423 320 417 c 0
 320 408 315 386 308 372 c 1
 204 372 l 2
 201 372 198 369 198 366 c 0
 198 276 200 144 200 144 c 2
 200 110 200 82 207 54 c 0
 210 43 254 30 262 30 c 0
 267 30 266 3 264 -3 c 1
 224 -1 186 3 148 3 c 0
 106 3 72 -1 30 -3 c 1
 25 2 25 30 30 30 c 0x6f
 42 30 85 43 88 54 c 0
 94 80 96 118 96 128 c 2
EndSplineSet
Validated: 33
LCarets2: 1 0 
Ligature2: "'liga' Standard Ligatures in Latin lookup 0-1" f b
EndChar

StartChar: f_f_b
Encoding: 61702 61702 251
Width: 1134
Flags: W
HStem: -7 48<812.905 949.951> -3 33<27.3083 80.2129 214.875 265.161 322.308 375.213 509.875 560.161> 371 53<40.0793 96 200 391 494.002 610.671> 380 63<831.271 943.264> 631 51<242.121 360.372> 645 51<542.806 648.725>
VStem: 96 104<42.5565 370.997 424.002 537.297> 391 103<42.5565 370.932 424.002 533.812> 402 92<424.002 587.697> 692 104<59.2213 357.404 403.914 599.259> 992 115<126.865 325.698>
LayerCount: 2
Fore
SplineSet
495 140 m 2xa760
 495 106 495 82 502 54 c 0
 505 43 549 30 557 30 c 0
 562 30 561 3 559 -3 c 1
 519 -1 481 3 443 3 c 0
 401 3 367 -1 325 -3 c 1
 320 2 320 30 325 30 c 0
 337 30 380 43 383 54 c 0
 389 80 391 123 391 133 c 2
 391 133 391 275 391 364 c 0
 391 367 389 371 386 371 c 2
 206 371 l 2
 203 371 200 368 200 365 c 0
 200 275 200 140 200 140 c 2
 200 106 200 82 207 54 c 0
 210 43 254 30 262 30 c 0
 267 30 266 3 264 -3 c 1
 224 -1 186 3 148 3 c 0
 106 3 72 -1 30 -3 c 1
 25 2 25 30 30 30 c 0
 42 30 85 43 88 54 c 0
 94 80 96 123 96 133 c 2
 96 133 96 275 96 364 c 0
 96 367 95 371 92 371 c 2
 38 371 l 2
 36 371 36 373 36 377 c 0
 36 390 45 424 50 424 c 2
 92 424 l 2
 95 424 96 427 96 430 c 2
 96 440 l 1
 96 581 218 682 320 682 c 0x6b60
 388 682 443 652 465 627 c 1
 501 670 577 696 624 696 c 0
 651 696 683 675 704 675 c 0
 740 675 789 695 792 695 c 0
 795 695 l 0
 801 695 807 683 808 678 c 1
 808 678 796 640 796 584 c 2
 796 415 l 10
 796 410 798 402 802 404 c 0
 820 414 861 443 905 443 c 3x1760
 1045 443 1107 343 1107 229 c 0
 1107 100 1008 -7 881 -7 c 0
 797 -7 796 7 758 7 c 0
 742 7 713 -8 707 -8 c 2
 702 -8 l 1
 695 -3 680 3 683 14 c 0
 691 45 692 119 692 126 c 2
 692 508 l 2
 692 528 689 563 680 584 c 0
 670 607 636 645 590 645 c 0
 530 645 490 557 494 475 c 2
 494 429 l 2
 494 427 497 424 499 424 c 2
 610 424 l 2
 615 424 615 423 615 417 c 0
 615 408 610 386 603 372 c 1
 500 372 l 2
 497 372 494 370 494 366 c 0
 494 276 495 140 495 140 c 2xa760
870 380 m 0x9260
 836 380 796 348 796 314 c 2
 796 99 l 2
 796 65 829 41 896 41 c 0
 965 41 992 118 992 199 c 0
 992 322 962 380 870 380 c 0x9260
302 631 m 0x2ae0
 226 631 199 557 200 475 c 2
 200 429 l 2
 200 427 202 424 204 424 c 2
 386 424 l 2
 389 424 391 427 391 430 c 2
 391 433 l 1x2b60
 391 458 396 500 401 521 c 0
 402 525 402 530 402 534 c 1
 402 540 398 556 396 560 c 0
 388 572 366 631 302 631 c 0x2ae0
EndSplineSet
Validated: 33
LCarets2: 2 0 0 
Ligature2: "'liga' Standard Ligatures in Latin lookup 0-1" f f b
EndChar

StartChar: f_k
Encoding: 61703 61703 252
Width: 896
Flags: W
HStem: -3 33<27.3083 80.2129 214.875 265.161 330.308 383.213 517.875 568.161 622.308 660.982 798.292 864.857> 372 52<39.8928 96.9978 200 317.005> 394 30<606.555 652.782 755.076 816.272> 645 50<249.208 355.725>
VStem: 97 103<43.0558 371.997 424.002 542.899> 399 104<42.5565 204 250 599.259>
LayerCount: 2
Fore
SplineSet
399 508 m 6xbc
 399 528 396 563 387 584 c 0
 377 607 343 645 297 645 c 0
 237 645 199 557 200 475 c 2
 200 429 l 2
 200 427 203 424 205 424 c 2
 315 424 l 2
 320 424 321 423 321 417 c 0
 321 408 316 386 309 372 c 1
 205 372 l 2
 202 372 200 369 200 366 c 0
 200 276 200 144 200 144 c 6
 200 110 200 82 207 54 c 4
 210 43 254 30 262 30 c 4
 267 30 266 3 264 -3 c 5
 224 -1 186 3 148 3 c 4
 106 3 72 -1 30 -3 c 5
 25 2 25 30 30 30 c 4
 42 30 85 43 88 54 c 4
 94 80 96 118 96 128 c 6
 96 128 97 276 97 365 c 0
 97 368 94 372 91 372 c 2
 39 372 l 2
 37 372 35 374 35 378 c 0
 35 391 46 424 51 424 c 2
 91 424 l 2xdc
 94 424 97 427 97 430 c 2
 97 439 l 1
 97 577 210 695 331 695 c 0
 358 695 390 675 411 675 c 0
 447 675 496 694 499 694 c 1
 501 694 l 1
 507 694 513 683 514 678 c 1
 514 678 503 640 503 584 c 6
 503 250 l 21
 511 252 524 254 532 261 c 4
 620 338 653 357 653 377 c 4
 653 397 619 391 607 394 c 5
 604 403 604 422 609 424 c 5
 609 424 684 424 705 424 c 5
 741 424 767 426 812 428 c 5
 820 423 817 400 815 395 c 4
 814 394 803 392 797 391 c 4
 781 388 755 380 743 374 c 4
 729 366 656 317 601 260 c 5
 676 179 759 74 786 54 c 5
 806 37 852 30 860 30 c 4
 863 30 865 17 865 10 c 4
 865 5 864 -1 863 -3 c 5
 823 -1 781 3 743 3 c 4
 702 3 666 -1 625 -3 c 5
 620 2 620 30 625 30 c 4
 636 30 661 35 661 42 c 4
 661 43 661 44 660 45 c 6
 514 207 l 5
 503 204 l 29
 503 144 l 6
 503 110 503 82 510 54 c 4
 513 43 557 30 565 30 c 4
 570 30 569 3 567 -3 c 5
 527 -1 489 3 451 3 c 4
 409 3 375 -1 333 -3 c 5
 328 2 328 30 333 30 c 4
 345 30 388 43 391 54 c 4
 397 80 399 118 399 128 c 6
 399 508 l 6xbc
EndSplineSet
Validated: 33
LCarets2: 1 0 
Ligature2: "'liga' Standard Ligatures in Latin lookup 0-1" f k
EndChar

StartChar: f_f_k
Encoding: 61704 61704 253
Width: 1189
Flags: W
HStem: -3 33<25.0058 83.7063 208.322 262.595 320.437 373.213 507.875 558.053 623.437 676.213 810.875 861.053 915.437 953.982 1091.29 1157.86> 371 54<38.3342 94 197.003 389 492.002 608.671> 394 30<899.555 945.782 1048.08 1109.27> 631 50<239.994 358.372> 645 50<540.806 646.725>
VStem: 94 103<39.0558 370.997 425.001 537.141> 389 103<42.5565 370.932 425.055 533.812> 400 92<425.055 587.697> 692 104<42.5565 204 250 596.786>
LayerCount: 2
Fore
SplineSet
692 508 m 2xae80
 692 527 687 563 678 584 c 0
 668 607 634 645 588 645 c 0
 528 645 488 557 492 475 c 2
 492 429 l 2
 492 427 495 424 497 424 c 2
 608 424 l 2xae80
 613 424 613 423 613 417 c 0
 613 408 608 386 601 372 c 1
 498 372 l 2
 495 372 492 370 492 366 c 0
 492 276 493 144 493 144 c 2
 493 110 493 82 500 54 c 0
 503 43 547 30 555 30 c 0
 560 30 559 3 557 -3 c 1
 517 -1 479 3 441 3 c 0
 399 3 365 -1 323 -3 c 1
 318 2 318 30 323 30 c 0
 335 30 378 43 381 54 c 0
 387 80 389 118 389 128 c 2
 389 128 389 275 389 364 c 0
 389 367 387 371 384 371 c 2
 204 371 l 2
 201 371 197 368 197 365 c 0
 197 275 198 140 198 140 c 2
 198 106 199 78 206 50 c 0
 209 39 252 26 260 26 c 0
 265 26 265 2 263 -4 c 1
 223 -2 187 3 147 3 c 0
 105 3 71 -2 29 -4 c 1
 27 -2 25 7 25 14 c 1
 25 21 27 26 29 26 c 0
 41 26 83 39 86 50 c 0
 93 78 94 112 94 133 c 2
 94 133 94 275 94 364 c 0
 94 367 93 371 90 371 c 2
 36 371 l 2
 34 371 34 373 34 377 c 0
 34 390 43 425 48 425 c 2
 90 425 l 2
 93 425 94 427 94 430 c 2
 94 440 l 1
 94 581 216 681 318 681 c 0xd680
 386 681 441 652 463 627 c 1
 499 670 575 695 622 695 c 0
 649 695 681 675 702 675 c 0
 738 675 787 695 790 695 c 0
 793 695 l 0
 799 695 805 683 806 678 c 1
 806 678 796 640 796 584 c 2
 796 250 l 17
 804 252 817 254 825 261 c 0
 913 338 946 357 946 377 c 0
 946 397 912 391 900 394 c 1
 897 403 897 422 902 424 c 1
 902 424 977 424 998 424 c 1
 1034 424 1060 426 1105 428 c 1
 1113 423 1110 400 1108 395 c 0
 1107 394 1096 392 1090 391 c 0
 1074 388 1048 380 1036 374 c 0
 1022 366 949 317 894 260 c 1
 969 179 1052 74 1079 54 c 1
 1099 37 1145 30 1153 30 c 0
 1156 30 1158 17 1158 10 c 0
 1158 5 1157 -1 1156 -3 c 1
 1116 -1 1074 3 1036 3 c 0
 995 3 959 -1 918 -3 c 1
 913 2 913 30 918 30 c 0
 929 30 954 35 954 42 c 0
 954 43 954 44 953 45 c 2
 807 207 l 1
 796 204 l 25
 796 144 l 2
 796 110 796 82 803 54 c 0
 806 43 850 30 858 30 c 0
 863 30 862 3 860 -3 c 1
 820 -1 782 3 744 3 c 0
 702 3 668 -1 626 -3 c 1
 621 2 621 30 626 30 c 0
 638 30 681 43 684 54 c 0
 690 80 692 118 692 128 c 2
 692 508 l 2xae80
300 631 m 0xd580
 224 631 196 557 197 475 c 2
 197 429 l 2
 197 427 200 425 202 425 c 2
 384 425 l 2
 387 425 389 427 389 430 c 2
 389 433 l 1xd680
 389 458 394 500 399 521 c 0
 400 525 400 530 400 534 c 1
 400 540 396 556 394 560 c 0
 386 572 364 631 300 631 c 0xd580
EndSplineSet
Validated: 33
LCarets2: 2 0 0 
Ligature2: "'liga' Standard Ligatures in Latin lookup 0-1" f f k
EndChar

StartChar: f_h
Encoding: 61705 61705 254
Width: 872
Flags: W
HStem: -4 31<25.0898 78.352 213.875 264.177 328.188 381.213 515.014 566.177 605.188 659.074 792.875 843.997> 372 52<37.8928 94.9978 198 315.005> 645 50<247.208 353.725>
VStem: 95 103<39.3081 371.997 424.002 542.899> 397 103<38.8298 344.191 386 599.259> 675 102<39.3081 338.866>
LayerCount: 2
Fore
SplineSet
397 508 m 2
 397 528 394 563 385 584 c 0
 375 607 341 645 295 645 c 0
 235 645 197 557 198 475 c 6
 198 429 l 2
 198 427 201 424 203 424 c 2
 313 424 l 2
 318 424 319 423 319 417 c 0
 319 408 314 386 307 372 c 1
 203 372 l 2
 200 372 198 369 198 366 c 0
 198 276 198 140 198 140 c 2
 198 106 199 78 206 50 c 0
 209 39 253 27 261 27 c 0
 266 27 265 2 263 -4 c 1
 223 -2 187 3 147 3 c 0
 105 3 71 -2 29 -4 c 1
 27 -2 25 7 25 14 c 1
 25 21 27 27 29 27 c 0
 41 27 83 39 86 50 c 0
 93 78 94 112 94 133 c 2
 94 133 95 276 95 365 c 0
 95 368 92 372 89 372 c 2
 37 372 l 2
 35 372 33 374 33 378 c 0
 33 391 44 424 49 424 c 2
 89 424 l 2
 92 424 95 427 95 430 c 2
 95 439 l 1
 95 577 208 695 329 695 c 0
 356 695 388 675 409 675 c 0
 445 675 494 694 497 694 c 1
 499 694 l 1
 505 694 511 683 512 678 c 1
 512 678 500 640 500 584 c 2
 500 386 l 2
 500 384 501 380 503 380 c 0
 505 379 506 381 507 382 c 1
 525 400 577 442 631 442 c 27
 717 442 777 355 777 276 c 2
 777 132 l 2
 777 112 779 74 785 50 c 0
 788 39 832 27 840 27 c 0
 843 27 844 19 844 12 c 1
 844 6 843 -1 842 -4 c 1
 802 -2 765 3 727 3 c 0
 685 3 650 -2 608 -4 c 1
 603 1 603 27 608 27 c 0
 620 27 664 39 667 50 c 0
 674 78 675 112 675 133 c 2
 675 226 l 2
 675 332 648 371 587 371 c 0
 549 371 513 338 505 328 c 0
 503 325 500 321 500 318 c 2
 500 140 l 2
 500 106 500 78 507 50 c 0
 510 39 555 27 563 27 c 0
 568 27 567 2 565 -4 c 1
 525 -2 487 3 449 3 c 0
 407 3 373 -2 331 -4 c 1
 326 1 326 27 331 27 c 0
 343 27 386 39 389 50 c 0
 395 76 397 121 397 128 c 2
 397 508 l 2
EndSplineSet
Validated: 33
LCarets2: 1 0 
Ligature2: "'liga' Standard Ligatures in Latin lookup 0-1" f h
EndChar

StartChar: f_f_h
Encoding: 61706 61706 255
Width: 1168
Flags: W
HStem: -3 33<27.3083 80.2129 214.875 265.161 321.308 374.213 508.875 559.161 623.308 676.213 810.875 861.161 900.308 953.213 1087.87 1138.16> 371 53<40.0793 96 200 390.999 494 610.671> 631 51<242.121 360.372> 645 51<542.806 648.725>
VStem: 96 104<42.5565 370.997 424.002 537.297> 391 103<43.0558 370.932 424.002 533.812> 402 92<424.002 587.697> 693 103<43.0558 344.191 386 599.259> 970 103<43.0558 338.866>
LayerCount: 2
Fore
SplineSet
796 138 m 2xdd80
 796 104 796 82 803 54 c 0
 806 43 850 30 858 30 c 0
 863 30 862 3 860 -3 c 1
 820 -1 782 3 744 3 c 0
 702 3 668 -1 626 -3 c 1
 621 2 621 30 626 30 c 0
 638 30 681 43 684 54 c 0
 690 80 692 118 692 128 c 2
 693 508 l 2
 693 527 689 563 680 584 c 0
 670 607 636 645 590 645 c 0xdd80
 530 645 490 557 494 475 c 2
 494 429 l 2
 494 427 497 424 499 424 c 2
 610 424 l 2
 615 424 615 423 615 417 c 0
 615 408 610 386 603 372 c 1
 500 372 l 2
 497 372 494 370 494 366 c 0
 494 276 494 144 494 144 c 2
 494 110 494 82 501 54 c 0
 504 43 548 30 556 30 c 0
 561 30 560 3 558 -3 c 1
 518 -1 480 3 442 3 c 0
 400 3 366 -1 324 -3 c 1
 319 2 319 30 324 30 c 0
 336 30 379 43 382 54 c 0
 388 80 390 118 390 128 c 2
 390 128 391 275 391 364 c 0
 391 367 389 371 386 371 c 2
 206 371 l 2
 203 371 200 368 200 365 c 0
 200 275 200 144 200 144 c 2
 200 110 200 82 207 54 c 0
 210 43 254 30 262 30 c 0
 267 30 266 3 264 -3 c 1
 224 -1 186 3 148 3 c 0
 106 3 72 -1 30 -3 c 1
 25 2 25 30 30 30 c 0
 42 30 85 43 88 54 c 0
 94 80 96 118 96 128 c 2
 96 128 96 275 96 364 c 0
 96 367 95 371 92 371 c 2
 38 371 l 2
 36 371 36 373 36 377 c 0
 36 390 45 424 50 424 c 2
 92 424 l 2
 95 424 96 427 96 430 c 2
 96 440 l 1
 96 581 218 682 320 682 c 0xed80
 388 682 443 652 465 627 c 1
 501 670 577 696 624 696 c 0
 651 696 683 675 704 675 c 0
 740 675 789 695 792 695 c 0
 795 695 l 0
 801 695 807 683 808 678 c 1
 808 678 796 640 796 584 c 2
 796 386 l 2
 796 384 797 380 799 380 c 0
 801 379 802 381 803 382 c 1
 821 400 873 442 927 442 c 27
 1013 442 1073 355 1073 276 c 2
 1073 144 l 2
 1073 110 1073 82 1080 54 c 0
 1083 43 1127 30 1135 30 c 0
 1140 30 1139 3 1137 -3 c 1
 1097 -1 1059 3 1021 3 c 0
 979 3 945 -1 903 -3 c 1
 898 2 898 30 903 30 c 0
 915 30 958 43 961 54 c 0
 967 80 970 116 970 126 c 2
 971 226 l 2
 972 332 944 371 883 371 c 0
 845 371 809 338 801 328 c 0
 799 325 796 321 796 318 c 2
 796 138 l 2xdd80
302 631 m 0xeb80
 226 631 199 557 200 475 c 2
 200 429 l 2
 200 427 202 424 204 424 c 2
 386 424 l 2
 389 424 391 427 391 430 c 2
 391 433 l 1xed80
 391 458 396 500 401 521 c 0
 402 525 402 530 402 534 c 1
 402 540 398 556 396 560 c 0
 388 572 366 631 302 631 c 0xeb80
EndSplineSet
Validated: 33
LCarets2: 2 0 0 
Ligature2: "'liga' Standard Ligatures in Latin lookup 0-1" f f h
EndChar

StartChar: f_j
Encoding: 61707 61707 256
Width: 528
Flags: W
HStem: -224 21G<297.5 322.5> -4 31<25.0898 78.352 213.875 264.177> 372 52<37.8928 94.9978 197.002 376.58> 420 20G<488.5 492.5> 554 127<381.154 467.524> 645 50<247.102 348.977>
VStem: 95 102<39.3081 371.997 424.002 542.899> 373 116<567.422 621.151> 387 104<-59.7008 361.26>
LayerCount: 2
Fore
SplineSet
387 294 m 2xd280
 387 303 387 339 373 355 c 0
 360 371 327 372 307 372 c 0
 203 372 l 2
 200 372 197 369 197 366 c 0
 197 276 198 140 198 140 c 2
 198 106 199 78 206 50 c 0
 209 39 253 27 261 27 c 0
 266 27 265 2 263 -4 c 1
 223 -2 187 3 147 3 c 0
 105 3 71 -2 29 -4 c 1
 27 -2 25 7 25 14 c 1
 25 21 27 27 29 27 c 0
 41 27 83 39 86 50 c 0
 93 78 94 112 94 133 c 2
 94 133 95 276 95 365 c 0
 95 368 92 372 89 372 c 2
 37 372 l 2
 35 372 33 374 33 378 c 0
 33 391 44 424 49 424 c 2
 89 424 l 2
 92 424 95 427 95 430 c 2
 95 439 l 1
 95 577 208 695 329 695 c 0xe7
 374 695 403 689 425 681 c 0
 462 670 489 646 489 614 c 0
 489 580 463 554 429 554 c 0xcb
 404 554 383 568 373 588 c 0
 361 612 341 645 295 645 c 0
 235 645 196 557 197 475 c 2
 197 429 l 2
 197 427 201 424 203 424 c 2
 363 424 l 1xe7
 387 424 447 425 481 437 c 0
 482 437 488 440 489 440 c 0xd3
 496 440 499 425 499 420 c 0
 495 388 491 368 491 334 c 2
 491 100 l 2
 491 66 490 -38 447 -111 c 24
 411 -173 344 -209 301 -224 c 1
 294 -221 281 -214 281 -202 c 27
 281 -199 282 -196 283 -195 c 0
 291 -189 387 -154 387 63 c 2
 387 294 l 2xd280
EndSplineSet
Validated: 33
LCarets2: 1 0 
Ligature2: "'liga' Standard Ligatures in Latin lookup 0-1" f j
EndChar

StartChar: f_f_j
Encoding: 61708 61708 257
Width: 822
Flags: W
HStem: -224 21G<592.5 617.5> -4 31<25.0898 78.352 213.736 263.506 320.09 372.491 507.875 558.506> 371 53<38.0793 94 198 388.999 492 670.774> 420 20G<783.5 787.5> 554 127<676.568 761.408> 631 51<240.121 358.372> 645 51<541.2 643.766>
VStem: 94 104<38.8298 370.997 424.002 537.297> 389 103<39.3081 370.932 424.002 533.812> 400 92<424.002 584.586> 668 116<567.422 621.151> 682 104<-59.7008 361.26>
LayerCount: 2
Fore
SplineSet
682 294 m 2xd110
 682 303 681 339 667 355 c 0
 654 371 621 372 601 372 c 0
 498 372 l 2
 495 372 492 370 492 366 c 0
 492 276 492 140 492 140 c 2
 492 106 493 78 500 50 c 0
 503 39 547 27 555 27 c 0
 560 27 560 2 558 -4 c 1
 518 -2 482 3 442 3 c 0
 400 3 366 -2 324 -4 c 1
 322 -2 320 7 320 14 c 1
 320 21 322 27 324 27 c 0
 336 27 377 39 380 50 c 0
 387 78 388 112 388 133 c 2
 388 133 389 275 389 364 c 0
 389 367 387 371 384 371 c 2
 204 371 l 2
 201 371 198 368 198 365 c 0
 198 275 198 140 198 140 c 2
 198 106 199 78 206 50 c 0
 209 39 252 27 260 27 c 0
 265 27 265 2 263 -4 c 1
 223 -2 187 3 147 3 c 0
 105 3 71 -2 29 -4 c 1
 27 -2 25 7 25 14 c 1
 25 21 27 27 29 27 c 0
 41 27 83 39 86 50 c 0
 93 78 94 112 94 133 c 2
 94 133 94 275 94 364 c 0
 94 367 93 371 90 371 c 2
 36 371 l 2
 34 371 34 373 34 377 c 0
 34 390 43 424 48 424 c 2
 90 424 l 2xe190
 93 424 94 427 94 430 c 2
 94 440 l 1
 94 581 216 682 318 682 c 0xd590
 386 682 441 652 463 627 c 1
 499 670 575 696 622 696 c 0xc390
 667 696 698 689 720 681 c 0
 756 670 784 646 784 614 c 0
 784 580 758 554 724 554 c 0xc9a0
 698 554 678 568 668 588 c 0
 656 612 635 645 589 645 c 0
 529 645 488 557 492 475 c 2
 492 429 l 2
 492 427 495 424 497 424 c 2
 657 424 l 1xe3a0
 681 424 743 425 775 437 c 0
 776 437 783 440 784 440 c 0xd1a0
 791 440 793 425 793 420 c 0
 789 388 786 368 786 334 c 2
 786 100 l 2
 786 66 785 -38 742 -111 c 24
 706 -173 639 -209 596 -224 c 1
 589 -221 576 -214 576 -202 c 27
 576 -199 577 -196 578 -195 c 0
 586 -189 682 -154 682 63 c 2
 682 294 l 2xd110
300 631 m 0xe540
 224 631 197 557 198 475 c 6
 198 429 l 2
 198 427 200 424 202 424 c 2
 384 424 l 2
 387 424 389 427 389 430 c 2
 389 433 l 1xe580
 389 458 394 500 399 521 c 0
 400 525 400 530 400 534 c 1
 400 540 396 556 394 560 c 0
 386 572 364 631 300 631 c 0xe540
EndSplineSet
Validated: 33
LCarets2: 2 0 0 
Ligature2: "'liga' Standard Ligatures in Latin lookup 0-1" f f j
EndChar

StartChar: T_h
Encoding: 61709 61709 258
Width: 1108
Flags: W
HStem: -3 33<196.09 259.934 401.339 461.943 561.308 614.213 748.875 799.161 839.308 892.213 1026.87 1077.16> 371 9<738 822> 611 51<94.9791 267.07 394.581 613.951> 674 20G<717.5 735>
VStem: 24 36<513.031 566.002> 274 113<42.5276 602.548> 632 103<43.5593 344.191 386 591.754> 909 103<43.0558 338.866>
LayerCount: 2
Fore
SplineSet
1012 144 m 2
 1012 110 1012 82 1019 54 c 0
 1022 43 1066 30 1074 30 c 0
 1079 30 1078 3 1076 -3 c 1
 1036 -1 998 3 960 3 c 0
 918 3 884 -1 842 -3 c 1
 837 2 837 30 842 30 c 0
 854 30 897 43 900 54 c 0
 906 80 909 111 909 121 c 2
 910 226 l 2
 911 332 883 371 822 371 c 0
 784 371 748 338 740 328 c 0
 738 325 735 321 735 318 c 2
 735 140 l 2
 735 106 734 82 741 54 c 0
 744 43 788 30 796 30 c 0
 801 30 800 3 798 -3 c 1
 758 -1 720 3 682 3 c 0
 640 3 606 -1 564 -3 c 1
 559 2 559 30 564 30 c 0
 576 30 619 43 622 54 c 0
 628 80 630 118 630 128 c 2
 632 538 l 0
 632 586 616 611 513 611 c 0
 424 611 398 602 396 594 c 0
 388 566 387 538 387 500 c 2
 387 142 l 2
 387 106 389 79 396 52 c 0
 399 41 450 30 458 30 c 0
 461 30 462 17 462 11 c 0
 462 6 461 0 460 -3 c 1
 420 -1 377 3 333 3 c 0
 287 3 246 -1 200 -3 c 1
 198 -1 196 5 196 11 c 0
 196 17 198 30 200 30 c 0
 212 30 261 40 266 52 c 1
 272 75 274 118 274 136 c 2
 274 497 l 2
 274 537 273 580 265 594 c 0
 261 602 249 611 170 611 c 0
 106 611 79 592 60 518 c 0
 59 514 55 512 50 512 c 0
 41 512 27 517 24 520 c 1
 43 672 l 1
 59 668 98 662 112 662 c 0
 201 661 251 656 331 656 c 0
 411 656 464 658 551 662 c 0
 651 667 705 686 730 694 c 1
 732 694 l 1
 738 694 745 683 746 678 c 1
 746 678 735 640 735 584 c 2
 735 386 l 2
 735 384 736 380 738 380 c 0
 740 379 741 381 742 382 c 1
 760 400 812 442 866 442 c 27
 952 442 1012 355 1012 276 c 2
 1012 144 l 2
EndSplineSet
Validated: 33
LCarets2: 1 0 
Ligature2: "'liga' Standard Ligatures in Latin lookup 0-1" T h
EndChar

StartChar: zero.onum
Encoding: 63280 63280 259
Width: 510
Flags: W
HStem: -7 58<198.929 319.789> 392 58<190.671 308.614>
VStem: 27 103<133.039 321.359> 380 103<123.877 310.383>
LayerCount: 2
Fore
SplineSet
249 392 m 0
 177 392 130 314 130 230 c 0
 130 130 191 51 261 51 c 0
 333 51 380 129 380 213 c 0
 380 313 319 392 249 392 c 0
255 450 m 0
 382 450 483 348 483 222 c 0
 483 96 384 -7 256 -7 c 0
 128 -7 27 96 27 222 c 0
 27 349 127 450 255 450 c 0
EndSplineSet
Validated: 1
EndChar

StartChar: one.onum
Encoding: 63281 63281 260
Width: 288
Flags: W
HStem: -3 33<27.3083 79.3594 214.734 264.997> 407 33<24.2188 83.75> 425 33<216.955 262.788>
VStem: 94 104<43.2833 398.578>
LayerCount: 2
Fore
SplineSet
142 444 m 0xd0
 182 447 216 453 258 458 c 1
 261 455 263 445 263 437 c 1
 263 432 262 425 260 425 c 0xb0
 248 424 206 408 204 397 c 0
 200 374 198 340 198 326 c 2
 198 135 l 2
 198 105 200 79 206 55 c 0
 209 44 253 30 261 30 c 0
 264 30 265 21 265 14 c 0
 265 8 264 0 263 -3 c 1
 223 -1 184 3 146 3 c 0
 104 3 72 -1 30 -3 c 1
 25 2 25 30 30 30 c 0
 42 30 85 44 88 55 c 0
 94 78 94 108 94 122 c 2
 94 313 l 2
 94 343 92 364 86 388 c 0
 83 399 48 406 36 407 c 0
 33 407 29 407 29 407 c 0
 25 407 24 422 24 430 c 0
 24 434 24 438 24 440 c 1
 64 441 104 441 142 444 c 0xd0
EndSplineSet
Validated: 33
EndChar

StartChar: two.onum
Encoding: 63282 63282 261
Width: 424
Flags: W
HStem: 0 86<153.862 345.636> 380 77<133.267 225.049>
VStem: 247 110<270.718 359.884> 367 34<115.545 158.297>
LayerCount: 2
Fore
SplineSet
220 457 m 0
 302 457 357 394 357 335 c 0
 357 289 321 246 291 216 c 0
 236 165 192 129 154 98 c 0
 151 95 152 86 157 86 c 2
 286 86 l 2
 345 86 349 111 367 150 c 0
 369 155 373 159 379 159 c 0
 383 159 397 156 401 151 c 1
 390 100 374 52 365 0 c 1
 219 0 l 1
 219 0 38 0 31 0 c 1
 24 2 23 12 23 20 c 1
 137 131 247 236 247 308 c 0
 247 340 225 380 167 380 c 0
 100 380 66 322 46 304 c 1
 39 303 33 313 31 317 c 1
 29 321 27 328 27 330 c 0
 37 350 26 333 27 334 c 0
 46 370 118 457 220 457 c 0
EndSplineSet
Validated: 5
EndChar

StartChar: three.onum
Encoding: 63283 63283 262
Width: 410
Flags: W
HStem: -186 50<76 192.615> 390 68<150.941 258.5>
VStem: 246 96<278.441 373.919> 275 112<-23.5569 98.4444>
LayerCount: 2
Fore
SplineSet
236 458 m 0xe0
 281 458 342 426 342 354 c 0xe0
 342 290 290 227 245 194 c 1
 289 192 387 149 387 54 c 0
 387 -78 209 -186 89 -186 c 0
 63 -186 44 -180 28 -174 c 1
 24 -166 21 -154 21 -146 c 0
 21 -124 45 -101 65 -101 c 0
 102 -101 103 -136 145 -136 c 0
 217 -136 275 -65 275 23 c 0xd0
 275 87 237 138 177 138 c 0
 155 138 133 133 115 127 c 1
 108 129 105 139 105 147 c 0
 105 151 107 163 109 168 c 1
 175 191 246 242 246 319 c 0
 246 364 216 390 183 390 c 0
 134 390 104 353 91 340 c 0
 88 337 87 336 84 336 c 0
 78 336 72 349 72 356 c 3
 72 357 72 360 73 362 c 0
 108 413 160 458 236 458 c 0xe0
EndSplineSet
Validated: 1
EndChar

StartChar: four.onum
Encoding: 63284 63284 263
Width: 478
Flags: W
HStem: 6 65<108.955 284.949 387.001 453.675>
VStem: 285 102<-184.432 5.99781 71.0476 297.996>
LayerCount: 2
Fore
SplineSet
333 -187 m 0
 303 -187 285 -181 285 -172 c 2
 285 0 l 1
 284 5 278 6 275 6 c 2
 37 6 l 1
 29 13 23 26 23 44 c 1
 141 192 241 314 345 446 c 0
 351 454 363 459 371 459 c 0
 377 459 387 455 387 449 c 2
 387 79 l 2
 387 74 389 72 395 71 c 1
 439 71 l 2
 451 71 455 58 455 20 c 0
 455 14 449 8 447 6 c 1
 435 6 392 6 392 6 c 2
 388 6 387 3 387 -2 c 2
 387 -178 l 1
 387 -178 371 -187 333 -187 c 0
285 78 m 1
 285 289 l 2
 285 292 283 298 281 298 c 1
 281 298 280 297 279 296 c 2
 109 83 l 2
 108 82 109 81 109 80 c 0
 109 76 111 71 115 71 c 2
 275 70 l 1
 278 71 284 72 285 78 c 1
EndSplineSet
Validated: 1
EndChar

StartChar: five.onum
Encoding: 63285 63285 264
Width: 362
Flags: W
HStem: -186 30<21.363 96.4308> 358 91<114.656 331.886>
VStem: 46 61<277.001 333.291> 225 108<-28.9457 117.281>
LayerCount: 2
Fore
SplineSet
329 456 m 1
 333 450 337 440 337 422 c 0
 337 405 333 376 326 363 c 1
 208 357 143 359 127 358 c 0
 119 358 118 356 117 350 c 2
 107 291 l 1
 107 281 116 279 125 277 c 0
 231 253 333 174 333 69 c 0
 333 -93 177 -186 27 -186 c 1
 24 -182 21 -175 21 -166 c 1
 21 -158 24 -156 29 -156 c 0
 97 -156 225 -96 225 36 c 0
 225 134 152 187 59 207 c 0
 53 208 49 212 46 220 c 1
 46 222 75 402 83 442 c 0
 84 446 87 449 91 449 c 0
 162 449 293 448 329 456 c 1
EndSplineSet
Validated: 33
EndChar

StartChar: six.onum
Encoding: 63286 63286 265
Width: 449
Flags: W
HStem: -6 46<179.941 281.376> 332 49<179.086 276.451>
VStem: 27 112<110.849 302.428> 312 111<100.733 285.795>
LayerCount: 2
Fore
SplineSet
253 381 m 0
 359 381 423 288 423 190 c 0
 423 83 335 -6 229 -6 c 0
 125 -6 27 84 27 204 c 0
 27 415 230 567 382 637 c 1
 394 634 401 617 401 606 c 1
 304 558 214 468 169 352 c 1
 188 366 221 381 253 381 c 0
225 332 m 0
 185 332 161 308 153 299 c 1
 145 265 139 229 139 192 c 0
 139 102 172 40 235 40 c 0
 274 40 312 76 312 176 c 0
 312 261 290 332 225 332 c 0
EndSplineSet
Validated: 1
EndChar

StartChar: seven.onum
Encoding: 63287 63287 266
Width: 466
Flags: W
HStem: 360 88<79.7456 354>
VStem: 23 32<291.742 325.034>
LayerCount: 2
Fore
SplineSet
369 448 m 2
 395 448 429 452 435 452 c 0
 441 452 443 447 443 442 c 0
 443 429 433 408 415 376 c 2
 105 -186 l 1
 102 -187 99 -187 97 -187 c 0
 81 -187 68 -171 68 -158 c 0
 68 -155 68 -151 70 -148 c 2
 354 361 l 1
 312 361 162 360 123 360 c 1
 80 360 62 310 55 290 c 1
 47 289 31 288 23 296 c 1
 29 342 45 398 49 436 c 0
 50 444 58 448 67 448 c 2
 369 448 l 2
EndSplineSet
Validated: 33
EndChar

StartChar: eight.onum
Encoding: 63288 63288 267
Width: 436
Flags: W
HStem: -6 43<168.226 276.062> 585 45<170.755 269.451>
VStem: 24 107<78.6071 237.665> 45 102<422.807 552.582> 294 102<413.128 556.896> 306 106<88.8712 202.424>
LayerCount: 2
Fore
SplineSet
131 158 m 1xe4
 131 91 166 37 218 37 c 1
 275 37 306 76 306 140 c 1
 306 214 218 267 196 282 c 0
 192 285 186 287 184 287 c 0
 182 287 181 287 179 286 c 0
 141 267 131 217 131 158 c 1xe4
147 487 m 3xd8
 147 425 194 397 234 371 c 0
 237 369 240 368 243 368 c 0
 246 368 248 369 250 371 c 0
 286 399 294 437 294 483 c 3
 294 541 269 585 221 585 c 1
 173 585 147 545 147 487 c 3xd8
45 480 m 3
 45 565 127 630 215 630 c 27
 306 630 396 578 396 484 c 3xd8
 396 413 334 362 290 338 c 0
 287 337 288 334 290 332 c 0
 333 300 412 244 412 168 c 1
 412 66 316 -6 214 -6 c 1
 116 -6 24 54 24 161 c 1xe4
 24 249 100 298 140 318 c 0
 142 319 142 322 139 324 c 0
 95 357 45 399 45 480 c 3
EndSplineSet
Validated: 1
EndChar

StartChar: nine.onum
Encoding: 63289 63289 268
Width: 450
Flags: W
HStem: 70 49<174.541 272.556> 410 46<169.584 270.879>
VStem: 27 112<164.841 348.171> 311 112<148.572 339.918>
LayerCount: 2
Fore
SplineSet
222 456 m 0
 326 456 423 367 423 247 c 0
 423 36 221 -116 69 -186 c 1
 58 -182 50 -167 50 -156 c 1
 147 -108 236 -18 281 98 c 1
 262 84 230 70 198 70 c 0
 92 70 27 162 27 260 c 0
 27 367 116 456 222 456 c 0
216 410 m 0
 177 410 139 375 139 275 c 0
 139 190 161 119 226 119 c 0
 266 119 290 143 298 152 c 1
 306 186 311 222 311 259 c 0
 311 349 279 410 216 410 c 0
EndSplineSet
Validated: 1
EndChar

